<svg id="Layer_1" data-name="Layer 1" xmlns="http://www.w3.org/2000/svg" xmlns:xlink="http://www.w3.org/1999/xlink" viewBox="0 0 2000 2000"><defs><style>.cls-1{fill:#fff;}.cls-2{fill:url(#linear-gradient);}.cls-3{fill:url(#linear-gradient-2);}.cls-4{fill:url(#linear-gradient-3);}.cls-5{fill:#b5986b;}.cls-6{fill:#558460;}.cls-7{fill:#d3d3d3;}.cls-8{fill:#8c8b8b;}.cls-9{fill:#c1c0bf;}.cls-10{fill:none;stroke:#000;stroke-linecap:round;stroke-miterlimit:10;stroke-width:4px;}.cls-11{fill:#7eb189;}.cls-12{fill:#373737;}.cls-13{fill:#262626;}.cls-14{fill:url(#linear-gradient-4);}.cls-15{fill:url(#linear-gradient-5);}</style><linearGradient id="linear-gradient" x1="1109.95" y1="1972.83" x2="1109.95" y2="1561.11" gradientTransform="matrix(0, 1, 1, 0, -161.19, 161.19)" gradientUnits="userSpaceOnUse"><stop offset="0" stop-color="#fff"/><stop offset="0.17" stop-color="#fdfdfd" stop-opacity="0.99"/><stop offset="0.31" stop-color="#f6f6f6" stop-opacity="0.96"/><stop offset="0.45" stop-color="#eaeaea" stop-opacity="0.92"/><stop offset="0.58" stop-color="#d9d9d9" stop-opacity="0.85"/><stop offset="0.71" stop-color="#c3c3c3" stop-opacity="0.76"/><stop offset="0.84" stop-color="#a9a9a9" stop-opacity="0.66"/><stop offset="0.96" stop-color="#8a8a8a" stop-opacity="0.54"/><stop offset="0.99" stop-color="gray" stop-opacity="0.5"/></linearGradient><linearGradient id="linear-gradient-2" x1="1869.08" y1="1092.54" x2="1806.63" y2="1074.09" gradientUnits="userSpaceOnUse"><stop offset="0" stop-color="#fff"/><stop offset="0.3" stop-color="#fefefe" stop-opacity="0.99"/><stop offset="0.43" stop-color="#fcfcfc" stop-opacity="0.98"/><stop offset="0.46" stop-color="#fbfbfb" stop-opacity="0.97"/><stop offset="0.54" stop-color="#f9f9f9" stop-opacity="0.96"/><stop offset="0.62" stop-color="#f4f4f4" stop-opacity="0.92"/><stop offset="0.69" stop-color="#eaeaea" stop-opacity="0.86"/><stop offset="0.76" stop-color="#ddd" stop-opacity="0.77"/><stop offset="0.84" stop-color="#cdcdcd" stop-opacity="0.65"/><stop offset="0.91" stop-color="#b8b8b8" stop-opacity="0.51"/><stop offset="0.98" stop-color="#a0a0a0" stop-opacity="0.35"/><stop offset="0.99" stop-color="#999" stop-opacity="0.3"/></linearGradient><linearGradient id="linear-gradient-3" x1="1212.74" y1="1992.57" x2="1212.74" y2="1583.17" gradientTransform="matrix(1, 0, 0, 1, 0, 0)" xlink:href="#linear-gradient"/><linearGradient id="linear-gradient-4" x1="1802.89" y1="1226.01" x2="1807.92" y2="1226.01" gradientTransform="translate(2964.09 -559.04) rotate(90)" gradientUnits="userSpaceOnUse"><stop offset="0" stop-color="#ccc"/><stop offset="0.25" stop-color="#c9c9c9"/><stop offset="0.47" stop-color="#bebebe"/><stop offset="0.68" stop-color="#acacac"/><stop offset="0.88" stop-color="#939393"/><stop offset="0.99" stop-color="gray"/></linearGradient><linearGradient id="linear-gradient-5" x1="1802.89" y1="1229.11" x2="1807.92" y2="1229.11" gradientTransform="translate(243.7 -344.08) rotate(12.61)" xlink:href="#linear-gradient-4"/></defs><title>Accenture icon</title><rect class="cls-1" y="0.19" width="1999.56" height="1999.56"/><polygon class="cls-2" points="1819.17 2000 1815.79 974.9 1390.92 542.29 1394.29 1574.22 1819.17 2000"/><path class="cls-3" d="M1853.73,772.59l-103.26,433,10,8.16-.43,1.7v51.45a7.74,7.74,0,0,0,3.17,6.24h0a4.45,4.45,0,0,0,6.37-1.17l31.06-48,140.73,73.84-31.8,82.51,90.49,66.28v-554Z"/><polygon class="cls-4" points="1819.17 2000 1038.92 2000.06 606.31 1575.18 1394.29 1574.22 1819.17 2000"/><path class="cls-5" d="M1366.14,1587.33H633.86A37.31,37.31,0,0,1,596.55,1550V569.47a37.31,37.31,0,0,1,37.31-37.31h732.29a37.31,37.31,0,0,1,37.31,37.31V1550A37.45,37.45,0,0,1,1366.14,1587.33Z"/><rect class="cls-6" x="667.8" y="569.11" width="664.39" height="940.02" transform="translate(37.16 -34.52) rotate(2.02)"/><rect class="cls-1" x="653.82" y="589.74" width="664.39" height="940.02"/><rect class="cls-7" x="774.36" y="664.95" width="423.32" height="34.93"/><rect class="cls-7" x="727" y="769.2" width="423.32" height="8.15"/><rect class="cls-7" x="727" y="905.77" width="423.32" height="8.15"/><rect class="cls-7" x="727" y="930.65" width="443.31" height="8.15"/><rect class="cls-7" x="727" y="794.08" width="402.04" height="8.15"/><rect class="cls-7" x="727" y="1005.29" width="339.4" height="8.15"/><rect class="cls-7" x="727" y="1116.97" width="339.4" height="8.15"/><rect class="cls-7" x="727" y="1092.09" width="444.8" height="8.15"/><rect class="cls-7" x="727" y="980.41" width="402.04" height="8.15"/><rect class="cls-7" x="727" y="818.96" width="414.74" height="8.15"/><rect class="cls-7" x="727" y="1067.21" width="414.74" height="8.15"/><rect class="cls-7" x="727" y="955.53" width="414.74" height="8.15"/><rect class="cls-7" x="727" y="843.84" width="73.39" height="8.15"/><path class="cls-7" d="M1228.78,808.75V852H1272V808.75ZM1268.05,848h-35.31V812.71h35.31Z"/><rect class="cls-7" x="727.49" y="1340.35" width="444.98" height="8.15"/><rect class="cls-7" x="727.49" y="1365.23" width="402.04" height="8.15"/><rect class="cls-7" x="727.49" y="1390.11" width="396.92" height="8.15"/><rect class="cls-7" x="727.49" y="1414.99" width="162.17" height="8.15"/><path class="cls-7" d="M1229.27,1379.9v43.23h43.23V1379.9Zm39.27,39.27h-35.31v-35.31h35.31Z"/><path class="cls-7" d="M1228.78,970.2v43.23H1272V970.2Zm39.27,39.27h-35.31V974.16h35.31Z"/><rect class="cls-7" x="727.49" y="1178.9" width="423.32" height="8.15"/><rect class="cls-7" x="727.49" y="1203.78" width="465.31" height="8.15"/><rect class="cls-7" x="727.49" y="1278.42" width="248.27" height="8.15"/><rect class="cls-7" x="727.49" y="1253.54" width="462.71" height="8.15"/><rect class="cls-7" x="727.49" y="1228.66" width="414.74" height="8.15"/><path class="cls-7" d="M1229.27,1243.34v43.23h43.23v-43.23Zm39.27,39.27h-35.31V1247.3h35.31Z"/><path class="cls-7" d="M1228.78,1078.62v43.23H1272v-43.23Zm39.27,39.27h-35.31v-35.31h35.31Z"/><rect class="cls-8" x="845.32" y="538.42" width="314.47" height="74.57" rx="18.82" ry="18.82"/><path class="cls-9" d="M1002.55,412.67a53.88,53.88,0,1,0,53.88,53.88A53.88,53.88,0,0,0,1002.55,412.67Zm0,70.42a16.54,16.54,0,1,1,16.54-16.54A16.54,16.54,0,0,1,1002.55,483.09Z"/><path class="cls-9" d="M864.14,520.44H1141a18.82,18.82,0,0,1,18.82,18.82V595a0,0,0,0,1,0,0H845.32a0,0,0,0,1,0,0V539.26A18.82,18.82,0,0,1,864.14,520.44Z"/><path class="cls-9" d="M948.67,466.55A55.14,55.14,0,0,1,935,502.46c-15.57,17.4-36.7,17.94-40.17,18h107.77Z"/><path class="cls-9" d="M1056.44,466.55a55.14,55.14,0,0,0,13.71,35.91c15.57,17.4,36.7,17.94,40.17,18H1002.55Z"/><path class="cls-10" d="M1240.37,838a67,67,0,0,1,11.11-15.38A59.59,59.59,0,0,1,1272,808.75"/><path class="cls-10" d="M1240.37,999.11a67,67,0,0,1,11.11-15.38A59.59,59.59,0,0,1,1272,969.85"/><path class="cls-10" d="M1238.28,1106.63a67,67,0,0,1,11.11-15.38,59.59,59.59,0,0,1,20.53-13.89"/><path class="cls-11" d="M-.22.19v2000h2000V.19Zm1000,1924.07c-510.35,0-924.07-413.72-924.07-924.07S489.43,76.12,999.78,76.12s924.07,413.72,924.07,924.07S1510.13,1924.26,999.78,1924.26Z"/><rect class="cls-12" x="1769.63" y="882.03" width="30.4" height="311.13" transform="translate(269.61 -364.66) rotate(12.61)"/><path class="cls-13" d="M1736,1186.09l29.67,6.64-4.15,18.53a15.61,15.61,0,0,1-1.58,4.18L1742.35,1247l-8.5-1.9-2.52-35.55a13,13,0,0,1,.3-3.71Z"/><path class="cls-13" d="M1857,782.44l-28.62-6.4a2.41,2.41,0,0,0-2.87,1.82,303.81,303.81,0,0,0-22.79,101.85,2.46,2.46,0,0,0,.32,1.81,2.4,2.4,0,0,0,1.51,1.06l28.62,6.4a2.41,2.41,0,0,0,2.87-1.82,310.26,310.26,0,0,0,22.79-101.85,2.46,2.46,0,0,0-.32-1.81A2.4,2.4,0,0,0,1857,782.44Z"/><path class="cls-13" d="M1835.08,769.35h17.21a2.79,2.79,0,0,1,2.79,2.79v7.2a0,0,0,0,1,0,0h-22.8a0,0,0,0,1,0,0v-7.2A2.79,2.79,0,0,1,1835.08,769.35Z" transform="translate(213.55 -383.86) rotate(12.61)"/><path class="cls-13" d="M1858.62,788.1a16.65,16.65,0,0,1,4.07,3.51c5.42,6.53,4.22,15.78,3.15,22.13-3.35,19.94-8.27,28.7-11.67,44a130.39,130.39,0,0,0-3.06,27,20.44,20.44,0,0,1-2-2.84c-3-5-4.76-12.93,4.34-42.15,2.55-8.2,4-16.71,6-25a20.4,20.4,0,0,0,.11-10.5,18.52,18.52,0,0,0-2.17-4.92Z"/><rect class="cls-14" x="1737.51" y="1244.01" width="1.14" height="5.17" transform="translate(142.07 2670.55) rotate(-77.39)"/><path class="cls-15" d="M1736.85,1252.08c1,.23,2.93-1.42,3.63-4.37l-5-1.13C1734.81,1249.54,1735.8,1251.85,1736.85,1252.08Z"/></svg>