<svg id="Layer_1" data-name="Layer 1" xmlns="http://www.w3.org/2000/svg" xmlns:xlink="http://www.w3.org/1999/xlink" viewBox="0 0 2000 2000"><defs><style>.cls-1{fill:#fff;}.cls-2{fill:url(#linear-gradient);}.cls-3{fill:#eaeaea;}.cls-4{fill:#444240;}.cls-5{fill:#d6d6d6;}.cls-6{fill:#abb5a5;}.cls-7{fill:#9ca797;}.cls-8{fill:#b5986b;}.cls-9{fill:none;stroke:#7f7f7f;stroke-linecap:round;stroke-miterlimit:10;stroke-width:3px;}.cls-10{fill:#7eb189;}.cls-11{fill:#75ba83;}</style><linearGradient id="linear-gradient" x1="1175.53" y1="1493.1" x2="1185.47" y2="2293.02" gradientUnits="userSpaceOnUse"><stop offset="0" stop-color="#666" stop-opacity="0.5"/><stop offset="0" stop-color="#6b6b6b" stop-opacity="0.52"/><stop offset="0.02" stop-color="#797979" stop-opacity="0.51"/><stop offset="0.11" stop-color="#a5a5a5" stop-opacity="0.51"/><stop offset="0.21" stop-color="#c8c8c8" stop-opacity="0.5"/><stop offset="0.33" stop-color="#e0e0e0" stop-opacity="0.5"/><stop offset="0.51" stop-color="#eee" stop-opacity="0.5"/><stop offset="1" stop-color="#f2f2f2" stop-opacity="0.5"/></linearGradient></defs><title>decorating flat</title><rect class="cls-1" x="0.5" y="0.5" width="1999" height="1999"/><path d="M1999,1V1999H1V1H1999m1-1H0V2000H2000V0Z"/><path class="cls-2" d="M1724.9,1708.19H1597a115.33,115.33,0,0,1-36.76-6l-12.91-13.95a48.21,48.21,0,0,0-33.47-15.41,115.45,115.45,0,0,1-8.58-10l-166.46-218H628.23l174.56,228.63a10.1,10.1,0,0,0-4.37,15.5l71.37,94v34.49a42.65,42.65,0,0,0,42.65,42.65h32.88l69,90.39H1724.9l-107.22-140.43H1724.9Z"/><path class="cls-3" d="M1322,1398.38H646.14V628.72a16.55,16.55,0,0,1,16.55-16.55h642.77A16.55,16.55,0,0,1,1322,628.72Z"/><path class="cls-4" d="M1339.91,1444.8H628.23v-36.95a10.5,10.5,0,0,1,10.5-10.5h689.15a12,12,0,0,1,12,12Z"/><path class="cls-4" d="M633.23,739.26h12.9V684.42h-12.9a3.89,3.89,0,0,0-3.89,3.89v47.06A3.89,3.89,0,0,0,633.23,739.26Z"/><path class="cls-4" d="M1334.9,684.42H1322v54.83h12.9a3.89,3.89,0,0,0,3.89-3.89V688.31A3.89,3.89,0,0,0,1334.9,684.42Z"/><path class="cls-5" d="M1322,1397.36H984.07V612.17h320A17.93,17.93,0,0,1,1322,630.1Z"/><path class="cls-6" d="M918.2,785.87H1322a0,0,0,0,1,0,0V964.8a0,0,0,0,1,0,0H918.2a2.27,2.27,0,0,1-2.27-2.27V788.14A2.27,2.27,0,0,1,918.2,785.87Z"/><rect class="cls-7" x="984.07" y="785.87" width="337.93" height="178.94"/><path class="cls-4" d="M1338.79,711.84h0c0,195.91-158.81,354.72-354.72,354.72S629.35,907.75,629.35,711.84H606.21c0,208.68,169.17,377.86,377.86,377.86s377.86-169.17,377.86-377.86Z"/><rect class="cls-4" x="536.79" y="556.99" width="306.93" height="54.18"/><rect class="cls-5" x="843.73" y="555.37" width="135.09" height="56.8"/><path class="cls-8" d="M978.82,560.81c29.44,2,53.41,1.81,69.69,1.31,32.38-1,45.51-3.49,67.7-4.69,7.87-.43,10.46-.15,25.59-.67,9.67-.34,16.77-.68,17.77-.72,78.28-3.64,186.92,5.82,186.92,5.82,75.89,6.6,126.3,11,126.46,18.49.21,9.85-86.55,19.5-129.65,24.3-17.62,2-58.3,6.41-105.38,7.66,0,0-36.18,1-88.23,0-4.1-.07-8.06-.17-8.06-.17-46-1.07-53.75-3.68-93.93-4.56-15.84-.35-39.58-.44-68.87,1.12Z"/><line class="cls-9" x1="678.16" y1="565.4" x2="841.73" y2="565.4"/><path class="cls-10" d="M647.83,611.74H1320.1a1.9,1.9,0,0,1,1.9,1.9v14.07a0,0,0,0,1,0,0H646.14a0,0,0,0,1,0,0V613.44A1.69,1.69,0,0,1,647.83,611.74Z"/><circle class="cls-10" cx="1159.98" cy="644.99" r="6.94"/><rect class="cls-10" x="1153.03" y="620.96" width="13.89" height="24.03"/><circle class="cls-10" cx="1194.25" cy="640.5" r="4.49"/><rect class="cls-10" x="1189.76" y="620.96" width="8.99" height="19.54"/><circle class="cls-10" cx="1215.74" cy="687.56" r="12.26"/><rect class="cls-10" x="1203.48" y="622.24" width="24.52" height="65.32"/><circle class="cls-11" cx="819.5" cy="815.23" r="6.81"/><rect class="cls-11" x="812.69" y="622.24" width="13.62" height="192.99"/><circle class="cls-11" cx="843.73" cy="678.95" r="9.77"/><rect class="cls-11" x="833.95" y="622.24" width="19.55" height="56.7"/><rect class="cls-11" x="646.14" y="611.74" width="337.93" height="15.97"/><path class="cls-11" d="M534.15,557H613.3a0,0,0,0,1,0,0v53.55a4.57,4.57,0,0,1-4.57,4.57H534.47a7.35,7.35,0,0,1-7.35-7.35V564A7,7,0,0,1,534.15,557Z"/><circle class="cls-11" cx="535.71" cy="615.32" r="8.65"/><rect class="cls-11" x="527.11" y="596.17" width="4.49" height="17.07"/><path class="cls-10" d="M0,0V2000H2000V0ZM1000,1924.07c-510.35,0-924.07-413.72-924.07-924.07S489.65,75.93,1000,75.93,1924.07,489.65,1924.07,1000,1510.35,1924.07,1000,1924.07Z"/></svg>