<svg id="Layer_1" data-name="Layer 1" xmlns="http://www.w3.org/2000/svg" xmlns:xlink="http://www.w3.org/1999/xlink" viewBox="0 0 2000 2000"><defs><style>.cls-1{fill:#fff;}.cls-2{fill:url(#linear-gradient);}.cls-3{fill:url(#linear-gradient-2);}.cls-4{fill:#7eb189;}.cls-5{fill:#a09f9f;}.cls-6{fill:#eaeaea;}.cls-7{fill:#e0d1b8;}.cls-8{fill:#c1a074;}.cls-9{fill:#a07f57;}.cls-10{fill:#70a079;}.cls-11{fill:#cce5d0;}.cls-12{fill:#5f8765;}.cls-13{fill:#ddd;}.cls-14{fill:#b6ccb8;}.cls-15{fill:#64916d;}.cls-16{fill:#4c4c4c;}.cls-17{fill:#373737;}.cls-18{fill:#d6d6d6;}.cls-19{fill:#bcbcbc;}</style><linearGradient id="linear-gradient" x1="1205.88" y1="1788.62" x2="1205.88" y2="1240.55" gradientUnits="userSpaceOnUse"><stop offset="0" stop-color="#fff" stop-opacity="0.5"/><stop offset="1" stop-color="#666" stop-opacity="0.5"/></linearGradient><linearGradient id="linear-gradient-2" x1="1467.52" y1="1163.41" x2="1467.52" y2="820.23" xlink:href="#linear-gradient"/></defs><title>sixth form icon</title><rect class="cls-1" y="0.19" width="1999.81" height="1999.81"/><polygon class="cls-2" points="1987.44 2000.19 2000 2000.19 2000 1725.06 1611.13 1049.18 1611.13 1063.55 1600.24 1044.68 1600.24 1328.98 411.76 1328.98 789.91 1998.52 1986.48 1998.52 1987.44 2000.19"/><polygon class="cls-3" points="1430.77 795.45 1415.41 795.45 1404.89 795.45 1352.06 795.45 1352.06 937.36 1392.46 937.36 1392.46 1044.68 1404.89 1044.68 1457.72 1044.68 1582.99 1044.68 1430.77 795.45"/><path class="cls-4" d="M-.09,0V2000h2000V0Zm1000,1924.07c-510.35,0-924.07-413.72-924.07-924.07S489.56,75.93,999.91,75.93,1924,489.65,1924,1000,1510.26,1924.07,999.91,1924.07Z"/><path class="cls-5" d="M526.74,861.56a68.53,68.53,0,0,0,0-137.06c-1.81,0-3.59.09-5.36.23h-7.24V713.46h834.65a82,82,0,0,1,82,82h0a82,82,0,0,1-82,82H514.13V861.33h7.24C523.14,861.47,524.93,861.56,526.74,861.56Z"/><path class="cls-6" d="M594.46,793a68.52,68.52,0,0,0-63.17-68.3h815.81a68.3,68.3,0,0,1,0,136.61H531.3A68.52,68.52,0,0,0,594.46,793Z"/><path class="cls-7" d="M1383.44,735.15H562.66a68.14,68.14,0,0,0-31.36-10.47h815.81A68,68,0,0,1,1383.44,735.15Z"/><path class="cls-7" d="M1395.4,744.68a68.63,68.63,0,0,1,8.74,10.73H583.23a68.81,68.81,0,0,0-8.72-10.73Z"/><path class="cls-7" d="M1409.93,766.15a67.78,67.78,0,0,1,3.55,10.73H592.56A67.91,67.91,0,0,0,589,766.15Z"/><path class="cls-7" d="M594.46,793c0-1.81-.09-3.59-.23-5.37h820.94c.14,1.77.23,3.56.23,5.37s-.09,3.59-.23,5.37H594.24C594.38,796.57,594.46,794.79,594.46,793Z"/><path class="cls-7" d="M1409.93,819.81H589a67.91,67.91,0,0,0,3.57-10.73h820.93A67.78,67.78,0,0,1,1409.93,819.81Z"/><path class="cls-7" d="M583.23,830.55h820.91a68.62,68.62,0,0,1-8.74,10.73H574.52A68.81,68.81,0,0,0,583.23,830.55Z"/><path class="cls-7" d="M1347.11,861.28H531.3A68.13,68.13,0,0,0,560.7,852h820.75A68,68,0,0,1,1347.11,861.28Z"/><rect class="cls-8" x="457.29" y="1044.68" width="1155.35" height="144.13" rx="9.68" ry="9.68"/><path class="cls-9" d="M457.29,1116.74v58.69a13.37,13.37,0,0,0,13.37,13.37h1128.6a13.37,13.37,0,0,0,13.37-13.37v-58.69Z"/><rect class="cls-10" x="561.26" y="877.44" width="141.37" height="167.23"/><ellipse class="cls-10" cx="561.26" cy="961.06" rx="47.14" ry="83.62"/><path class="cls-11" d="M558.35,961.06c0-46.18,21.1-83.62,47.14-83.62h-23c-26,0-47.14,37.44-47.14,83.62s21.1,83.62,47.14,83.62h23C579.45,1044.68,558.35,1007.24,558.35,961.06Z"/><path class="cls-12" d="M561.3,1044.68c26,0,47.14-37.44,47.14-83.62H514.17C514.17,1007.24,535.27,1044.68,561.3,1044.68Z"/><rect class="cls-12" x="561.3" y="961.06" width="141.37" height="83.62"/><path class="cls-4" d="M1456.21,1033.19c-22.46,0-40.66-32.29-40.66-72.13s18.2-72.13,40.66-72.13c.5,0,1,0,1.5.07V877.44H702.63c-27.11,0-49.09,37.44-49.09,83.62s22,83.62,49.09,83.62h755.09v-11.55C1457.22,1033.16,1456.72,1033.19,1456.21,1033.19Z"/><path class="cls-13" d="M1416.28,961.06c0-39.84,18.2-72.13,40.66-72.13H706.42c-22.46,0-40.66,32.29-40.66,72.13s18.2,72.13,40.66,72.13h750.51C1434.48,1033.19,1416.28,1000.9,1416.28,961.06Z"/><path class="cls-7" d="M682.79,901.57a63.44,63.44,0,0,0-6.69,10.73h750.51a63.44,63.44,0,0,1,6.69-10.73Z"/><path class="cls-7" d="M671.63,923a102.2,102.2,0,0,0-3,10.73h750.51a102.2,102.2,0,0,1,3-10.73Z"/><path class="cls-7" d="M666.79,944.5q-.67,5.23-.9,10.73H1416.4q.23-5.49.9-10.73Z"/><path class="cls-7" d="M666.85,976.7h750.51q-.69-5.23-.94-10.73H665.91Q666.15,971.46,666.85,976.7Z"/><path class="cls-7" d="M671.58,998.17H1422.1a102.64,102.64,0,0,1-3-10.73H668.6A102.7,102.7,0,0,0,671.58,998.17Z"/><path class="cls-7" d="M682.63,1019.64h750.51a63.54,63.54,0,0,1-6.67-10.73H676A63.55,63.55,0,0,0,682.63,1019.64Z"/><path class="cls-14" d="M558.35,961.06h-23c0,46.18,21.1,83.62,47.14,83.62h23C579.45,1044.68,558.35,1007.24,558.35,961.06Z"/><rect class="cls-4" x="409.75" y="1188.81" width="1215.47" height="144.13" rx="9.68" ry="9.68"/><path class="cls-15" d="M409.75,1260.87V1323a9.93,9.93,0,0,0,9.93,9.93H1615.29a9.93,9.93,0,0,0,9.93-9.93v-62.14Z"/><rect class="cls-16" x="1401.63" y="1188.81" width="80.66" height="144.13"/><rect class="cls-16" x="514.13" y="1188.81" width="38.11" height="144.13"/><rect class="cls-16" x="575.18" y="1188.81" width="38.11" height="144.13"/><rect class="cls-17" x="514.13" y="1260.87" width="38.11" height="72.06"/><rect class="cls-17" x="575.18" y="1260.87" width="38.11" height="72.06"/><rect class="cls-17" x="1401.63" y="1260.87" width="80.66" height="72.06"/><rect class="cls-16" x="808.8" y="1237.66" width="417.37" height="46.41"/><rect class="cls-17" x="808.8" y="1260.87" width="417.37" height="23.21"/><ellipse class="cls-18" cx="1422.14" cy="1116.74" rx="91.03" ry="43.2"/><rect class="cls-18" x="761.2" y="1073.29" width="392.33" height="29.27"/><rect class="cls-19" x="761.2" y="1130.92" width="349.43" height="29.27"/><rect class="cls-18" x="533.18" y="1044.68" width="38.11" height="144.13"/><rect class="cls-19" x="533.18" y="1116.74" width="38.11" height="72.06"/><path class="cls-19" d="M1422.14,1159.95c50.28,0,91-19.34,91-43.2H1331.11C1331.11,1140.6,1371.87,1159.95,1422.14,1159.95Z"/></svg>