<svg id="Layer_1" data-name="Layer 1" xmlns="http://www.w3.org/2000/svg" xmlns:xlink="http://www.w3.org/1999/xlink" viewBox="0 0 2000 2000"><defs><style>.cls-1{fill:#fff;}.cls-2{fill:url(#linear-gradient);}.cls-3{fill:#7eb189;}.cls-4{fill:#373737;}.cls-5{fill:#eaeaea;}.cls-6{fill:#a7c6ab;}.cls-7{fill:url(#linear-gradient-2);}.cls-8{fill:#8c998c;}.cls-9{fill:#d0bd99;}.cls-10{fill:#6b6b6b;}</style><linearGradient id="linear-gradient" x1="1175.23" y1="1874.71" x2="1175.23" y2="1306.8" gradientUnits="userSpaceOnUse"><stop offset="0" stop-color="#fff" stop-opacity="0.5"/><stop offset="1" stop-color="#666" stop-opacity="0.5"/></linearGradient><linearGradient id="linear-gradient-2" x1="1012.58" y1="1631.36" x2="1012.58" y2="1357" xlink:href="#linear-gradient"/></defs><title>Tech for good icon</title><rect class="cls-1" width="2000" height="2000"/><polygon class="cls-2" points="2000 1299.1 1633.65 465.16 350.45 1341.78 732.7 2000 2000 2000 2000 1299.1"/><path class="cls-3" d="M0,0V2000H2000V0ZM1000,1924.07c-510.35,0-924.07-413.72-924.07-924.07S489.65,75.93,1000,75.93,1924.07,489.65,1924.07,1000,1510.35,1924.07,1000,1924.07Z"/><rect class="cls-4" x="334.22" y="454.07" width="1323.08" height="905.26" rx="57.65" ry="57.65"/><path class="cls-5" d="M334.22,1221.94v79.74a57.65,57.65,0,0,0,57.65,57.65H1599.66a57.65,57.65,0,0,0,57.65-57.65v-79.74Z"/><rect class="cls-6" x="371.2" y="491.51" width="1249.13" height="689.49"/><circle class="cls-4" cx="995.76" cy="1290.64" r="30.51"/><polygon class="cls-5" points="1151.77 1359.77 1000 1359.77 848.23 1359.77 823.37 1536.83 1000 1536.83 1176.63 1536.83 1151.77 1359.77"/><rect class="cls-5" x="777.01" y="1536.83" width="445.99" height="9.54"/><polygon class="cls-7" points="1000.15 1359.33 848.39 1359.33 848.38 1359.35 916.8 1536.39 1000.15 1536.39 1176.78 1536.39 1151.92 1359.33 1000.15 1359.33"/><rect class="cls-8" x="772.88" y="491.51" width="847.45" height="689.49"/><circle class="cls-6" cx="813.81" cy="534.15" r="10.52"/><circle class="cls-6" cx="813.81" cy="609.28" r="10.52"/><circle class="cls-6" cx="813.81" cy="646.85" r="10.52"/><circle class="cls-6" cx="813.81" cy="684.42" r="10.52"/><circle class="cls-6" cx="813.81" cy="721.98" r="10.52"/><circle class="cls-6" cx="813.81" cy="759.55" r="10.52"/><circle class="cls-6" cx="813.81" cy="834.69" r="10.52"/><circle class="cls-6" cx="813.81" cy="872.25" r="10.52"/><circle class="cls-6" cx="813.81" cy="909.82" r="10.52"/><circle class="cls-6" cx="813.81" cy="947.39" r="10.52"/><circle class="cls-6" cx="813.81" cy="984.96" r="10.52"/><circle class="cls-6" cx="813.81" cy="1022.52" r="10.52"/><circle class="cls-6" cx="813.81" cy="1060.09" r="10.52"/><circle class="cls-6" cx="813.81" cy="1097.66" r="10.52"/><circle class="cls-6" cx="813.81" cy="1135.23" r="10.52"/><circle class="cls-6" cx="813.81" cy="571.71" r="10.52"/><circle class="cls-6" cx="931.52" cy="571.71" r="10.52"/><circle class="cls-6" cx="1061.73" cy="571.71" r="10.52"/><rect class="cls-6" x="931.52" y="561.19" width="130.21" height="21.05"/><circle class="cls-6" cx="1215.26" cy="684.42" r="10.52"/><circle class="cls-6" cx="1345.48" cy="684.42" r="10.52"/><rect class="cls-6" x="1215.26" y="673.89" width="130.21" height="21.05"/><circle class="cls-6" cx="1238.33" cy="797.98" r="10.52"/><circle class="cls-6" cx="1368.55" cy="797.98" r="10.52"/><rect class="cls-6" x="1238.33" y="787.45" width="130.21" height="21.05"/><circle class="cls-6" cx="1346.39" cy="909.82" r="10.52"/><circle class="cls-6" cx="1476.61" cy="909.82" r="10.52"/><rect class="cls-6" x="1346.39" y="899.3" width="130.21" height="21.05"/><circle class="cls-6" cx="1037.95" cy="646.85" r="10.52"/><circle class="cls-6" cx="1168.16" cy="646.85" r="10.52"/><rect class="cls-6" x="1037.95" y="636.33" width="130.21" height="21.05"/><circle class="cls-6" cx="1278.36" cy="721.98" r="10.52"/><circle class="cls-6" cx="1408.57" cy="721.98" r="10.52"/><rect class="cls-6" x="1278.36" y="711.46" width="130.21" height="21.05"/><circle class="cls-6" cx="931.52" cy="684.42" r="10.52"/><circle class="cls-6" cx="1173.17" cy="684.42" r="10.52"/><rect class="cls-6" x="931.52" y="673.89" width="241.65" height="21.05"/><circle class="cls-6" cx="1103.83" cy="571.71" r="10.52"/><circle class="cls-6" cx="1345.48" cy="571.71" r="10.52"/><rect class="cls-6" x="1103.83" y="561.19" width="241.65" height="21.05"/><circle class="cls-9" cx="884.08" cy="872.25" r="10.52"/><circle class="cls-9" cx="1125.73" cy="872.25" r="10.52"/><rect class="cls-9" x="884.08" y="861.73" width="241.65" height="21.05"/><circle class="cls-6" cx="931.52" cy="646.85" r="10.52"/><circle class="cls-6" cx="995.85" cy="646.85" r="10.52"/><rect class="cls-6" x="931.52" y="636.33" width="64.33" height="21.05"/><circle class="cls-6" cx="931.52" cy="909.82" r="10.52"/><circle class="cls-6" cx="995.85" cy="909.82" r="10.52"/><rect class="cls-6" x="931.52" y="899.3" width="64.33" height="21.05"/><circle class="cls-6" cx="1158.01" cy="609.28" r="10.52"/><circle class="cls-6" cx="1222.34" cy="609.28" r="10.52"/><rect class="cls-6" x="1158.01" y="598.76" width="64.33" height="21.05"/><circle class="cls-6" cx="1412.68" cy="834.69" r="10.52"/><circle class="cls-6" cx="1477.02" cy="834.69" r="10.52"/><rect class="cls-6" x="1412.68" y="824.16" width="64.33" height="21.05"/><circle class="cls-6" cx="1306.26" cy="834.69" r="10.52"/><circle class="cls-6" cx="1370.59" cy="834.69" r="10.52"/><rect class="cls-6" x="1306.26" y="824.16" width="64.33" height="21.05"/><circle class="cls-6" cx="1410.64" cy="797.98" r="10.52"/><circle class="cls-6" cx="1488.79" cy="797.98" r="10.52"/><rect class="cls-6" x="1410.64" y="787.45" width="78.15" height="21.05"/><circle class="cls-9" cx="1031.31" cy="759.55" r="10.52"/><circle class="cls-9" cx="1095.65" cy="759.55" r="10.52"/><rect class="cls-9" x="1031.31" y="749.03" width="64.33" height="21.05"/><circle class="cls-9" cx="894.61" cy="1097.66" r="10.52"/><circle class="cls-9" cx="958.94" cy="1097.66" r="10.52"/><rect class="cls-9" x="894.61" y="1087.14" width="64.33" height="21.05"/><circle class="cls-6" cx="1212.13" cy="646.85" r="10.52"/><circle class="cls-6" cx="1265.94" cy="646.85" r="10.52"/><rect class="cls-6" x="1212.13" y="636.33" width="53.81" height="21.05"/><circle class="cls-1" cx="580.82" cy="609.28" r="10.52"/><circle class="cls-1" cx="634.63" cy="609.28" r="10.52"/><rect class="cls-1" x="580.82" y="598.76" width="53.81" height="21.05"/><circle class="cls-6" cx="1078.75" cy="721.98" r="10.52"/><circle class="cls-6" cx="1116.93" cy="721.98" r="10.52"/><rect class="cls-6" x="1078.75" y="711.46" width="38.18" height="21.05"/><circle class="cls-6" cx="1037.95" cy="909.82" r="10.52"/><circle class="cls-6" cx="1076.13" cy="909.82" r="10.52"/><rect class="cls-6" x="1037.95" y="899.3" width="38.18" height="21.05"/><circle class="cls-6" cx="931.52" cy="834.69" r="10.52"/><circle class="cls-6" cx="969.7" cy="834.69" r="10.52"/><rect class="cls-6" x="931.52" y="824.16" width="38.18" height="21.05"/><circle class="cls-6" cx="1158.01" cy="797.12" r="10.52"/><circle class="cls-6" cx="1196.19" cy="797.12" r="10.52"/><rect class="cls-6" x="1158.01" y="786.6" width="38.18" height="21.05"/><circle class="cls-1" cx="676.73" cy="609.28" r="10.52"/><circle class="cls-1" cx="714.91" cy="609.28" r="10.52"/><rect class="cls-1" x="676.73" y="598.76" width="38.18" height="21.05"/><circle class="cls-1" cx="580.82" cy="797.12" r="10.52"/><circle class="cls-1" cx="634.63" cy="797.12" r="10.52"/><rect class="cls-1" x="580.82" y="786.6" width="53.81" height="21.05"/><circle class="cls-1" cx="676.73" cy="797.12" r="10.52"/><circle class="cls-1" cx="714.91" cy="797.12" r="10.52"/><rect class="cls-1" x="676.73" y="786.6" width="38.18" height="21.05"/><circle class="cls-6" cx="1450.66" cy="721.98" r="10.52"/><circle class="cls-6" cx="1488.85" cy="721.98" r="10.52"/><rect class="cls-6" x="1450.66" y="711.46" width="38.18" height="21.05"/><circle class="cls-6" cx="1411.67" cy="609.28" r="10.52"/><circle class="cls-6" cx="1486.52" cy="609.28" r="10.52"/><rect class="cls-6" x="1411.67" y="598.76" width="74.86" height="21.05"/><circle class="cls-6" cx="1159.03" cy="721.98" r="10.52"/><circle class="cls-6" cx="1233.88" cy="721.98" r="10.52"/><rect class="cls-6" x="1159.03" y="711.46" width="74.86" height="21.05"/><circle class="cls-1" cx="578.52" cy="1022.52" r="10.52"/><circle class="cls-1" cx="653.38" cy="1022.52" r="10.52"/><rect class="cls-1" x="578.52" y="1012" width="74.86" height="21.05"/><circle class="cls-1" cx="660.7" cy="834.69" r="10.52"/><circle class="cls-1" cx="735.56" cy="834.69" r="10.52"/><rect class="cls-1" x="660.7" y="824.16" width="74.86" height="21.05"/><circle class="cls-6" cx="1264.44" cy="609.28" r="10.52"/><circle class="cls-6" cx="1369.57" cy="609.28" r="10.52"/><rect class="cls-6" x="1264.44" y="598.76" width="105.14" height="21.05"/><circle class="cls-6" cx="1387.57" cy="684.42" r="10.52"/><circle class="cls-6" cx="1492.71" cy="684.42" r="10.52"/><rect class="cls-6" x="1387.57" y="673.89" width="105.14" height="21.05"/><circle class="cls-6" cx="1215.26" cy="947.39" r="10.52"/><circle class="cls-6" cx="1345.48" cy="947.39" r="10.52"/><rect class="cls-6" x="1215.26" y="936.87" width="130.21" height="21.05"/><circle class="cls-1" cx="580.82" cy="872.25" r="10.52"/><circle class="cls-1" cx="711.04" cy="872.25" r="10.52"/><rect class="cls-1" x="580.82" y="861.73" width="130.21" height="21.05"/><circle class="cls-9" cx="1001.03" cy="1097.66" r="10.52"/><circle class="cls-9" cx="1131.25" cy="1097.66" r="10.52"/><rect class="cls-9" x="1001.03" y="1087.14" width="130.21" height="21.05"/><circle class="cls-6" cx="931.52" cy="947.39" r="10.52"/><circle class="cls-6" cx="1173.17" cy="947.39" r="10.52"/><rect class="cls-6" x="931.52" y="936.87" width="241.65" height="21.05"/><circle class="cls-6" cx="1387.57" cy="947.39" r="10.52"/><circle class="cls-6" cx="1492.71" cy="947.39" r="10.52"/><rect class="cls-6" x="1387.57" y="936.87" width="105.14" height="21.05"/><circle class="cls-6" cx="1159.03" cy="834.69" r="10.52"/><circle class="cls-6" cx="1264.16" cy="834.69" r="10.52"/><rect class="cls-6" x="1159.03" y="824.16" width="105.14" height="21.05"/><circle class="cls-9" cx="884.08" cy="759.55" r="10.52"/><circle class="cls-9" cx="989.22" cy="759.55" r="10.52"/><rect class="cls-9" x="884.08" y="749.03" width="105.14" height="21.05"/><circle class="cls-6" cx="1387.57" cy="571.71" r="10.52"/><circle class="cls-6" cx="1492.71" cy="571.71" r="10.52"/><rect class="cls-6" x="1387.57" y="561.19" width="105.14" height="21.05"/><circle class="cls-6" cx="1011.8" cy="834.69" r="10.52"/><circle class="cls-6" cx="1116.93" cy="834.69" r="10.52"/><rect class="cls-6" x="1011.8" y="824.16" width="105.14" height="21.05"/><circle class="cls-6" cx="1410.38" cy="1135.23" r="10.52"/><circle class="cls-6" cx="1474.71" cy="1135.23" r="10.52"/><rect class="cls-6" x="1410.38" y="1124.7" width="64.33" height="21.05"/><circle class="cls-6" cx="1303.95" cy="1135.23" r="10.52"/><circle class="cls-6" cx="1368.29" cy="1135.23" r="10.52"/><rect class="cls-6" x="1303.95" y="1124.7" width="64.33" height="21.05"/><circle class="cls-6" cx="929.21" cy="1135.23" r="10.52"/><circle class="cls-6" cx="967.4" cy="1135.23" r="10.52"/><rect class="cls-6" x="929.21" y="1124.7" width="38.18" height="21.05"/><circle class="cls-6" cx="1156.72" cy="1135.23" r="10.52"/><circle class="cls-6" cx="1261.86" cy="1135.23" r="10.52"/><rect class="cls-6" x="1156.72" y="1124.7" width="105.14" height="21.05"/><circle class="cls-6" cx="1009.49" cy="1135.23" r="10.52"/><circle class="cls-6" cx="1114.63" cy="1135.23" r="10.52"/><rect class="cls-6" x="1009.49" y="1124.7" width="105.14" height="21.05"/><circle class="cls-6" cx="931.52" cy="721.98" r="10.52"/><circle class="cls-6" cx="1036.66" cy="721.98" r="10.52"/><rect class="cls-6" x="931.52" y="711.46" width="105.14" height="21.05"/><circle class="cls-6" cx="931.52" cy="609.28" r="10.52"/><circle class="cls-6" cx="1115.92" cy="609.28" r="10.52"/><rect class="cls-6" x="931.52" y="598.76" width="184.4" height="21.05"/><circle class="cls-6" cx="1155.7" cy="984.96" r="10.52"/><circle class="cls-6" cx="1220.04" cy="984.96" r="10.52"/><rect class="cls-6" x="1155.7" y="974.43" width="64.33" height="21.05"/><circle class="cls-6" cx="1409.36" cy="984.96" r="10.52"/><circle class="cls-6" cx="1484.22" cy="984.96" r="10.52"/><rect class="cls-6" x="1409.36" y="974.43" width="74.86" height="21.05"/><circle class="cls-6" cx="1262.13" cy="984.96" r="10.52"/><circle class="cls-6" cx="1367.27" cy="984.96" r="10.52"/><rect class="cls-6" x="1262.13" y="974.43" width="105.14" height="21.05"/><circle class="cls-6" cx="929.21" cy="984.96" r="10.52"/><circle class="cls-6" cx="1113.61" cy="984.96" r="10.52"/><rect class="cls-6" x="929.21" y="974.43" width="184.4" height="21.05"/><circle class="cls-6" cx="1119.4" cy="909.82" r="10.52"/><circle class="cls-6" cx="1303.79" cy="909.82" r="10.52"/><rect class="cls-6" x="1119.4" y="899.3" width="184.4" height="21.05"/><circle class="cls-9" cx="894.61" cy="1060.09" r="10.52"/><circle class="cls-9" cx="1079" cy="1060.09" r="10.52"/><rect class="cls-9" x="894.61" y="1049.57" width="184.4" height="21.05"/><circle class="cls-6" cx="1308.04" cy="646.85" r="10.52"/><circle class="cls-6" cx="1492.43" cy="646.85" r="10.52"/><rect class="cls-6" x="1308.04" y="636.33" width="184.4" height="21.05"/><circle class="cls-6" cx="1035.64" cy="1022.52" r="10.52"/><circle class="cls-6" cx="1165.86" cy="1022.52" r="10.52"/><rect class="cls-6" x="1035.64" y="1012" width="130.21" height="21.05"/><circle class="cls-6" cx="929.21" cy="1022.52" r="10.52"/><circle class="cls-6" cx="993.55" cy="1022.52" r="10.52"/><rect class="cls-6" x="929.21" y="1012" width="64.33" height="21.05"/><circle class="cls-6" cx="1209.83" cy="1022.52" r="10.52"/><circle class="cls-6" cx="1263.64" cy="1022.52" r="10.52"/><rect class="cls-6" x="1209.83" y="1012" width="53.81" height="21.05"/><circle class="cls-6" cx="1305.73" cy="1022.52" r="10.52"/><circle class="cls-6" cx="1490.13" cy="1022.52" r="10.52"/><rect class="cls-6" x="1305.73" y="1012" width="184.4" height="21.05"/><circle class="cls-6" cx="931.52" cy="797.12" r="10.52"/><circle class="cls-6" cx="1115.92" cy="797.12" r="10.52"/><rect class="cls-6" x="931.52" y="786.6" width="184.4" height="21.05"/><circle class="cls-9" cx="884.08" cy="534.15" r="10.52"/><circle class="cls-9" cx="1068.48" cy="534.15" r="10.52"/><rect class="cls-9" x="884.08" y="523.62" width="184.4" height="21.05"/><circle class="cls-1" cx="463.11" cy="534.15" r="10.52"/><circle class="cls-1" cx="463.11" cy="609.28" r="10.52"/><circle class="cls-1" cx="463.11" cy="646.85" r="10.52"/><circle class="cls-1" cx="463.11" cy="684.42" r="10.52"/><circle class="cls-1" cx="463.11" cy="721.98" r="10.52"/><circle class="cls-1" cx="463.11" cy="759.55" r="10.52"/><circle class="cls-1" cx="463.11" cy="797.12" r="10.52"/><circle class="cls-1" cx="463.11" cy="834.69" r="10.52"/><circle class="cls-1" cx="463.11" cy="872.25" r="10.52"/><circle class="cls-1" cx="463.11" cy="909.82" r="10.52"/><circle class="cls-1" cx="463.11" cy="947.39" r="10.52"/><circle class="cls-1" cx="463.11" cy="984.96" r="10.52"/><circle class="cls-1" cx="463.11" cy="1022.52" r="10.52"/><circle class="cls-1" cx="463.11" cy="1060.09" r="10.52"/><circle class="cls-1" cx="463.11" cy="1097.66" r="10.52"/><circle class="cls-1" cx="463.11" cy="1135.23" r="10.52"/><circle class="cls-1" cx="463.11" cy="571.71" r="10.52"/><circle class="cls-1" cx="580.82" cy="571.71" r="10.52"/><circle class="cls-1" cx="711.04" cy="571.71" r="10.52"/><rect class="cls-1" x="580.82" y="561.19" width="130.21" height="21.05"/><circle class="cls-10" cx="533.39" cy="684.42" r="10.52"/><circle class="cls-10" cx="663.6" cy="684.42" r="10.52"/><rect class="cls-10" x="533.39" y="673.89" width="130.21" height="21.05"/><circle class="cls-1" cx="580.82" cy="646.85" r="10.52"/><circle class="cls-1" cx="645.16" cy="646.85" r="10.52"/><rect class="cls-1" x="580.82" y="636.33" width="64.33" height="21.05"/><circle class="cls-10" cx="543.91" cy="1097.66" r="10.52"/><circle class="cls-10" cx="608.24" cy="1097.66" r="10.52"/><rect class="cls-10" x="543.91" y="1087.14" width="64.33" height="21.05"/><circle class="cls-1" cx="580.82" cy="834.69" r="10.52"/><circle class="cls-1" cx="619.01" cy="834.69" r="10.52"/><rect class="cls-1" x="580.82" y="824.16" width="38.18" height="21.05"/><circle class="cls-10" cx="533.39" cy="759.55" r="10.52"/><circle class="cls-10" cx="638.52" cy="759.55" r="10.52"/><rect class="cls-10" x="533.39" y="749.03" width="105.14" height="21.05"/><circle class="cls-1" cx="578.52" cy="1135.23" r="10.52"/><circle class="cls-1" cx="616.7" cy="1135.23" r="10.52"/><rect class="cls-1" x="578.52" y="1124.7" width="38.18" height="21.05"/><circle class="cls-1" cx="658.8" cy="984.96" r="10.52"/><circle class="cls-1" cx="696.98" cy="984.96" r="10.52"/><rect class="cls-1" x="658.8" y="974.43" width="38.18" height="21.05"/><circle class="cls-1" cx="578.52" cy="984.96" r="10.52"/><circle class="cls-1" cx="616.7" cy="984.96" r="10.52"/><rect class="cls-1" x="578.52" y="974.43" width="38.18" height="21.05"/><circle class="cls-1" cx="580.82" cy="721.98" r="10.52"/><circle class="cls-1" cx="685.96" cy="721.98" r="10.52"/><rect class="cls-1" x="580.82" y="711.46" width="105.14" height="21.05"/><circle class="cls-10" cx="533.39" cy="534.15" r="10.52"/><circle class="cls-10" cx="638.52" cy="534.15" r="10.52"/><rect class="cls-10" x="533.39" y="523.62" width="105.14" height="21.05"/><circle class="cls-10" cx="543.91" cy="947.39" r="10.52"/><circle class="cls-10" cx="728.31" cy="947.39" r="10.52"/><rect class="cls-10" x="543.91" y="936.87" width="184.4" height="21.05"/><circle class="cls-1" cx="658.8" cy="1135.23" r="10.52"/><circle class="cls-1" cx="723.13" cy="1135.23" r="10.52"/><rect class="cls-1" x="658.8" y="1124.7" width="64.33" height="21.05"/><circle class="cls-1" cx="580.82" cy="909.82" r="10.52"/><circle class="cls-1" cx="645.16" cy="909.82" r="10.52"/><rect class="cls-1" x="580.82" y="899.3" width="64.33" height="21.05"/><circle class="cls-1" cx="684.95" cy="1060.09" r="10.52"/><circle class="cls-1" cx="723.13" cy="1060.09" r="10.52"/><rect class="cls-1" x="684.95" y="1049.57" width="38.18" height="21.05"/><circle class="cls-1" cx="578.52" cy="1060.09" r="10.52"/><circle class="cls-1" cx="642.85" cy="1060.09" r="10.52"/><rect class="cls-1" x="578.52" y="1049.57" width="64.33" height="21.05"/><circle class="cls-6" cx="813.81" cy="797.12" r="10.52"/></svg>