<svg id="Layer_1" data-name="Layer 1" xmlns="http://www.w3.org/2000/svg" xmlns:xlink="http://www.w3.org/1999/xlink" viewBox="0 0 2000 2000"><defs><style>.cls-1{fill:#fff;}.cls-2{fill:url(#linear-gradient);}.cls-3{fill:#545454;}.cls-4{fill:#333;}.cls-5{fill:#7eb189;}.cls-6{fill:#494949;}.cls-7{fill:#373737;}.cls-8{fill:none;stroke:#d0bd99;stroke-linecap:round;stroke-linejoin:round;stroke-width:18px;}.cls-9{fill:url(#linear-gradient-2);}.cls-10{fill:url(#linear-gradient-3);}</style><linearGradient id="linear-gradient" x1="1133.37" y1="1930.21" x2="1133.37" y2="1247.67" gradientUnits="userSpaceOnUse"><stop offset="0" stop-color="#f2f2f2" stop-opacity="0.5"/><stop offset="1" stop-color="#666" stop-opacity="0.5"/></linearGradient><linearGradient id="linear-gradient-2" x1="1326.61" y1="1149.93" x2="1384.99" y2="1149.93" gradientUnits="userSpaceOnUse"><stop offset="0" stop-color="#d0bd99"/><stop offset="1" stop-color="#b5986b"/></linearGradient><linearGradient id="linear-gradient-3" x1="1337.81" y1="1032.62" x2="1374.92" y2="1068.35" xlink:href="#linear-gradient-2"/></defs><title>uni icon</title><rect class="cls-1" y="0.19" width="2000" height="2000"/><polygon class="cls-2" points="2000 1325.5 1733.25 827.53 1701.83 827.53 1721.34 863.96 266.75 863.96 863.26 2000 2000 2000 2000 1325.5"/><path class="cls-3" d="M1391.44,893.16H608.56v230.35c114.14,83,248.13,130.76,391.44,130.76s277.3-47.78,391.44-130.76Z"/><path class="cls-4" d="M1000,893.16v361.11c143.32,0,277.3-47.78,391.44-130.76V893.16Z"/><path class="cls-5" d="M0,.19v2000H2000V.19ZM1000,1924.26c-510.35,0-924.07-413.72-924.07-924.07S489.65,76.12,1000,76.12s924.07,413.72,924.07,924.07S1510.35,1924.26,1000,1924.26Z"/><polygon class="cls-3" points="1000 1012.86 266.75 827.53 1000 642.2 1733.25 827.53 1000 1012.86"/><polygon class="cls-6" points="1000 1049.27 266.75 863.96 266.75 827.53 1000 1012.84 1000 1049.27"/><polygon class="cls-7" points="1000 1049.27 1733.25 863.96 1733.25 827.53 1000 1012.84 1000 1049.27"/><polyline class="cls-8" points="986.15 824.88 1357.83 916.27 1357.83 1037.08"/><path class="cls-9" d="M1385,1241.78a13,13,0,0,1-8.15,12,56,56,0,0,1-42.15,0,12.92,12.92,0,0,1-8.08-12V1054.89a12.92,12.92,0,0,1,12.92-12.92h32.54a12.92,12.92,0,0,1,12.92,12.92Z"/><path class="cls-10" d="M1355.8,1019.27a31.75,31.75,0,0,0-28,46.69,54.47,54.47,0,0,0,56,0,31.75,31.75,0,0,0-28-46.69Z"/></svg>