<svg id="Layer_1" data-name="Layer 1" xmlns="http://www.w3.org/2000/svg" xmlns:xlink="http://www.w3.org/1999/xlink" viewBox="0 0 2000 2000"><defs><style>.cls-1{fill:#fff;stroke:#000;}.cls-1,.cls-11,.cls-8{stroke-miterlimit:10;}.cls-2{fill:url(#linear-gradient);}.cls-3{fill:#caccca;}.cls-4{fill:#a8a8a8;}.cls-5{fill:#99c4a1;}.cls-6{fill:#373737;}.cls-7{fill:#779e7d;}.cls-11,.cls-8{fill:none;stroke-linecap:round;}.cls-8{stroke:#fff;stroke-width:4px;}.cls-9{fill:#707070;}.cls-10{fill:#606060;}.cls-11{stroke:#373737;stroke-width:6px;}.cls-12{fill:#7eb189;}</style><linearGradient id="linear-gradient" x1="1242.04" y1="1928.53" x2="1242.04" y2="1444.24" gradientUnits="userSpaceOnUse"><stop offset="0" stop-color="#fff"/><stop offset="0.1" stop-color="#fafafa" stop-opacity="0.98"/><stop offset="0.25" stop-color="#ebebeb" stop-opacity="0.94"/><stop offset="0.43" stop-color="#d4d4d4" stop-opacity="0.86"/><stop offset="0.63" stop-color="#b3b3b3" stop-opacity="0.75"/><stop offset="0.84" stop-color="#898989" stop-opacity="0.61"/><stop offset="1" stop-color="#666" stop-opacity="0.5"/></linearGradient></defs><title>world challenge icon</title><rect class="cls-1" width="2000" height="2000"/><path class="cls-2" d="M2000,1835.74l-303.84-293.25L1634,1474a140.68,140.68,0,0,0-48.74-34.75l-57.46-24.63-15.37,127.26-796.53-2.62a109.6,109.6,0,0,0-212.85-.7l-19-.06,16.27,15.7q-.53,5.36-.54,10.86a109.31,109.31,0,0,0,37.47,82.5l317.07,330.86H2000Z"/><rect class="cls-3" x="676.64" y="447.31" width="646.72" height="892.41" rx="193.6" ry="193.6"/><path class="cls-4" d="M1129.76,447.31H1000v892.41h129.76c106.92,0,193.6-86.68,193.6-193.6V640.91C1323.36,534,1236.68,447.31,1129.76,447.31Z"/><path class="cls-5" d="M1129.76,447.31H870.24c-106.92,0-193.6,86.68-193.6,193.6v19.37a166,166,0,0,1,143.61,82.58H859a283.92,283.92,0,0,1,281.95,0h38.78a166,166,0,0,1,143.6-82.58V640.91C1323.36,534,1236.68,447.31,1129.76,447.31Z"/><rect class="cls-5" x="472.2" y="1264.19" width="1055.59" height="300.87" rx="64.4" ry="64.4"/><path class="cls-6" d="M859.06,791.19A21,21,0,0,1,871.52,772v-9.21a13,13,0,0,0-13-13H817.41a13,13,0,0,0-13,13V772a21,21,0,0,1,0,38.33v2a13,13,0,0,0,13,13h41.14a13,13,0,0,0,13-13v-2A21,21,0,0,1,859.06,791.19Z"/><path class="cls-6" d="M808.21,802.43a14.78,14.78,0,0,0,1.61-20,12.29,12.29,0,0,0-4.94,20Z"/><path class="cls-6" d="M867.44,802.43a14.78,14.78,0,0,1-1.61-20,12.29,12.29,0,0,1,4.94,20Z"/><path class="cls-6" d="M1183.56,791.19A21,21,0,0,1,1196,772v-9.21a13,13,0,0,0-13-13h-41.14a13,13,0,0,0-13,13V772a21,21,0,0,1,0,38.33v2a13,13,0,0,0,13,13h41.14a13,13,0,0,0,13-13v-2A21,21,0,0,1,1183.56,791.19Z"/><path class="cls-6" d="M1132.71,802.43a14.78,14.78,0,0,0,1.61-20,12.29,12.29,0,0,0-4.94,20Z"/><path class="cls-6" d="M1191.94,802.43a14.78,14.78,0,0,1-1.61-20,12.29,12.29,0,0,1,4.94,20Z"/><path class="cls-7" d="M1129.76,447.31H1000V705.39a282.27,282.27,0,0,1,141,37.47h38.78a166,166,0,0,1,143.6-82.58V640.91C1323.36,534,1236.68,447.31,1129.76,447.31Z"/><rect class="cls-3" x="904.06" y="565.29" width="191.88" height="59.59" rx="13.91" ry="13.91"/><rect class="cls-3" x="599.6" y="837.11" width="115.32" height="212.8" rx="46.68" ry="46.68"/><rect class="cls-6" x="637.88" y="812.4" width="38.76" height="20.23" rx="4.17" ry="4.17"/><rect class="cls-6" x="645.8" y="794.61" width="22.92" height="22.92" rx="4.84" ry="4.84"/><line class="cls-8" x1="610.98" y1="877.06" x2="610.98" y2="979.56"/><rect class="cls-6" x="1265.7" y="1100.02" width="115.32" height="15.75"/><path class="cls-5" d="M1265.19,1115.76l1,70.49a46.68,46.68,0,0,0,46.68,46.68h22a46.68,46.68,0,0,0,46.68-46.68l-1-70.49Z"/><path class="cls-4" d="M1082,565.29h-82v59.59h82A13.91,13.91,0,0,0,1095.94,611V579.2A13.91,13.91,0,0,0,1082,565.29Z"/><path class="cls-7" d="M472.2,1482.18v18.48a64.4,64.4,0,0,0,64.4,64.4H1463.4a64.4,64.4,0,0,0,64.4-64.4v-18.48Z"/><rect class="cls-6" x="820.96" y="1264.19" width="34.05" height="300.87"/><rect class="cls-6" x="820.96" y="832.32" width="34.05" height="424.4"/><rect class="cls-6" x="1144.65" y="832.32" width="34.05" height="424.4"/><rect class="cls-6" x="1144.65" y="1264.19" width="34.05" height="300.87"/><path class="cls-9" d="M1343,731.73l-6.77-23-12.9-31.13-42.6,6.77,24.37,29.78v19l-33.26,27.71A17.13,17.13,0,0,0,1265.7,774V1100H1381V775.37a21.2,21.2,0,0,0-7-15.75Z"/><path class="cls-5" d="M599.09,968.48l1,70.49a46.68,46.68,0,0,0,46.68,46.68h22A46.68,46.68,0,0,0,715.43,1039l-1-70.49Z"/><path class="cls-4" d="M668.24,837.11h-11v212.8h11a46.68,46.68,0,0,0,46.68-46.68V883.79A46.68,46.68,0,0,0,668.24,837.11Z"/><path class="cls-7" d="M714.15,968.48H657v117.17H668.5A46.68,46.68,0,0,0,715.18,1039Z"/><path class="cls-7" d="M1380.5,1115.76h-57.15v117.17h11.49a46.68,46.68,0,0,0,46.68-46.68Z"/><rect class="cls-6" x="599.6" y="952.26" width="115.32" height="15.75"/><path class="cls-10" d="M1343.67,731.73l-6.77-23L1324,677.58l-18.87,3,15.53,30.58,3.34,22.9v366h57.66V772.79a15.42,15.42,0,0,0-5.1-11.46Z"/><rect class="cls-6" x="1265.7" y="837.11" width="115.32" height="15.75"/><line class="cls-11" x1="1305.13" y1="721.76" x2="1341.04" y2="724.46"/><line class="cls-11" x1="1305.13" y1="714.13" x2="1336.26" y2="708.72"/><path class="cls-12" d="M0,0V2000H2000V0ZM1000,1924.07c-510.35,0-924.07-413.72-924.07-924.07S489.65,75.93,1000,75.93,1924.07,489.65,1924.07,1000,1510.35,1924.07,1000,1924.07Z"/></svg>