<svg id="Layer_1" data-name="Layer 1" xmlns="http://www.w3.org/2000/svg" xmlns:xlink="http://www.w3.org/1999/xlink" viewBox="0 0 2000 2000"><defs><style>.cls-1{fill:#fff;}.cls-2{fill:url(#linear-gradient);}.cls-3{fill:url(#linear-gradient-2);}.cls-4{fill:#7eb189;}.cls-5{fill:#b5986b;}.cls-6{fill:#cce5d0;}.cls-7{fill:#722f37;}.cls-8{fill:url(#linear-gradient-3);}</style><linearGradient id="linear-gradient" x1="1098.65" y1="1987.91" x2="1098.65" y2="1637.28" gradientUnits="userSpaceOnUse"><stop offset="0" stop-color="#fff" stop-opacity="0.5"/><stop offset="1" stop-color="#666" stop-opacity="0.5"/></linearGradient><linearGradient id="linear-gradient-2" x1="1229.53" y1="1969.73" x2="1229.53" y2="1086.46" gradientUnits="userSpaceOnUse"><stop offset="0" stop-color="#fff" stop-opacity="0.5"/><stop offset="1" stop-color="#666" stop-opacity="0.6"/></linearGradient><linearGradient id="linear-gradient-3" x1="1000" y1="1293.9" x2="1000" y2="1121.23" gradientUnits="userSpaceOnUse"><stop offset="0" stop-color="#b5986b"/><stop offset="1" stop-color="#754c24" stop-opacity="0.6"/></linearGradient></defs><title>year abroad icon</title><rect class="cls-1" x="0.5" y="0.69" width="1999" height="1999"/><path d="M1999,1.19v1998H1V1.19H1999m1-1H0v2000H2000V.19Z"/><polygon class="cls-2" points="1223.13 1628.36 776.87 1628.36 782.44 1638.85 778.38 1644.33 964.15 2000 974.18 2000 1420.44 2000 1223.13 1628.36"/><polygon class="cls-3" points="2000 1964.6 1542.44 1064 467.25 1064 474.05 1073.92 485.8 1097.12 459.05 1112.3 903.85 2000.19 942.8 2000 2000 2000 2000 1964.6"/><path class="cls-4" d="M0,.19v2000H2000V.19ZM1000,1924.26c-510.35,0-924.07-413.72-924.07-924.07S489.65,76.12,1000,76.12s924.07,413.72,924.07,924.07S1510.35,1924.26,1000,1924.26Z"/><rect class="cls-5" x="457.56" y="1056.52" width="1084.87" height="60.32" rx="9.69" ry="9.69"/><rect class="cls-5" x="776.87" y="1618.86" width="446.26" height="30.16" rx="9.69" ry="9.69"/><path class="cls-5" d="M1032.62,1618.86h-63.9a931.48,931.48,0,0,1-7.82-169.35c4-85.93,18.42-128.74,17.51-219a826,826,0,0,0-9.69-118.26h63.9a907,907,0,0,0-9.05,118.26c-1,88.94,11.63,131.8,15.48,216.82A1057.42,1057.42,0,0,1,1032.62,1618.86Z"/><path class="cls-6" d="M712.55,900.59,704.75,829a4.29,4.29,0,0,0-4.27-3.83H617.94a4.29,4.29,0,0,0-4.27,3.88l-7.05,72.82a54.1,54.1,0,1,0,105.93-1.25Z"/><rect class="cls-6" x="657.4" y="940.7" width="4.08" height="115.8"/><circle class="cls-6" cx="615.93" cy="1055.02" r="1.49"/><circle class="cls-6" cx="702.95" cy="1055.03" r="1.49"/><rect class="cls-6" x="615.93" y="1053.53" width="87.02" height="2.99"/><path class="cls-6" d="M657.4,1043.61a9.92,9.92,0,0,1-9.92,9.92h9.92Z"/><path class="cls-6" d="M661.48,1043.61a9.92,9.92,0,0,0,9.92,9.92h-9.92Z"/><path class="cls-7" d="M609.14,917.22a50.87,50.87,0,0,0,101.09,0Z"/><path class="cls-6" d="M1347.54,900.59l-7.8-71.62a4.29,4.29,0,0,0-4.27-3.83h-82.54a4.29,4.29,0,0,0-4.27,3.88l-7.05,72.82a54.1,54.1,0,1,0,105.93-1.25Z"/><rect class="cls-6" x="1292.4" y="940.7" width="4.08" height="115.8"/><circle class="cls-6" cx="1250.93" cy="1055.02" r="1.49"/><circle class="cls-6" cx="1337.95" cy="1055.03" r="1.49"/><rect class="cls-6" x="1250.93" y="1053.53" width="87.02" height="2.99"/><path class="cls-6" d="M1292.4,1043.61a9.92,9.92,0,0,1-9.92,9.92h9.92Z"/><path class="cls-6" d="M1296.48,1043.61a9.92,9.92,0,0,0,9.92,9.92h-9.92Z"/><path class="cls-7" d="M1247.77,932.17a50.86,50.86,0,0,0,93.34,0Z"/><path class="cls-8" d="M975.6,1299.86h49.1c-1.32-19.33-2.08-40.3-1.8-64.76a907,907,0,0,1,9.05-118.26H968a826,826,0,0,1,9.69,118.26C978,1259.57,977.1,1280.55,975.6,1299.86Z"/></svg>