<svg id="Layer_1" data-name="Layer 1" xmlns="http://www.w3.org/2000/svg" xmlns:xlink="http://www.w3.org/1999/xlink" viewBox="0 0 150 89.1"><defs><style>.cls-1{fill:#d8d8d8;}.cls-2{fill:#373737;}.cls-3{fill:#151615;}.cls-4{fill:none;stroke:#4c4c4c;stroke-linecap:round;stroke-miterlimit:10;stroke-width:0.25px;}.cls-5{fill:#a7c6ab;}.cls-6{fill:#4c4c4c;}.cls-7{fill:#ccc;}.cls-8{fill:url(#linear-gradient);}.cls-9{fill:#b5b5b5;}.cls-10{fill:#8c998c;}.cls-11{fill:url(#linear-gradient-2);}.cls-12{fill:url(#linear-gradient-3);}.cls-13{fill:#f2c488;}.cls-14{fill:#9b959e;}.cls-15{fill:#dd8ac6;}</style><linearGradient id="linear-gradient" x1="75" y1="85.8" x2="75" y2="89.14" gradientUnits="userSpaceOnUse"><stop offset="0" stop-color="#ccc"/><stop offset="1" stop-color="#666"/></linearGradient><linearGradient id="linear-gradient-2" x1="63.45" y1="84.21" x2="62.08" y2="84.21" gradientUnits="userSpaceOnUse"><stop offset="0" stop-color="#b3b3b3"/><stop offset="1" stop-color="gray"/></linearGradient><linearGradient id="linear-gradient-3" x1="65.82" y1="84.21" x2="64.54" y2="84.21" gradientTransform="matrix(-1, 0, 0, 1, 151.37, 0)" xlink:href="#linear-gradient-2"/></defs><title>laptop</title><rect class="cls-1" x="11.89" width="126.21" height="86.07" rx="5.1" ry="5.1"/><rect class="cls-2" x="12.46" y="0.62" width="125.07" height="84.83" rx="4.37" ry="4.37"/><path class="cls-3" d="M17.55,1.26h114.9A4.57,4.57,0,0,1,137,5.82V79.38a1.92,1.92,0,0,1-1.92,1.92h-120A2.13,2.13,0,0,1,13,79.17V5.82a4.57,4.57,0,0,1,4.57-4.57Z"/><path class="cls-4" d="M13.37,80.05a2.08,2.08,0,0,0,.49.65,2.2,2.2,0,0,0,1.4.53h120a1.92,1.92,0,0,0,.87-.21,1.9,1.9,0,0,0,.51-.38"/><rect class="cls-5" x="16.07" y="6.99" width="117.86" height="71.07"/><circle class="cls-2" cx="75" cy="4.66" r="0.58"/><circle class="cls-3" cx="75" cy="4.66" r="0.16"/><rect class="cls-6" x="25.31" y="81.93" width="99.38" height="1.3"/><rect class="cls-7" y="83.24" width="150" height="3.86"/><path class="cls-8" d="M0,87.1l3.46,1.42a12.07,12.07,0,0,0,2.95.58H144.34a6.76,6.76,0,0,0,1.64-.33l4-1.67Z"/><path class="cls-9" d="M62.09,83.24H85.59a11.12,11.12,0,0,1,0,1.93H63.46a2,2,0,0,1-.56-.18A1.94,1.94,0,0,1,62.09,83.24Z"/><rect class="cls-10" x="53.09" y="6.99" width="80.99" height="71.07"/><path class="cls-11" d="M62.09,83.24c0,.09,0,1.37.82,1.76a2.52,2.52,0,0,0,.56.18V83.24Z"/><path class="cls-12" d="M86.92,83.24c0,.09,0,1.37-.82,1.76a2.52,2.52,0,0,1-.56.18V83.24Z"/><circle class="cls-5" cx="57.15" cy="11.46" r="1.08"/><circle class="cls-5" cx="57.15" cy="19.18" r="1.08"/><circle class="cls-5" cx="57.15" cy="23.05" r="1.08"/><circle class="cls-5" cx="57.15" cy="26.91" r="1.08"/><circle class="cls-5" cx="57.15" cy="30.77" r="1.08"/><circle class="cls-5" cx="57.15" cy="34.64" r="1.08"/><circle class="cls-5" cx="57.15" cy="38.5" r="1.08"/><circle class="cls-5" cx="57.15" cy="42.36" r="1.08"/><circle class="cls-5" cx="57.15" cy="46.23" r="1.08"/><circle class="cls-5" cx="57.15" cy="50.09" r="1.08"/><circle class="cls-5" cx="57.15" cy="53.96" r="1.08"/><circle class="cls-5" cx="57.15" cy="57.82" r="1.08"/><circle class="cls-5" cx="57.15" cy="61.68" r="1.08"/><circle class="cls-5" cx="57.15" cy="65.55" r="1.08"/><circle class="cls-5" cx="57.15" cy="69.41" r="1.08"/><circle class="cls-5" cx="57.15" cy="73.27" r="1.08"/><circle class="cls-5" cx="57.15" cy="15.32" r="1.08"/><circle class="cls-5" cx="69.25" cy="15.32" r="1.08"/><circle class="cls-5" cx="82.64" cy="15.32" r="1.08"/><rect class="cls-5" x="69.25" y="14.24" width="13.39" height="2.16"/><circle class="cls-5" cx="98.43" cy="26.91" r="1.08"/><circle class="cls-5" cx="111.83" cy="26.91" r="1.08"/><rect class="cls-5" x="98.43" y="25.83" width="13.39" height="2.16"/><circle class="cls-5" cx="100.81" cy="38.59" r="1.08"/><circle class="cls-5" cx="114.2" cy="38.59" r="1.08"/><rect class="cls-5" x="100.81" y="37.51" width="13.39" height="2.16"/><circle class="cls-5" cx="111.92" cy="50.09" r="1.08"/><circle class="cls-5" cx="125.31" cy="50.09" r="1.08"/><rect class="cls-5" x="111.92" y="49.01" width="13.39" height="2.16"/><circle class="cls-5" cx="80.2" cy="23.05" r="1.08"/><circle class="cls-5" cx="93.59" cy="23.05" r="1.08"/><rect class="cls-5" x="80.2" y="21.97" width="13.39" height="2.16"/><circle class="cls-5" cx="104.92" cy="30.77" r="1.08"/><circle class="cls-5" cx="118.31" cy="30.77" r="1.08"/><rect class="cls-5" x="104.92" y="29.69" width="13.39" height="2.16"/><circle class="cls-5" cx="69.25" cy="26.91" r="1.08"/><circle class="cls-5" cx="94.1" cy="26.91" r="1.08"/><rect class="cls-5" x="69.25" y="25.83" width="24.85" height="2.16"/><circle class="cls-5" cx="86.97" cy="15.32" r="1.08"/><circle class="cls-5" cx="111.83" cy="15.32" r="1.08"/><rect class="cls-5" x="86.97" y="14.24" width="24.85" height="2.16"/><circle class="cls-13" cx="64.37" cy="46.23" r="1.08"/><circle class="cls-13" cx="89.23" cy="46.23" r="1.08"/><rect class="cls-13" x="64.37" y="45.15" width="24.85" height="2.16"/><circle class="cls-5" cx="69.25" cy="23.05" r="1.08"/><circle class="cls-5" cx="75.87" cy="23.05" r="1.08"/><rect class="cls-5" x="69.25" y="21.97" width="6.62" height="2.16"/><circle class="cls-5" cx="69.25" cy="50.09" r="1.08"/><circle class="cls-5" cx="75.87" cy="50.09" r="1.08"/><rect class="cls-5" x="69.25" y="49.01" width="6.62" height="2.16"/><circle class="cls-5" cx="92.55" cy="19.18" r="1.08"/><circle class="cls-5" cx="99.16" cy="19.18" r="1.08"/><rect class="cls-5" x="92.55" y="18.1" width="6.62" height="2.16"/><circle class="cls-5" cx="118.74" cy="42.36" r="1.08"/><circle class="cls-5" cx="125.35" cy="42.36" r="1.08"/><rect class="cls-5" x="118.74" y="41.28" width="6.62" height="2.16"/><circle class="cls-5" cx="107.79" cy="42.36" r="1.08"/><circle class="cls-5" cx="114.41" cy="42.36" r="1.08"/><rect class="cls-5" x="107.79" y="41.28" width="6.62" height="2.16"/><circle class="cls-5" cx="118.53" cy="38.59" r="1.08"/><circle class="cls-5" cx="126.56" cy="38.59" r="1.08"/><rect class="cls-5" x="118.53" y="37.51" width="8.04" height="2.16"/><circle class="cls-13" cx="79.52" cy="34.64" r="1.08"/><circle class="cls-13" cx="86.13" cy="34.64" r="1.08"/><rect class="cls-13" x="79.52" y="33.56" width="6.62" height="2.16"/><circle class="cls-13" cx="65.46" cy="69.41" r="1.08"/><circle class="cls-13" cx="72.07" cy="69.41" r="1.08"/><rect class="cls-13" x="65.46" y="68.33" width="6.62" height="2.16"/><circle class="cls-5" cx="98.11" cy="23.05" r="1.08"/><circle class="cls-5" cx="103.65" cy="23.05" r="1.08"/><rect class="cls-5" x="98.11" y="21.97" width="5.53" height="2.16"/><circle class="cls-14" cx="33.19" cy="19.18" r="1.08"/><circle class="cls-14" cx="38.72" cy="19.18" r="1.08"/><rect class="cls-14" x="33.19" y="18.1" width="5.53" height="2.16"/><circle class="cls-5" cx="84.39" cy="30.77" r="1.08"/><circle class="cls-5" cx="88.32" cy="30.77" r="1.08"/><rect class="cls-5" x="84.39" y="29.69" width="3.93" height="2.16"/><circle class="cls-5" cx="80.2" cy="50.09" r="1.08"/><circle class="cls-5" cx="84.13" cy="50.09" r="1.08"/><rect class="cls-5" x="80.2" y="49.01" width="3.93" height="2.16"/><circle class="cls-5" cx="69.25" cy="42.36" r="1.08"/><circle class="cls-5" cx="73.18" cy="42.36" r="1.08"/><rect class="cls-5" x="69.25" y="41.28" width="3.93" height="2.16"/><circle class="cls-5" cx="92.55" cy="38.5" r="1.08"/><circle class="cls-5" cx="96.47" cy="38.5" r="1.08"/><rect class="cls-5" x="92.55" y="37.42" width="3.93" height="2.16"/><circle class="cls-14" cx="43.05" cy="19.18" r="1.08"/><circle class="cls-14" cx="46.98" cy="19.18" r="1.08"/><rect class="cls-14" x="43.05" y="18.1" width="3.93" height="2.16"/><circle class="cls-14" cx="33.19" cy="38.5" r="1.08"/><circle class="cls-14" cx="38.72" cy="38.5" r="1.08"/><rect class="cls-14" x="33.19" y="37.42" width="5.53" height="2.16"/><circle class="cls-14" cx="43.05" cy="38.5" r="1.08"/><circle class="cls-14" cx="46.98" cy="38.5" r="1.08"/><rect class="cls-14" x="43.05" y="37.42" width="3.93" height="2.16"/><circle class="cls-5" cx="122.64" cy="30.77" r="1.08"/><circle class="cls-5" cx="126.57" cy="30.77" r="1.08"/><rect class="cls-5" x="122.64" y="29.69" width="3.93" height="2.16"/><circle class="cls-5" cx="118.63" cy="19.18" r="1.08"/><circle class="cls-5" cx="126.33" cy="19.18" r="1.08"/><rect class="cls-5" x="118.63" y="18.1" width="7.7" height="2.16"/><circle class="cls-5" cx="92.65" cy="30.77" r="1.08"/><circle class="cls-5" cx="100.35" cy="30.77" r="1.08"/><rect class="cls-5" x="92.65" y="29.69" width="7.7" height="2.16"/><circle class="cls-14" cx="32.95" cy="61.68" r="1.08"/><circle class="cls-14" cx="40.65" cy="61.68" r="1.08"/><rect class="cls-14" x="32.95" y="60.6" width="7.7" height="2.16"/><circle class="cls-14" cx="41.4" cy="42.36" r="1.08"/><circle class="cls-14" cx="49.1" cy="42.36" r="1.08"/><rect class="cls-14" x="41.4" y="41.28" width="7.7" height="2.16"/><circle class="cls-5" cx="103.49" cy="19.18" r="1.08"/><circle class="cls-5" cx="114.3" cy="19.18" r="1.08"/><rect class="cls-5" x="103.49" y="18.1" width="10.81" height="2.16"/><circle class="cls-5" cx="116.15" cy="26.91" r="1.08"/><circle class="cls-5" cx="126.97" cy="26.91" r="1.08"/><rect class="cls-5" x="116.15" y="25.83" width="10.81" height="2.16"/><circle class="cls-5" cx="98.43" cy="53.96" r="1.08"/><circle class="cls-5" cx="111.83" cy="53.96" r="1.08"/><rect class="cls-5" x="98.43" y="52.87" width="13.39" height="2.16"/><circle class="cls-14" cx="33.19" cy="46.23" r="1.08"/><circle class="cls-14" cx="46.58" cy="46.23" r="1.08"/><rect class="cls-14" x="33.19" y="45.15" width="13.39" height="2.16"/><circle class="cls-13" cx="76.4" cy="69.41" r="1.08"/><circle class="cls-13" cx="89.79" cy="69.41" r="1.08"/><rect class="cls-13" x="76.4" y="68.33" width="13.39" height="2.16"/><circle class="cls-5" cx="69.25" cy="53.96" r="1.08"/><circle class="cls-5" cx="94.1" cy="53.96" r="1.08"/><rect class="cls-5" x="69.25" y="52.87" width="24.85" height="2.16"/><circle class="cls-5" cx="116.15" cy="53.96" r="1.08"/><circle class="cls-5" cx="126.97" cy="53.96" r="1.08"/><rect class="cls-5" x="116.15" y="52.87" width="10.81" height="2.16"/><circle class="cls-5" cx="92.65" cy="42.36" r="1.08"/><circle class="cls-5" cx="103.46" cy="42.36" r="1.08"/><rect class="cls-5" x="92.65" y="41.28" width="10.81" height="2.16"/><circle class="cls-13" cx="64.37" cy="34.64" r="1.08"/><circle class="cls-13" cx="75.19" cy="34.64" r="1.08"/><rect class="cls-13" x="64.37" y="33.56" width="10.81" height="2.16"/><circle class="cls-5" cx="116.15" cy="15.32" r="1.08"/><circle class="cls-5" cx="126.97" cy="15.32" r="1.08"/><rect class="cls-5" x="116.15" y="14.24" width="10.81" height="2.16"/><circle class="cls-5" cx="77.51" cy="42.36" r="1.08"/><circle class="cls-5" cx="88.32" cy="42.36" r="1.08"/><rect class="cls-5" x="77.51" y="41.28" width="10.81" height="2.16"/><circle class="cls-5" cx="118.5" cy="73.27" r="1.08"/><circle class="cls-5" cx="125.12" cy="73.27" r="1.08"/><rect class="cls-5" x="118.5" y="72.19" width="6.62" height="2.16"/><circle class="cls-5" cx="107.55" cy="73.27" r="1.08"/><circle class="cls-5" cx="114.17" cy="73.27" r="1.08"/><rect class="cls-5" x="107.55" y="72.19" width="6.62" height="2.16"/><circle class="cls-5" cx="69.02" cy="73.27" r="1.08"/><circle class="cls-5" cx="72.94" cy="73.27" r="1.08"/><rect class="cls-5" x="69.02" y="72.19" width="3.93" height="2.16"/><circle class="cls-5" cx="92.41" cy="73.27" r="1.08"/><circle class="cls-5" cx="103.23" cy="73.27" r="1.08"/><rect class="cls-5" x="92.41" y="72.19" width="10.81" height="2.16"/><circle class="cls-5" cx="77.27" cy="73.27" r="1.08"/><circle class="cls-5" cx="88.08" cy="73.27" r="1.08"/><rect class="cls-5" x="77.27" y="72.19" width="10.81" height="2.16"/><circle class="cls-5" cx="69.25" cy="30.77" r="1.08"/><circle class="cls-5" cx="80.07" cy="30.77" r="1.08"/><rect class="cls-5" x="69.25" y="29.69" width="10.81" height="2.16"/><circle class="cls-5" cx="69.25" cy="19.18" r="1.08"/><circle class="cls-5" cx="88.22" cy="19.18" r="1.08"/><rect class="cls-5" x="69.25" y="18.1" width="18.96" height="2.16"/><circle class="cls-5" cx="92.31" cy="57.82" r="1.08"/><circle class="cls-5" cx="98.92" cy="57.82" r="1.08"/><rect class="cls-5" x="92.31" y="56.74" width="6.62" height="2.16"/><circle class="cls-5" cx="118.39" cy="57.82" r="1.08"/><circle class="cls-5" cx="126.09" cy="57.82" r="1.08"/><rect class="cls-5" x="118.39" y="56.74" width="7.7" height="2.16"/><circle class="cls-5" cx="103.25" cy="57.82" r="1.08"/><circle class="cls-5" cx="114.07" cy="57.82" r="1.08"/><rect class="cls-5" x="103.25" y="56.74" width="10.81" height="2.16"/><circle class="cls-5" cx="69.02" cy="57.82" r="1.08"/><circle class="cls-5" cx="87.98" cy="57.82" r="1.08"/><rect class="cls-5" x="69.02" y="56.74" width="18.96" height="2.16"/><circle class="cls-5" cx="88.57" cy="50.09" r="1.08"/><circle class="cls-5" cx="107.54" cy="50.09" r="1.08"/><rect class="cls-5" x="88.57" y="49.01" width="18.96" height="2.16"/><circle class="cls-13" cx="65.46" cy="65.55" r="1.08"/><circle class="cls-13" cx="84.42" cy="65.55" r="1.08"/><rect class="cls-13" x="65.46" y="64.46" width="18.96" height="2.16"/><circle class="cls-5" cx="107.97" cy="23.05" r="1.08"/><circle class="cls-5" cx="126.94" cy="23.05" r="1.08"/><rect class="cls-5" x="107.97" y="21.97" width="18.96" height="2.16"/><circle class="cls-5" cx="79.96" cy="61.68" r="1.08"/><circle class="cls-5" cx="93.35" cy="61.68" r="1.08"/><rect class="cls-5" x="79.96" y="60.6" width="13.39" height="2.16"/><circle class="cls-5" cx="69.02" cy="61.68" r="1.08"/><circle class="cls-5" cx="75.63" cy="61.68" r="1.08"/><rect class="cls-5" x="69.02" y="60.6" width="6.62" height="2.16"/><circle class="cls-5" cx="97.87" cy="61.68" r="1.08"/><circle class="cls-5" cx="103.41" cy="61.68" r="1.08"/><rect class="cls-5" x="97.87" y="60.6" width="5.53" height="2.16"/><circle class="cls-5" cx="107.74" cy="61.68" r="1.08"/><circle class="cls-5" cx="126.7" cy="61.68" r="1.08"/><rect class="cls-5" x="107.74" y="60.6" width="18.96" height="2.16"/><circle class="cls-5" cx="69.25" cy="38.5" r="1.08"/><circle class="cls-5" cx="88.22" cy="38.5" r="1.08"/><rect class="cls-5" x="69.25" y="37.42" width="18.96" height="2.16"/><circle class="cls-13" cx="64.37" cy="11.46" r="1.08"/><circle class="cls-13" cx="83.34" cy="11.46" r="1.08"/><rect class="cls-13" x="64.37" y="10.37" width="18.96" height="2.16"/><circle class="cls-14" cx="21.08" cy="11.46" r="1.08"/><circle class="cls-14" cx="21.08" cy="19.18" r="1.08"/><circle class="cls-14" cx="21.08" cy="23.05" r="1.08"/><circle class="cls-14" cx="21.08" cy="26.91" r="1.08"/><circle class="cls-14" cx="21.08" cy="30.77" r="1.08"/><circle class="cls-14" cx="21.08" cy="34.64" r="1.08"/><circle class="cls-14" cx="21.08" cy="38.5" r="1.08"/><circle class="cls-14" cx="21.08" cy="42.36" r="1.08"/><circle class="cls-14" cx="21.08" cy="46.23" r="1.08"/><circle class="cls-14" cx="21.08" cy="50.09" r="1.08"/><circle class="cls-14" cx="21.08" cy="53.96" r="1.08"/><circle class="cls-14" cx="21.08" cy="57.82" r="1.08"/><circle class="cls-14" cx="21.08" cy="61.68" r="1.08"/><circle class="cls-14" cx="21.08" cy="65.55" r="1.08"/><circle class="cls-14" cx="21.08" cy="69.41" r="1.08"/><circle class="cls-14" cx="21.08" cy="73.27" r="1.08"/><circle class="cls-14" cx="21.08" cy="15.32" r="1.08"/><circle class="cls-14" cx="33.19" cy="15.32" r="1.08"/><circle class="cls-14" cx="46.58" cy="15.32" r="1.08"/><rect class="cls-14" x="33.19" y="14.24" width="13.39" height="2.16"/><circle class="cls-15" cx="28.31" cy="26.91" r="1.08"/><circle class="cls-15" cx="41.7" cy="26.91" r="1.08"/><rect class="cls-15" x="28.31" y="25.83" width="13.39" height="2.16"/><circle class="cls-14" cx="33.19" cy="23.05" r="1.08"/><circle class="cls-14" cx="39.8" cy="23.05" r="1.08"/><rect class="cls-14" x="33.19" y="21.97" width="6.62" height="2.16"/><circle class="cls-15" cx="29.39" cy="69.41" r="1.08"/><circle class="cls-15" cx="36.01" cy="69.41" r="1.08"/><rect class="cls-15" x="29.39" y="68.33" width="6.62" height="2.16"/><circle class="cls-14" cx="33.19" cy="42.36" r="1.08"/><circle class="cls-14" cx="37.11" cy="42.36" r="1.08"/><rect class="cls-14" x="33.19" y="41.28" width="3.93" height="2.16"/><circle class="cls-15" cx="28.31" cy="34.64" r="1.08"/><circle class="cls-15" cx="39.12" cy="34.64" r="1.08"/><rect class="cls-15" x="28.31" y="33.56" width="10.81" height="2.16"/><circle class="cls-14" cx="32.95" cy="73.27" r="1.08"/><circle class="cls-14" cx="36.88" cy="73.27" r="1.08"/><rect class="cls-14" x="32.95" y="72.19" width="3.93" height="2.16"/><circle class="cls-14" cx="41.21" cy="57.82" r="1.08"/><circle class="cls-14" cx="45.13" cy="57.82" r="1.08"/><rect class="cls-14" x="41.21" y="56.74" width="3.93" height="2.16"/><circle class="cls-14" cx="32.95" cy="57.82" r="1.08"/><circle class="cls-14" cx="36.88" cy="57.82" r="1.08"/><rect class="cls-14" x="32.95" y="56.74" width="3.93" height="2.16"/><circle class="cls-14" cx="33.19" cy="30.77" r="1.08"/><circle class="cls-14" cx="44" cy="30.77" r="1.08"/><rect class="cls-14" x="33.19" y="29.69" width="10.81" height="2.16"/><circle class="cls-15" cx="28.31" cy="11.46" r="1.08"/><circle class="cls-15" cx="39.12" cy="11.46" r="1.08"/><rect class="cls-15" x="28.31" y="10.37" width="10.81" height="2.16"/><circle class="cls-15" cx="29.39" cy="53.96" r="1.08"/><circle class="cls-15" cx="48.35" cy="53.96" r="1.08"/><rect class="cls-15" x="29.39" y="52.87" width="18.96" height="2.16"/><circle class="cls-14" cx="41.21" cy="73.27" r="1.08"/><circle class="cls-14" cx="47.82" cy="73.27" r="1.08"/><rect class="cls-14" x="41.21" y="72.19" width="6.62" height="2.16"/><circle class="cls-14" cx="33.19" cy="50.09" r="1.08"/><circle class="cls-14" cx="39.8" cy="50.09" r="1.08"/><rect class="cls-14" x="33.19" y="49.01" width="6.62" height="2.16"/><circle class="cls-14" cx="43.9" cy="65.55" r="1.08"/><circle class="cls-14" cx="47.82" cy="65.55" r="1.08"/><rect class="cls-14" x="43.9" y="64.46" width="3.93" height="2.16"/><circle class="cls-14" cx="32.95" cy="65.55" r="1.08"/><circle class="cls-14" cx="39.57" cy="65.55" r="1.08"/><rect class="cls-14" x="32.95" y="64.46" width="6.62" height="2.16"/></svg>