<?xml version="1.0" encoding="utf-8"?>
<!-- Generator: Adobe Illustrator 20.1.0, SVG Export Plug-In . SVG Version: 6.00 Build 0)  -->
<svg version="1.1" id="Layer_1" xmlns="http://www.w3.org/2000/svg" xmlns:xlink="http://www.w3.org/1999/xlink" x="0px" y="0px"
	 viewBox="0 0 2000 2000" style="enable-background:new 0 0 2000 2000;" xml:space="preserve">
<style type="text/css">
	.st0{fill:#D0BD99;}
	.st1{fill:#FFFFFF;}
</style>
<title>skills pattern</title>
<polygon class="st0" points="1946.4,14.3 1882.7,78 1818.9,14.3 1755.7,77.5 1694,15.8 1632.4,77.4 1569.4,14.4 1507.4,76.4 
	1507.4,77.8 1443.9,14.3 1380.2,78 1316.4,14.3 1253.2,77.5 1191.6,15.8 1129.9,77.4 1066.9,14.4 1005,76.4 1005,76.4 941.5,12.9 
	877.7,76.7 814,12.9 750.8,76.1 689.1,14.4 627.5,76 564.5,13 502.5,75 502.5,76.4 439,12.9 375.2,76.7 311.5,12.9 248.3,76.1 
	186.6,14.4 125,76 62,13 0,75 0,115.5 62,53.5 125,116.5 186.6,54.9 248.3,116.6 311.5,53.4 375.2,117.2 439,53.4 502.5,116.9 
	502.5,115.5 564.5,53.5 627.5,116.5 689.1,54.9 750.8,116.6 814,53.4 877.7,117.2 941.5,53.4 1005,116.9 1005,116.9 1066.9,54.9 
	1129.9,117.9 1191.6,56.3 1253.2,118 1316.4,54.8 1380.2,118.5 1443.9,54.8 1507.4,118.2 1507.4,116.9 1569.4,54.9 1632.4,117.9 
	1694,56.3 1755.7,118 1818.9,54.8 1882.7,118.5 1946.4,54.8 2009.9,118.2 2009.9,77.8 "/>
<polygon class="st0" points="1946.4,-65.7 1882.7,-1.9 1818.9,-65.7 1755.7,-2.5 1694,-64.2 1632.4,-2.6 1569.4,-65.6 1507.4,-3.6 
	1507.4,-2.2 1443.9,-65.7 1380.2,-1.9 1316.4,-65.7 1253.2,-2.5 1191.6,-64.2 1129.9,-2.6 1066.9,-65.6 1005,-3.6 1005,-3.6 
	941.5,-67 877.7,-3.3 814,-67 750.8,-3.8 689.1,-65.5 627.5,-3.9 564.5,-66.9 502.5,-4.9 502.5,-3.6 439,-67 375.2,-3.3 311.5,-67 
	248.3,-3.8 186.6,-65.5 125,-3.9 62,-66.9 0,-4.9 0,35.6 62,-26.4 125,36.6 186.6,-25 248.3,36.7 311.5,-26.5 375.2,37.2 439,-26.5 
	502.5,36.9 502.5,35.6 564.5,-26.4 627.5,36.6 689.1,-25 750.8,36.7 814,-26.5 877.7,37.2 941.5,-26.5 1005,36.9 1005,36.9 
	1066.9,-25.1 1129.9,37.9 1191.6,-23.7 1253.2,38 1316.4,-25.2 1380.2,38.6 1443.9,-25.2 1507.4,38.3 1507.4,36.9 1569.4,-25.1 
	1632.4,37.9 1694,-23.7 1755.7,38 1818.9,-25.2 1882.7,38.6 1946.4,-25.2 2009.9,38.3 2009.9,-2.2 "/>
<polygon class="st0" points="1946.4,96.5 1882.7,160.2 1818.9,96.5 1755.7,159.7 1694,98 1632.4,159.6 1569.4,96.6 1507.4,158.6 
	1507.4,160 1443.9,96.5 1380.2,160.2 1316.4,96.5 1253.2,159.7 1191.6,98 1129.9,159.6 1066.9,96.6 1005,158.6 1005,158.6 
	941.5,95.1 877.7,158.9 814,95.1 750.8,158.3 689.1,96.6 627.5,158.2 564.5,95.2 502.5,157.2 502.5,158.6 439,95.1 375.2,158.9 
	311.5,95.1 248.3,158.3 186.6,96.6 125,158.2 62,95.2 0,157.2 0,197.7 62,135.7 125,198.7 186.6,137.1 248.3,198.8 311.5,135.6 
	375.2,199.4 439,135.6 502.5,199.1 502.5,197.7 564.5,135.7 627.5,198.7 689.1,137.1 750.8,198.8 814,135.6 877.7,199.4 
	941.5,135.6 1005,199.1 1005,199.1 1066.9,137.1 1129.9,200.1 1191.6,138.5 1253.2,200.2 1316.4,137 1380.2,200.8 1443.9,137 
	1507.4,200.5 1507.4,199.1 1569.4,137.1 1632.4,200.1 1694,138.5 1755.7,200.2 1818.9,137 1882.7,200.8 1946.4,137 2009.9,200.5 
	2009.9,160 "/>
<polygon class="st1" points="1946.4,54.8 1882.7,118.5 1818.9,54.8 1755.7,118 1694,56.3 1632.4,117.9 1569.4,54.9 1507.4,118.2 
	1443.9,54.8 1380.2,118.5 1316.4,54.8 1253.2,118 1191.6,56.3 1129.9,117.9 1066.9,54.9 1005,116.9 1005,116.9 941.5,53.4 
	877.7,117.2 814,53.4 750.8,116.6 689.1,54.9 627.5,116.5 564.5,53.5 502.5,116.9 439,53.4 375.2,117.2 311.5,53.4 248.3,116.6 
	186.6,54.9 125,116.5 62,53.5 0,115.5 0,157.2 62,95.2 125,158.2 186.6,96.6 248.3,158.3 311.5,95.1 375.2,158.9 439,95.1 
	502.5,157.2 564.5,95.2 627.5,158.2 689.1,96.6 750.8,158.3 814,95.1 877.7,158.9 941.5,95.1 1005,158.6 1005,158.6 1066.9,96.6 
	1129.9,159.6 1191.6,98 1253.2,159.7 1316.4,96.5 1380.2,160.2 1443.9,96.5 1507.4,158.6 1569.4,96.6 1632.4,159.6 1694,98 
	1755.7,159.7 1818.9,96.5 1882.7,160.2 1946.4,96.5 2009.9,160 2009.9,118.2 "/>
<polygon class="st1" points="1946.4,-25.9 1882.7,37.8 1818.9,-25.9 1755.7,37.3 1694,-24.4 1632.4,37.2 1569.4,-25.8 1507.4,37.5 
	1443.9,-25.9 1380.2,37.8 1316.4,-25.9 1253.2,37.3 1191.6,-24.4 1129.9,37.2 1066.9,-25.8 1005,36.2 1005,36.2 941.5,-27.3 
	877.7,36.4 814,-27.3 750.8,35.9 689.1,-25.8 627.5,35.8 564.5,-27.2 502.5,36.2 439,-27.3 375.2,36.4 311.5,-27.3 248.3,35.9 
	186.6,-25.8 125,35.8 62,-27.2 0,34.8 0,76.5 62,14.5 125,77.5 186.6,15.9 248.3,77.6 311.5,14.4 375.2,78.2 439,14.4 502.5,76.5 
	564.5,14.5 627.5,77.5 689.1,15.9 750.8,77.6 814,14.4 877.7,78.2 941.5,14.4 1005,77.9 1005,77.9 1066.9,15.9 1129.9,78.9 
	1191.6,17.3 1253.2,79 1316.4,15.8 1380.2,79.5 1443.9,15.8 1507.4,77.9 1569.4,15.9 1632.4,78.9 1694,17.3 1755.7,79 1818.9,15.8 
	1882.7,79.5 1946.4,15.8 2009.9,79.3 2009.9,37.5 "/>
<polygon class="st0" points="1946.4,178.7 1882.7,242.4 1818.9,178.7 1755.7,241.9 1694,180.2 1632.4,241.8 1569.4,178.8 
	1507.4,240.8 1507.4,242.1 1443.9,178.7 1380.2,242.4 1316.4,178.7 1253.2,241.9 1191.6,180.2 1129.9,241.8 1066.9,178.8 
	1005,240.8 1005,240.8 941.5,177.3 877.7,241 814,177.3 750.8,240.5 689.1,178.8 627.5,240.4 564.5,177.4 502.5,239.4 502.5,240.8 
	439,177.3 375.2,241 311.5,177.3 248.3,240.5 186.6,178.8 125,240.4 62,177.4 0,239.4 0,279.9 62,217.9 125,280.9 186.6,219.3 
	248.3,281 311.5,217.8 375.2,281.5 439,217.8 502.5,281.3 502.5,279.9 564.5,217.9 627.5,280.9 689.1,219.3 750.8,281 814,217.8 
	877.7,281.5 941.5,217.8 1005,281.3 1005,281.3 1066.9,219.3 1129.9,282.3 1191.6,220.7 1253.2,282.4 1316.4,219.2 1380.2,282.9 
	1443.9,219.2 1507.4,282.6 1507.4,281.3 1569.4,219.3 1632.4,282.3 1694,220.7 1755.7,282.4 1818.9,219.2 1882.7,282.9 
	1946.4,219.2 2009.9,282.6 2009.9,242.1 "/>
<polygon class="st1" points="1946.4,136.9 1882.7,200.7 1818.9,136.9 1755.7,200.1 1694,138.4 1632.4,200 1569.4,137 1507.4,200.4 
	1443.9,136.9 1380.2,200.7 1316.4,136.9 1253.2,200.1 1191.6,138.4 1129.9,200 1066.9,137 1005,199 1005,199 941.5,135.6 
	877.7,199.3 814,135.6 750.8,198.8 689.1,137.1 627.5,198.7 564.5,135.6 502.5,199 439,135.6 375.2,199.3 311.5,135.6 248.3,198.8 
	186.6,137.1 125,198.7 62,135.6 0,197.7 0,239.4 62,177.4 125,240.4 186.6,178.8 248.3,240.5 311.5,177.3 375.2,241 439,177.3 
	502.5,239.4 564.5,177.4 627.5,240.4 689.1,178.8 750.8,240.5 814,177.3 877.7,241 941.5,177.3 1005,240.8 1005,240.8 1066.9,178.8 
	1129.9,241.8 1191.6,180.2 1253.2,241.9 1316.4,178.7 1380.2,242.4 1443.9,178.7 1507.4,240.8 1569.4,178.8 1632.4,241.8 
	1694,180.2 1755.7,241.9 1818.9,178.7 1882.7,242.4 1946.4,178.7 2009.9,242.1 2009.9,200.4 "/>
<polygon class="st0" points="1946.4,257.9 1882.7,321.7 1818.9,257.9 1755.7,321.1 1694,259.4 1632.4,321 1569.4,258 1507.4,320 
	1507.4,321.4 1443.9,257.9 1380.2,321.7 1316.4,257.9 1253.2,321.1 1191.6,259.4 1129.9,321 1066.9,258 1005,320 1005,320 
	941.5,256.6 877.7,320.3 814,256.6 750.8,319.8 689.1,258.1 627.5,319.7 564.5,256.6 502.5,318.6 502.5,320 439,256.6 375.2,320.3 
	311.5,256.6 248.3,319.8 186.6,258.1 125,319.7 62,256.6 0,318.6 0,359.1 62,297.1 125,360.2 186.6,298.6 248.3,360.3 311.5,297.1 
	375.2,360.8 439,297.1 502.5,360.5 502.5,359.1 564.5,297.1 627.5,360.2 689.1,298.6 750.8,360.3 814,297.1 877.7,360.8 
	941.5,297.1 1005,360.5 1005,360.5 1066.9,298.5 1129.9,361.5 1191.6,299.9 1253.2,361.6 1316.4,298.4 1380.2,362.2 1443.9,298.4 
	1507.4,361.9 1507.4,360.5 1569.4,298.5 1632.4,361.5 1694,299.9 1755.7,361.6 1818.9,298.4 1882.7,362.2 1946.4,298.4 
	2009.9,361.9 2009.9,321.4 "/>
<polygon class="st0" points="1946.4,340.2 1882.7,403.9 1818.9,340.2 1755.7,403.4 1694,341.7 1632.4,403.3 1569.4,340.2 
	1507.4,402.3 1507.4,403.6 1443.9,340.2 1380.2,403.9 1316.4,340.2 1253.2,403.4 1191.6,341.7 1129.9,403.3 1066.9,340.2 
	1005,402.3 1005,402.3 941.5,338.8 877.7,402.5 814,338.8 750.8,402 689.1,340.3 627.5,401.9 564.5,338.9 502.5,400.9 502.5,402.3 
	439,338.8 375.2,402.5 311.5,338.8 248.3,402 186.6,340.3 125,401.9 62,338.9 0,400.9 0,441.4 62,379.4 125,442.4 186.6,380.8 
	248.3,442.5 311.5,379.3 375.2,443 439,379.3 502.5,442.8 502.5,441.4 564.5,379.4 627.5,442.4 689.1,380.8 750.8,442.5 814,379.3 
	877.7,443 941.5,379.3 1005,442.8 1005,442.8 1066.9,380.8 1129.9,443.8 1191.6,382.2 1253.2,443.9 1316.4,380.7 1380.2,444.4 
	1443.9,380.7 1507.4,444.1 1507.4,442.8 1569.4,380.8 1632.4,443.8 1694,382.2 1755.7,443.9 1818.9,380.7 1882.7,444.4 
	1946.4,380.7 2009.9,444.1 2009.9,403.6 "/>
<polygon class="st1" points="1946.4,298.4 1882.7,362.2 1818.9,298.4 1755.7,361.6 1694,299.9 1632.4,361.5 1569.4,298.5 
	1507.4,361.9 1443.9,298.4 1380.2,362.2 1316.4,298.4 1253.2,361.6 1191.6,299.9 1129.9,361.5 1066.9,298.5 1005,360.5 1005,360.5 
	941.5,297.1 877.7,360.8 814,297.1 750.8,360.3 689.1,298.6 627.5,360.2 564.5,297.1 502.5,360.5 439,297.1 375.2,360.8 
	311.5,297.1 248.3,360.3 186.6,298.6 125,360.2 62,297.1 0,359.1 0,400.9 62,338.9 125,401.9 186.6,340.3 248.3,402 311.5,338.8 
	375.2,402.5 439,338.8 502.5,400.9 564.5,338.9 627.5,401.9 689.1,340.3 750.8,402 814,338.8 877.7,402.5 941.5,338.8 1005,402.3 
	1005,402.3 1066.9,340.2 1129.9,403.3 1191.6,341.7 1253.2,403.4 1316.4,340.2 1380.2,403.9 1443.9,340.2 1507.4,402.3 
	1569.4,340.2 1632.4,403.3 1694,341.7 1755.7,403.4 1818.9,340.2 1882.7,403.9 1946.4,340.2 2009.9,403.6 2009.9,361.9 "/>
<polygon class="st1" points="1946.4,217.7 1882.7,281.5 1818.9,217.7 1755.7,280.9 1694,219.2 1632.4,280.8 1569.4,217.8 
	1507.4,281.2 1443.9,217.7 1380.2,281.5 1316.4,217.7 1253.2,280.9 1191.6,219.2 1129.9,280.8 1066.9,217.8 1005,279.8 1005,279.8 
	941.5,216.3 877.7,280.1 814,216.3 750.8,279.5 689.1,217.9 627.5,279.5 564.5,216.4 502.5,279.8 439,216.3 375.2,280.1 
	311.5,216.3 248.3,279.5 186.6,217.9 125,279.5 62,216.4 0,278.4 0,320.2 62,258.2 125,321.2 186.6,259.6 248.3,321.3 311.5,258.1 
	375.2,321.8 439,258.1 502.5,320.2 564.5,258.2 627.5,321.2 689.1,259.6 750.8,321.3 814,258.1 877.7,321.8 941.5,258.1 1005,321.5 
	1005,321.5 1066.9,259.5 1129.9,322.5 1191.6,261 1253.2,322.6 1316.4,259.5 1380.2,323.2 1443.9,259.5 1507.4,321.5 1569.4,259.5 
	1632.4,322.5 1694,261 1755.7,322.6 1818.9,259.5 1882.7,323.2 1946.4,259.5 2009.9,322.9 2009.9,281.2 "/>
<polygon class="st0" points="1946.4,422.3 1882.7,486.1 1818.9,422.3 1755.7,485.5 1694,423.8 1632.4,485.4 1569.4,422.4 
	1507.4,484.4 1507.4,485.8 1443.9,422.3 1380.2,486.1 1316.4,422.3 1253.2,485.5 1191.6,423.8 1129.9,485.4 1066.9,422.4 
	1005,484.4 1005,484.4 941.5,420.9 877.7,484.7 814,420.9 750.8,484.1 689.1,422.4 627.5,484 564.5,421 502.5,483 502.5,484.4 
	439,420.9 375.2,484.7 311.5,420.9 248.3,484.1 186.6,422.4 125,484 62,421 0,483 0,523.5 62,461.5 125,524.5 186.6,462.9 
	248.3,524.6 311.5,461.4 375.2,525.2 439,461.4 502.5,524.9 502.5,523.5 564.5,461.5 627.5,524.5 689.1,462.9 750.8,524.6 
	814,461.4 877.7,525.2 941.5,461.4 1005,524.9 1005,524.9 1066.9,462.9 1129.9,525.9 1191.6,464.3 1253.2,526 1316.4,462.8 
	1380.2,526.6 1443.9,462.8 1507.4,526.3 1507.4,524.9 1569.4,462.9 1632.4,525.9 1694,464.3 1755.7,526 1818.9,462.8 1882.7,526.6 
	1946.4,462.8 2009.9,526.3 2009.9,485.8 "/>
<polygon class="st1" points="1946.4,380.6 1882.7,444.3 1818.9,380.6 1755.7,443.8 1694,382.1 1632.4,443.7 1569.4,380.7 
	1507.4,444.1 1443.9,380.6 1380.2,444.3 1316.4,380.6 1253.2,443.8 1191.6,382.1 1129.9,443.7 1066.9,380.7 1005,442.7 1005,442.7 
	941.5,379.2 877.7,443 814,379.2 750.8,442.4 689.1,380.7 627.5,442.3 564.5,379.3 502.5,442.7 439,379.2 375.2,443 311.5,379.2 
	248.3,442.4 186.6,380.7 125,442.3 62,379.3 0,441.3 0,483 62,421 125,484 186.6,422.4 248.3,484.1 311.5,420.9 375.2,484.7 
	439,420.9 502.5,483 564.5,421 627.5,484 689.1,422.4 750.8,484.1 814,420.9 877.7,484.7 941.5,420.9 1005,484.4 1005,484.4 
	1066.9,422.4 1129.9,485.4 1191.6,423.8 1253.2,485.5 1316.4,422.3 1380.2,486.1 1443.9,422.3 1507.4,484.4 1569.4,422.4 
	1632.4,485.4 1694,423.8 1755.7,485.5 1818.9,422.3 1882.7,486.1 1946.4,422.3 2009.9,485.8 2009.9,444.1 "/>
<polygon class="st0" points="1946.4,501.6 1882.7,565.3 1818.9,501.6 1755.7,564.8 1694,503.1 1632.4,564.7 1569.4,501.7 
	1507.4,563.7 1507.4,565.1 1443.9,501.6 1380.2,565.3 1316.4,501.6 1253.2,564.8 1191.6,503.1 1129.9,564.7 1066.9,501.7 
	1005,563.7 1005,563.7 941.5,500.2 877.7,564 814,500.2 750.8,563.4 689.1,501.7 627.5,563.3 564.5,500.3 502.5,562.3 502.5,563.7 
	439,500.2 375.2,564 311.5,500.2 248.3,563.4 186.6,501.7 125,563.3 62,500.3 0,562.3 0,602.8 62,540.8 125,603.8 186.6,542.2 
	248.3,603.9 311.5,540.7 375.2,604.5 439,540.7 502.5,604.2 502.5,602.8 564.5,540.8 627.5,603.8 689.1,542.2 750.8,603.9 
	814,540.7 877.7,604.5 941.5,540.7 1005,604.2 1005,604.2 1066.9,542.2 1129.9,605.2 1191.6,543.6 1253.2,605.3 1316.4,542.1 
	1380.2,605.8 1443.9,542.1 1507.4,605.6 1507.4,604.2 1569.4,542.2 1632.4,605.2 1694,543.6 1755.7,605.3 1818.9,542.1 
	1882.7,605.8 1946.4,542.1 2009.9,605.6 2009.9,565.1 "/>
<polygon class="st0" points="1946.4,583.8 1882.7,647.6 1818.9,583.8 1755.7,647 1694,585.3 1632.4,646.9 1569.4,583.9 
	1507.4,645.9 1507.4,647.3 1443.9,583.8 1380.2,647.6 1316.4,583.8 1253.2,647 1191.6,585.3 1129.9,646.9 1066.9,583.9 1005,645.9 
	1005,645.9 941.5,582.4 877.7,646.2 814,582.4 750.8,645.6 689.1,583.9 627.5,645.5 564.5,582.5 502.5,644.5 502.5,645.9 439,582.4 
	375.2,646.2 311.5,582.4 248.3,645.6 186.6,583.9 125,645.5 62,582.5 0,644.5 0,685 62,623 125,686 186.6,624.4 248.3,686.1 
	311.5,622.9 375.2,686.7 439,622.9 502.5,686.4 502.5,685 564.5,623 627.5,686 689.1,624.4 750.8,686.1 814,622.9 877.7,686.7 
	941.5,622.9 1005,686.4 1005,686.4 1066.9,624.4 1129.9,687.4 1191.6,625.8 1253.2,687.5 1316.4,624.3 1380.2,688.1 1443.9,624.3 
	1507.4,687.8 1507.4,686.4 1569.4,624.4 1632.4,687.4 1694,625.8 1755.7,687.5 1818.9,624.3 1882.7,688.1 1946.4,624.3 
	2009.9,687.8 2009.9,647.3 "/>
<polygon class="st1" points="1946.4,542.1 1882.7,605.8 1818.9,542.1 1755.7,605.3 1694,543.6 1632.4,605.2 1569.4,542.2 
	1507.4,605.6 1443.9,542.1 1380.2,605.8 1316.4,542.1 1253.2,605.3 1191.6,543.6 1129.9,605.2 1066.9,542.2 1005,604.2 1005,604.2 
	941.5,540.7 877.7,604.5 814,540.7 750.8,603.9 689.1,542.2 627.5,603.8 564.5,540.8 502.5,604.2 439,540.7 375.2,604.5 
	311.5,540.7 248.3,603.9 186.6,542.2 125,603.8 62,540.8 0,602.8 0,644.5 62,582.5 125,645.5 186.6,583.9 248.3,645.6 311.5,582.4 
	375.2,646.2 439,582.4 502.5,644.5 564.5,582.5 627.5,645.5 689.1,583.9 750.8,645.6 814,582.4 877.7,646.2 941.5,582.4 1005,645.9 
	1005,645.9 1066.9,583.9 1129.9,646.9 1191.6,585.3 1253.2,647 1316.4,583.8 1380.2,647.6 1443.9,583.8 1507.4,645.9 1569.4,583.9 
	1632.4,646.9 1694,585.3 1755.7,647 1818.9,583.8 1882.7,647.6 1946.4,583.8 2009.9,647.3 2009.9,605.6 "/>
<polygon class="st1" points="1946.4,461.4 1882.7,525.1 1818.9,461.4 1755.7,524.6 1694,462.9 1632.4,524.5 1569.4,461.5 
	1507.4,524.8 1443.9,461.4 1380.2,525.1 1316.4,461.4 1253.2,524.6 1191.6,462.9 1129.9,524.5 1066.9,461.5 1005,523.5 1005,523.5 
	941.5,460 877.7,523.8 814,460 750.8,523.2 689.1,461.5 627.5,523.1 564.5,460.1 502.5,523.5 439,460 375.2,523.8 311.5,460 
	248.3,523.2 186.6,461.5 125,523.1 62,460.1 0,522.1 0,563.8 62,501.8 125,564.8 186.6,503.2 248.3,564.9 311.5,501.7 375.2,565.5 
	439,501.7 502.5,563.8 564.5,501.8 627.5,564.8 689.1,503.2 750.8,564.9 814,501.7 877.7,565.5 941.5,501.7 1005,565.2 1005,565.2 
	1066.9,503.2 1129.9,566.2 1191.6,504.6 1253.2,566.3 1316.4,503.1 1380.2,566.8 1443.9,503.1 1507.4,565.2 1569.4,503.2 
	1632.4,566.2 1694,504.6 1755.7,566.3 1818.9,503.1 1882.7,566.8 1946.4,503.1 2009.9,566.6 2009.9,524.8 "/>
<polygon class="st0" points="1946.4,666 1882.7,729.7 1818.9,666 1755.7,729.2 1694,667.5 1632.4,729.1 1569.4,666.1 1507.4,728.1 
	1507.4,729.4 1443.9,666 1380.2,729.7 1316.4,666 1253.2,729.2 1191.6,667.5 1129.9,729.1 1066.9,666.1 1005,728.1 1005,728.1 
	941.5,664.6 877.7,728.3 814,664.6 750.8,727.8 689.1,666.1 627.5,727.7 564.5,664.7 502.5,726.7 502.5,728.1 439,664.6 
	375.2,728.3 311.5,664.6 248.3,727.8 186.6,666.1 125,727.7 62,664.7 0,726.7 0,767.2 62,705.2 125,768.2 186.6,706.6 248.3,768.3 
	311.5,705.1 375.2,768.8 439,705.1 502.5,768.6 502.5,767.2 564.5,705.2 627.5,768.2 689.1,706.6 750.8,768.3 814,705.1 
	877.7,768.8 941.5,705.1 1005,768.6 1005,768.6 1066.9,706.6 1129.9,769.6 1191.6,708 1253.2,769.7 1316.4,706.5 1380.2,770.2 
	1443.9,706.5 1507.4,769.9 1507.4,768.6 1569.4,706.6 1632.4,769.6 1694,708 1755.7,769.7 1818.9,706.5 1882.7,770.2 1946.4,706.5 
	2009.9,769.9 2009.9,729.4 "/>
<polygon class="st1" points="1946.4,624.2 1882.7,688 1818.9,624.2 1755.7,687.4 1694,625.7 1632.4,687.3 1569.4,624.3 
	1507.4,687.7 1443.9,624.2 1380.2,688 1316.4,624.2 1253.2,687.4 1191.6,625.7 1129.9,687.3 1066.9,624.3 1005,686.3 1005,686.3 
	941.5,622.9 877.7,686.6 814,622.9 750.8,686.1 689.1,624.4 627.5,686 564.5,623 502.5,686.3 439,622.9 375.2,686.6 311.5,622.9 
	248.3,686.1 186.6,624.4 125,686 62,623 0,685 0,726.7 62,664.7 125,727.7 186.6,666.1 248.3,727.8 311.5,664.6 375.2,728.3 
	439,664.6 502.5,726.7 564.5,664.7 627.5,727.7 689.1,666.1 750.8,727.8 814,664.6 877.7,728.3 941.5,664.6 1005,728.1 1005,728.1 
	1066.9,666.1 1129.9,729.1 1191.6,667.5 1253.2,729.2 1316.4,666 1380.2,729.7 1443.9,666 1507.4,728.1 1569.4,666.1 1632.4,729.1 
	1694,667.5 1755.7,729.2 1818.9,666 1882.7,729.7 1946.4,666 2009.9,729.4 2009.9,687.7 "/>
<polygon class="st0" points="1946.4,745.2 1882.7,809 1818.9,745.2 1755.7,808.4 1694,746.7 1632.4,808.3 1569.4,745.3 
	1507.4,807.3 1507.4,808.7 1443.9,745.2 1380.2,809 1316.4,745.2 1253.2,808.4 1191.6,746.7 1129.9,808.3 1066.9,745.3 1005,807.3 
	1005,807.3 941.5,743.9 877.7,807.6 814,743.9 750.8,807.1 689.1,745.4 627.5,807 564.5,744 502.5,806 502.5,807.3 439,743.9 
	375.2,807.6 311.5,743.9 248.3,807.1 186.6,745.4 125,807 62,744 0,806 0,846.5 62,784.5 125,847.5 186.6,785.9 248.3,847.6 
	311.5,784.4 375.2,848.1 439,784.4 502.5,847.8 502.5,846.5 564.5,784.5 627.5,847.5 689.1,785.9 750.8,847.6 814,784.4 
	877.7,848.1 941.5,784.4 1005,847.8 1005,847.8 1066.9,785.8 1129.9,848.8 1191.6,787.2 1253.2,848.9 1316.4,785.7 1380.2,849.5 
	1443.9,785.7 1507.4,849.2 1507.4,847.8 1569.4,785.8 1632.4,848.8 1694,787.2 1755.7,848.9 1818.9,785.7 1882.7,849.5 
	1946.4,785.7 2009.9,849.2 2009.9,808.7 "/>
<polygon class="st0" points="1946.4,827.5 1882.7,891.2 1818.9,827.5 1755.7,890.7 1694,829 1632.4,890.6 1569.4,827.6 
	1507.4,889.6 1507.4,890.9 1443.9,827.5 1380.2,891.2 1316.4,827.5 1253.2,890.7 1191.6,829 1129.9,890.6 1066.9,827.6 1005,889.6 
	1005,889.6 941.5,826.1 877.7,889.8 814,826.1 750.8,889.3 689.1,827.6 627.5,889.2 564.5,826.2 502.5,888.2 502.5,889.6 439,826.1 
	375.2,889.8 311.5,826.1 248.3,889.3 186.6,827.6 125,889.2 62,826.2 0,888.2 0,928.7 62,866.7 125,929.7 186.6,868.1 248.3,929.8 
	311.5,866.6 375.2,930.3 439,866.6 502.5,930.1 502.5,928.7 564.5,866.7 627.5,929.7 689.1,868.1 750.8,929.8 814,866.6 
	877.7,930.3 941.5,866.6 1005,930.1 1005,930.1 1066.9,868.1 1129.9,931.1 1191.6,869.5 1253.2,931.2 1316.4,868 1380.2,931.7 
	1443.9,868 1507.4,931.4 1507.4,930.1 1569.4,868.1 1632.4,931.1 1694,869.5 1755.7,931.2 1818.9,868 1882.7,931.7 1946.4,868 
	2009.9,931.4 2009.9,890.9 "/>
<polygon class="st1" points="1946.4,785.7 1882.7,849.5 1818.9,785.7 1755.7,848.9 1694,787.2 1632.4,848.8 1569.4,785.8 
	1507.4,849.2 1443.9,785.7 1380.2,849.5 1316.4,785.7 1253.2,848.9 1191.6,787.2 1129.9,848.8 1066.9,785.8 1005,847.8 1005,847.8 
	941.5,784.4 877.7,848.1 814,784.4 750.8,847.6 689.1,785.9 627.5,847.5 564.5,784.5 502.5,847.8 439,784.4 375.2,848.1 
	311.5,784.4 248.3,847.6 186.6,785.9 125,847.5 62,784.5 0,846.5 0,888.2 62,826.2 125,889.2 186.6,827.6 248.3,889.3 311.5,826.1 
	375.2,889.8 439,826.1 502.5,888.2 564.5,826.2 627.5,889.2 689.1,827.6 750.8,889.3 814,826.1 877.7,889.8 941.5,826.1 1005,889.6 
	1005,889.6 1066.9,827.6 1129.9,890.6 1191.6,829 1253.2,890.7 1316.4,827.5 1380.2,891.2 1443.9,827.5 1507.4,889.6 1569.4,827.6 
	1632.4,890.6 1694,829 1755.7,890.7 1818.9,827.5 1882.7,891.2 1946.4,827.5 2009.9,890.9 2009.9,849.2 "/>
<polygon class="st1" points="1946.4,705 1882.7,768.8 1818.9,705 1755.7,768.2 1694,706.5 1632.4,768.1 1569.4,705.1 1507.4,768.5 
	1443.9,705 1380.2,768.8 1316.4,705 1253.2,768.2 1191.6,706.5 1129.9,768.1 1066.9,705.1 1005,767.1 1005,767.1 941.5,703.7 
	877.7,767.4 814,703.7 750.8,766.8 689.1,705.2 627.5,766.8 564.5,703.8 502.5,767.1 439,703.7 375.2,767.4 311.5,703.7 
	248.3,766.8 186.6,705.2 125,766.8 62,703.8 0,765.8 0,807.5 62,745.5 125,808.5 186.6,746.9 248.3,808.6 311.5,745.4 375.2,809.1 
	439,745.4 502.5,807.5 564.5,745.5 627.5,808.5 689.1,746.9 750.8,808.6 814,745.4 877.7,809.1 941.5,745.4 1005,808.8 1005,808.8 
	1066.9,746.8 1129.9,809.8 1191.6,748.3 1253.2,810 1316.4,746.8 1380.2,810.5 1443.9,746.8 1507.4,808.8 1569.4,746.8 
	1632.4,809.8 1694,748.3 1755.7,810 1818.9,746.8 1882.7,810.5 1946.4,746.8 2009.9,810.2 2009.9,768.5 "/>
<polygon class="st0" points="1946.4,909.6 1882.7,973.4 1818.9,909.6 1755.7,972.8 1694,911.1 1632.4,972.7 1569.4,909.7 
	1507.4,971.7 1507.4,973.1 1443.9,909.6 1380.2,973.4 1316.4,909.6 1253.2,972.8 1191.6,911.1 1129.9,972.7 1066.9,909.7 
	1005,971.7 1005,971.7 941.5,908.2 877.7,972 814,908.2 750.8,971.4 689.1,909.8 627.5,971.3 564.5,908.3 502.5,970.3 502.5,971.7 
	439,908.2 375.2,972 311.5,908.2 248.3,971.4 186.6,909.8 125,971.3 62,908.3 0,970.3 0,1010.8 62,948.8 125,1011.8 186.6,950.2 
	248.3,1011.9 311.5,948.7 375.2,1012.5 439,948.7 502.5,1012.2 502.5,1010.8 564.5,948.8 627.5,1011.8 689.1,950.2 750.8,1011.9 
	814,948.7 877.7,1012.5 941.5,948.7 1005,1012.2 1005,1012.2 1066.9,950.2 1129.9,1013.2 1191.6,951.6 1253.2,1013.3 1316.4,950.1 
	1380.2,1013.9 1443.9,950.1 1507.4,1013.6 1507.4,1012.2 1569.4,950.2 1632.4,1013.2 1694,951.6 1755.7,1013.3 1818.9,950.1 
	1882.7,1013.9 1946.4,950.1 2009.9,1013.6 2009.9,973.1 "/>
<polygon class="st1" points="1946.4,867.9 1882.7,931.6 1818.9,867.9 1755.7,931.1 1694,869.4 1632.4,931 1569.4,868 1507.4,931.4 
	1443.9,867.9 1380.2,931.6 1316.4,867.9 1253.2,931.1 1191.6,869.4 1129.9,931 1066.9,868 1005,930 1005,930 941.5,866.5 
	877.7,930.3 814,866.5 750.8,929.7 689.1,868 627.5,929.6 564.5,866.6 502.5,930 439,866.5 375.2,930.3 311.5,866.5 248.3,929.7 
	186.6,868 125,929.6 62,866.6 0,928.6 0,970.3 62,908.3 125,971.3 186.6,909.8 248.3,971.4 311.5,908.2 375.2,972 439,908.2 
	502.5,970.3 564.5,908.3 627.5,971.3 689.1,909.8 750.8,971.4 814,908.2 877.7,972 941.5,908.2 1005,971.7 1005,971.7 1066.9,909.7 
	1129.9,972.7 1191.6,911.1 1253.2,972.8 1316.4,909.6 1380.2,973.4 1443.9,909.6 1507.4,971.7 1569.4,909.7 1632.4,972.7 
	1694,911.1 1755.7,972.8 1818.9,909.6 1882.7,973.4 1946.4,909.6 2009.9,973.1 2009.9,931.4 "/>
<polygon class="st0" points="1946.4,988.9 1882.7,1052.6 1818.9,988.9 1755.7,1052.1 1694,990.4 1632.4,1052 1569.4,989 
	1507.4,1051 1507.4,1052.4 1443.9,988.9 1380.2,1052.6 1316.4,988.9 1253.2,1052.1 1191.6,990.4 1129.9,1052 1066.9,989 1005,1051 
	1005,1051 941.5,987.5 877.7,1051.3 814,987.5 750.8,1050.7 689.1,989 627.5,1050.6 564.5,987.6 502.5,1049.6 502.5,1051 439,987.5 
	375.2,1051.3 311.5,987.5 248.3,1050.7 186.6,989 125,1050.6 62,987.6 0,1049.6 0,1090.1 62,1028.1 125,1091.1 186.6,1029.5 
	248.3,1091.2 311.5,1028 375.2,1091.8 439,1028 502.5,1091.5 502.5,1090.1 564.5,1028.1 627.5,1091.1 689.1,1029.5 750.8,1091.2 
	814,1028 877.7,1091.8 941.5,1028 1005,1091.5 1005,1091.5 1066.9,1029.5 1129.9,1092.5 1191.6,1030.9 1253.2,1092.6 1316.4,1029.4 
	1380.2,1093.1 1443.9,1029.4 1507.4,1092.9 1507.4,1091.5 1569.4,1029.5 1632.4,1092.5 1694,1030.9 1755.7,1092.6 1818.9,1029.4 
	1882.7,1093.1 1946.4,1029.4 2009.9,1092.9 2009.9,1052.4 "/>
<polygon class="st1" points="1946.4,947.2 1882.7,1010.9 1818.9,947.2 1755.7,1010.4 1694,948.7 1632.4,1010.3 1569.4,947.2 
	1507.4,1010.6 1443.9,947.2 1380.2,1010.9 1316.4,947.2 1253.2,1010.4 1191.6,948.7 1129.9,1010.3 1066.9,947.2 1005,1009.3 
	1005,1009.3 941.5,945.8 877.7,1009.5 814,945.8 750.8,1009 689.1,947.3 627.5,1008.9 564.5,945.9 502.5,1009.3 439,945.8 
	375.2,1009.5 311.5,945.8 248.3,1009 186.6,947.3 125,1008.9 62,945.9 0,1007.9 0,1049.6 62,987.6 125,1050.6 186.6,989 
	248.3,1050.7 311.5,987.5 375.2,1051.3 439,987.5 502.5,1049.6 564.5,987.6 627.5,1050.6 689.1,989 750.8,1050.7 814,987.5 
	877.7,1051.3 941.5,987.5 1005,1051 1005,1051 1066.9,989 1129.9,1052 1191.6,990.4 1253.2,1052.1 1316.4,988.9 1380.2,1052.6 
	1443.9,988.9 1507.4,1051 1569.4,989 1632.4,1052 1694,990.4 1755.7,1052.1 1818.9,988.9 1882.7,1052.6 1946.4,988.9 2009.9,1052.4 
	2009.9,1010.6 "/>
<polygon class="st0" points="1946.4,1067.1 1882.7,1130.8 1818.9,1067.1 1755.7,1130.3 1694,1068.6 1632.4,1130.2 1569.4,1067.2 
	1507.4,1129.2 1507.4,1130.5 1443.9,1067.1 1380.2,1130.8 1316.4,1067.1 1253.2,1130.3 1191.6,1068.6 1129.9,1130.2 1066.9,1067.2 
	1005,1129.2 1005,1129.2 941.5,1065.7 877.7,1129.4 814,1065.7 750.8,1128.9 689.1,1067.2 627.5,1128.8 564.5,1065.8 502.5,1127.8 
	502.5,1129.2 439,1065.7 375.2,1129.4 311.5,1065.7 248.3,1128.9 186.6,1067.2 125,1128.8 62,1065.8 0,1127.8 0,1168.3 62,1106.3 
	125,1169.3 186.6,1107.7 248.3,1169.4 311.5,1106.2 375.2,1169.9 439,1106.2 502.5,1169.7 502.5,1168.3 564.5,1106.3 627.5,1169.3 
	689.1,1107.7 750.8,1169.4 814,1106.2 877.7,1169.9 941.5,1106.2 1005,1169.7 1005,1169.7 1066.9,1107.7 1129.9,1170.7 
	1191.6,1109.1 1253.2,1170.8 1316.4,1107.6 1380.2,1171.3 1443.9,1107.6 1507.4,1171 1507.4,1169.7 1569.4,1107.7 1632.4,1170.7 
	1694,1109.1 1755.7,1170.8 1818.9,1107.6 1882.7,1171.3 1946.4,1107.6 2009.9,1171 2009.9,1130.5 "/>
<polygon class="st0" points="1946.4,1149.3 1882.7,1213 1818.9,1149.3 1755.7,1212.5 1694,1150.8 1632.4,1212.4 1569.4,1149.4 
	1507.4,1211.4 1507.4,1212.8 1443.9,1149.3 1380.2,1213 1316.4,1149.3 1253.2,1212.5 1191.6,1150.8 1129.9,1212.4 1066.9,1149.4 
	1005,1211.4 1005,1211.4 941.5,1147.9 877.7,1211.7 814,1147.9 750.8,1211.1 689.1,1149.4 627.5,1211 564.5,1148 502.5,1210 
	502.5,1211.4 439,1147.9 375.2,1211.7 311.5,1147.9 248.3,1211.1 186.6,1149.4 125,1211 62,1148 0,1210 0,1250.5 62,1188.5 
	125,1251.5 186.6,1189.9 248.3,1251.6 311.5,1188.4 375.2,1252.2 439,1188.4 502.5,1251.9 502.5,1250.5 564.5,1188.5 627.5,1251.5 
	689.1,1189.9 750.8,1251.6 814,1188.4 877.7,1252.2 941.5,1188.4 1005,1251.9 1005,1251.9 1066.9,1189.9 1129.9,1252.9 
	1191.6,1191.3 1253.2,1253 1316.4,1189.8 1380.2,1253.5 1443.9,1189.8 1507.4,1253.3 1507.4,1251.9 1569.4,1189.9 1632.4,1252.9 
	1694,1191.3 1755.7,1253 1818.9,1189.8 1882.7,1253.5 1946.4,1189.8 2009.9,1253.3 2009.9,1212.8 "/>
<polygon class="st1" points="1946.4,1107.6 1882.7,1171.3 1818.9,1107.6 1755.7,1170.8 1694,1109.1 1632.4,1170.7 1569.4,1107.7 
	1507.4,1171 1443.9,1107.6 1380.2,1171.3 1316.4,1107.6 1253.2,1170.8 1191.6,1109.1 1129.9,1170.7 1066.9,1107.7 1005,1169.7 
	1005,1169.7 941.5,1106.2 877.7,1169.9 814,1106.2 750.8,1169.4 689.1,1107.7 627.5,1169.3 564.5,1106.3 502.5,1169.7 439,1106.2 
	375.2,1169.9 311.5,1106.2 248.3,1169.4 186.6,1107.7 125,1169.3 62,1106.3 0,1168.3 0,1210 62,1148 125,1211 186.6,1149.4 
	248.3,1211.1 311.5,1147.9 375.2,1211.7 439,1147.9 502.5,1210 564.5,1148 627.5,1211 689.1,1149.4 750.8,1211.1 814,1147.9 
	877.7,1211.7 941.5,1147.9 1005,1211.4 1005,1211.4 1066.9,1149.4 1129.9,1212.4 1191.6,1150.8 1253.2,1212.5 1316.4,1149.3 
	1380.2,1213 1443.9,1149.3 1507.4,1211.4 1569.4,1149.4 1632.4,1212.4 1694,1150.8 1755.7,1212.5 1818.9,1149.3 1882.7,1213 
	1946.4,1149.3 2009.9,1212.8 2009.9,1171 "/>
<polygon class="st1" points="1946.4,1026.8 1882.7,1090.6 1818.9,1026.8 1755.7,1090.1 1694,1028.3 1632.4,1089.9 1569.4,1026.9 
	1507.4,1090.3 1443.9,1026.8 1380.2,1090.6 1316.4,1026.8 1253.2,1090.1 1191.6,1028.3 1129.9,1089.9 1066.9,1026.9 1005,1088.9 
	1005,1088.9 941.5,1025.5 877.7,1089.2 814,1025.5 750.8,1088.7 689.1,1027 627.5,1088.6 564.5,1025.6 502.5,1088.9 439,1025.5 
	375.2,1089.2 311.5,1025.5 248.3,1088.7 186.6,1027 125,1088.6 62,1025.6 0,1087.6 0,1129.3 62,1067.3 125,1130.3 186.6,1068.7 
	248.3,1130.4 311.5,1067.2 375.2,1130.9 439,1067.2 502.5,1129.3 564.5,1067.3 627.5,1130.3 689.1,1068.7 750.8,1130.4 814,1067.2 
	877.7,1130.9 941.5,1067.2 1005,1130.7 1005,1130.7 1066.9,1068.7 1129.9,1131.7 1191.6,1070.1 1253.2,1131.8 1316.4,1068.6 
	1380.2,1132.3 1443.9,1068.6 1507.4,1130.7 1569.4,1068.7 1632.4,1131.7 1694,1070.1 1755.7,1131.8 1818.9,1068.6 1882.7,1132.3 
	1946.4,1068.6 2009.9,1132.1 2009.9,1090.3 "/>
<polygon class="st0" points="1946.4,1231.4 1882.7,1295.2 1818.9,1231.4 1755.7,1294.6 1694,1232.9 1632.4,1294.5 1569.4,1231.5 
	1507.4,1293.5 1507.4,1294.9 1443.9,1231.4 1380.2,1295.2 1316.4,1231.4 1253.2,1294.6 1191.6,1232.9 1129.9,1294.5 1066.9,1231.5 
	1005,1293.5 1005,1293.5 941.5,1230.1 877.7,1293.8 814,1230.1 750.8,1293.3 689.1,1231.6 627.5,1293.2 564.5,1230.2 502.5,1292.2 
	502.5,1293.5 439,1230.1 375.2,1293.8 311.5,1230.1 248.3,1293.3 186.6,1231.6 125,1293.2 62,1230.2 0,1292.2 0,1332.7 62,1270.7 
	125,1333.7 186.6,1272.1 248.3,1333.8 311.5,1270.6 375.2,1334.3 439,1270.6 502.5,1334.1 502.5,1332.7 564.5,1270.7 627.5,1333.7 
	689.1,1272.1 750.8,1333.8 814,1270.6 877.7,1334.3 941.5,1270.6 1005,1334.1 1005,1334 1066.9,1272 1129.9,1335 1191.6,1273.4 
	1253.2,1335.1 1316.4,1271.9 1380.2,1335.7 1443.9,1271.9 1507.4,1335.4 1507.4,1334 1569.4,1272 1632.4,1335 1694,1273.4 
	1755.7,1335.1 1818.9,1271.9 1882.7,1335.7 1946.4,1271.9 2009.9,1335.4 2009.9,1294.9 "/>
<polygon class="st1" points="1946.4,1189.7 1882.7,1253.5 1818.9,1189.7 1755.7,1252.9 1694,1191.2 1632.4,1252.8 1569.4,1189.8 
	1507.4,1253.2 1443.9,1189.7 1380.2,1253.5 1316.4,1189.7 1253.2,1252.9 1191.6,1191.2 1129.9,1252.8 1066.9,1189.8 1005,1251.8 
	1005,1251.8 941.5,1188.3 877.7,1252.1 814,1188.3 750.8,1251.5 689.1,1189.8 627.5,1251.4 564.5,1188.4 502.5,1251.8 439,1188.3 
	375.2,1252.1 311.5,1188.3 248.3,1251.5 186.6,1189.8 125,1251.4 62,1188.4 0,1250.4 0,1292.2 62,1230.2 125,1293.2 186.6,1231.6 
	248.3,1293.3 311.5,1230.1 375.2,1293.8 439,1230.1 502.5,1292.2 564.5,1230.2 627.5,1293.2 689.1,1231.6 750.8,1293.3 814,1230.1 
	877.7,1293.8 941.5,1230.1 1005,1293.5 1005,1293.5 1066.9,1231.5 1129.9,1294.5 1191.6,1232.9 1253.2,1294.6 1316.4,1231.4 
	1380.2,1295.2 1443.9,1231.4 1507.4,1293.5 1569.4,1231.5 1632.4,1294.5 1694,1232.9 1755.7,1294.6 1818.9,1231.4 1882.7,1295.2 
	1946.4,1231.4 2009.9,1294.9 2009.9,1253.2 "/>
<polygon class="st0" points="1946.4,1310.7 1882.7,1374.5 1818.9,1310.7 1755.7,1373.9 1694,1312.2 1632.4,1373.8 1569.4,1310.8 
	1507.4,1372.8 1507.4,1374.2 1443.9,1310.7 1380.2,1374.5 1316.4,1310.7 1253.2,1373.9 1191.6,1312.2 1129.9,1373.8 1066.9,1310.8 
	1005,1372.8 1005,1372.8 941.5,1309.3 877.7,1373.1 814,1309.3 750.8,1372.5 689.1,1310.8 627.5,1372.4 564.5,1309.4 502.5,1371.4 
	502.5,1372.8 439,1309.3 375.2,1373.1 311.5,1309.3 248.3,1372.5 186.6,1310.8 125,1372.4 62,1309.4 0,1371.4 0,1411.9 62,1349.9 
	125,1412.9 186.6,1351.3 248.3,1413 311.5,1349.8 375.2,1413.6 439,1349.8 502.5,1413.3 502.5,1411.9 564.5,1349.9 627.5,1412.9 
	689.1,1351.3 750.8,1413 814,1349.8 877.7,1413.6 941.5,1349.8 1005,1413.3 1005,1413.3 1066.9,1351.3 1129.9,1414.3 1191.6,1352.7 
	1253.2,1414.4 1316.4,1351.2 1380.2,1415 1443.9,1351.2 1507.4,1414.7 1507.4,1413.3 1569.4,1351.3 1632.4,1414.3 1694,1352.7 
	1755.7,1414.4 1818.9,1351.2 1882.7,1415 1946.4,1351.2 2009.9,1414.7 2009.9,1374.2 "/>
<polygon class="st0" points="1946.4,1392.9 1882.7,1456.7 1818.9,1392.9 1755.7,1456.1 1694,1394.4 1632.4,1456 1569.4,1393 
	1507.4,1455 1507.4,1456.4 1443.9,1392.9 1380.2,1456.7 1316.4,1392.9 1253.2,1456.1 1191.6,1394.4 1129.9,1456 1066.9,1393 
	1005,1455 1005,1455 941.5,1391.6 877.7,1455.3 814,1391.6 750.8,1454.8 689.1,1393.1 627.5,1454.7 564.5,1391.7 502.5,1453.7 
	502.5,1455 439,1391.6 375.2,1455.3 311.5,1391.6 248.3,1454.8 186.6,1393.1 125,1454.7 62,1391.7 0,1453.7 0,1494.2 62,1432.2 
	125,1495.2 186.6,1433.6 248.3,1495.3 311.5,1432.1 375.2,1495.8 439,1432.1 502.5,1495.6 502.5,1494.2 564.5,1432.2 627.5,1495.2 
	689.1,1433.6 750.8,1495.3 814,1432.1 877.7,1495.8 941.5,1432.1 1005,1495.6 1005,1495.5 1066.9,1433.5 1129.9,1496.5 
	1191.6,1434.9 1253.2,1496.6 1316.4,1433.4 1380.2,1497.2 1443.9,1433.4 1507.4,1496.9 1507.4,1495.5 1569.4,1433.5 1632.4,1496.5 
	1694,1434.9 1755.7,1496.6 1818.9,1433.4 1882.7,1497.2 1946.4,1433.4 2009.9,1496.9 2009.9,1456.4 "/>
<polygon class="st1" points="1946.4,1351.2 1882.7,1415 1818.9,1351.2 1755.7,1414.4 1694,1352.7 1632.4,1414.3 1569.4,1351.3 
	1507.4,1414.7 1443.9,1351.2 1380.2,1415 1316.4,1351.2 1253.2,1414.4 1191.6,1352.7 1129.9,1414.3 1066.9,1351.3 1005,1413.3 
	1005,1413.3 941.5,1349.8 877.7,1413.6 814,1349.8 750.8,1413 689.1,1351.3 627.5,1412.9 564.5,1349.9 502.5,1413.3 439,1349.8 
	375.2,1413.6 311.5,1349.8 248.3,1413 186.6,1351.3 125,1412.9 62,1349.9 0,1411.9 0,1453.7 62,1391.7 125,1454.7 186.6,1393.1 
	248.3,1454.8 311.5,1391.6 375.2,1455.3 439,1391.6 502.5,1453.7 564.5,1391.7 627.5,1454.7 689.1,1393.1 750.8,1454.8 814,1391.6 
	877.7,1455.3 941.5,1391.6 1005,1455 1005,1455 1066.9,1393 1129.9,1456 1191.6,1394.4 1253.2,1456.1 1316.4,1392.9 1380.2,1456.7 
	1443.9,1392.9 1507.4,1455 1569.4,1393 1632.4,1456 1694,1394.4 1755.7,1456.1 1818.9,1392.9 1882.7,1456.7 1946.4,1392.9 
	2009.9,1456.4 2009.9,1414.7 "/>
<polygon class="st1" points="1946.4,1270.5 1882.7,1334.2 1818.9,1270.5 1755.7,1333.7 1694,1272 1632.4,1333.6 1569.4,1270.6 
	1507.4,1334 1443.9,1270.5 1380.2,1334.2 1316.4,1270.5 1253.2,1333.7 1191.6,1272 1129.9,1333.6 1066.9,1270.6 1005,1332.6 
	1005,1332.6 941.5,1269.1 877.7,1332.9 814,1269.1 750.8,1332.3 689.1,1270.6 627.5,1332.2 564.5,1269.2 502.5,1332.6 439,1269.1 
	375.2,1332.9 311.5,1269.1 248.3,1332.3 186.6,1270.6 125,1332.2 62,1269.2 0,1331.2 0,1372.9 62,1310.9 125,1374 186.6,1312.4 
	248.3,1374.1 311.5,1310.9 375.2,1374.6 439,1310.9 502.5,1372.9 564.5,1310.9 627.5,1374 689.1,1312.4 750.8,1374.1 814,1310.9 
	877.7,1374.6 941.5,1310.9 1005,1374.3 1005,1374.3 1066.9,1312.3 1129.9,1375.3 1191.6,1313.7 1253.2,1375.4 1316.4,1312.2 
	1380.2,1376 1443.9,1312.2 1507.4,1374.3 1569.4,1312.3 1632.4,1375.3 1694,1313.7 1755.7,1375.4 1818.9,1312.2 1882.7,1376 
	1946.4,1312.2 2009.9,1375.7 2009.9,1334 "/>
<polygon class="st0" points="1946.4,1475.1 1882.7,1538.8 1818.9,1475.1 1755.7,1538.3 1694,1476.6 1632.4,1538.2 1569.4,1475.2 
	1507.4,1537.2 1507.4,1538.6 1443.9,1475.1 1380.2,1538.8 1316.4,1475.1 1253.2,1538.3 1191.6,1476.6 1129.9,1538.2 1066.9,1475.2 
	1005,1537.2 1005,1537.2 941.5,1473.7 877.7,1537.5 814,1473.7 750.8,1536.9 689.1,1475.2 627.5,1536.8 564.5,1473.8 502.5,1535.8 
	502.5,1537.2 439,1473.7 375.2,1537.5 311.5,1473.7 248.3,1536.9 186.6,1475.2 125,1536.8 62,1473.8 0,1535.8 0,1576.3 62,1514.3 
	125,1577.3 186.6,1515.7 248.3,1577.4 311.5,1514.2 375.2,1578 439,1514.2 502.5,1577.7 502.5,1576.3 564.5,1514.3 627.5,1577.3 
	689.1,1515.7 750.8,1577.4 814,1514.2 877.7,1578 941.5,1514.2 1005,1577.7 1005,1577.7 1066.9,1515.7 1129.9,1578.7 1191.6,1517.1 
	1253.2,1578.8 1316.4,1515.6 1380.2,1579.3 1443.9,1515.6 1507.4,1579.1 1507.4,1577.7 1569.4,1515.7 1632.4,1578.7 1694,1517.1 
	1755.7,1578.8 1818.9,1515.6 1882.7,1579.3 1946.4,1515.6 2009.9,1579.1 2009.9,1538.6 "/>
<polygon class="st1" points="1946.4,1433.4 1882.7,1497.1 1818.9,1433.4 1755.7,1496.6 1694,1434.9 1632.4,1496.5 1569.4,1433.5 
	1507.4,1496.8 1443.9,1433.4 1380.2,1497.1 1316.4,1433.4 1253.2,1496.6 1191.6,1434.9 1129.9,1496.5 1066.9,1433.5 1005,1495.5 
	1005,1495.5 941.5,1432 877.7,1495.7 814,1432 750.8,1495.2 689.1,1433.5 627.5,1495.1 564.5,1432.1 502.5,1495.5 439,1432 
	375.2,1495.7 311.5,1432 248.3,1495.2 186.6,1433.5 125,1495.1 62,1432.1 0,1494.1 0,1535.8 62,1473.8 125,1536.8 186.6,1475.2 
	248.3,1536.9 311.5,1473.7 375.2,1537.5 439,1473.7 502.5,1535.8 564.5,1473.8 627.5,1536.8 689.1,1475.2 750.8,1536.9 814,1473.7 
	877.7,1537.5 941.5,1473.7 1005,1537.2 1005,1537.2 1066.9,1475.2 1129.9,1538.2 1191.6,1476.6 1253.2,1538.3 1316.4,1475.1 
	1380.2,1538.8 1443.9,1475.1 1507.4,1537.2 1569.4,1475.2 1632.4,1538.2 1694,1476.6 1755.7,1538.3 1818.9,1475.1 1882.7,1538.8 
	1946.4,1475.1 2009.9,1538.6 2009.9,1496.8 "/>
<polygon class="st0" points="1946.4,1554.4 1882.7,1618.1 1818.9,1554.4 1755.7,1617.6 1694,1555.9 1632.4,1617.5 1569.4,1554.5 
	1507.4,1616.5 1507.4,1617.8 1443.9,1554.4 1380.2,1618.1 1316.4,1554.4 1253.2,1617.6 1191.6,1555.9 1129.9,1617.5 1066.9,1554.5 
	1005,1616.5 1005,1616.5 941.5,1553 877.7,1616.7 814,1553 750.8,1616.2 689.1,1554.5 627.5,1616.1 564.5,1553.1 502.5,1615.1 
	502.5,1616.5 439,1553 375.2,1616.7 311.5,1553 248.3,1616.2 186.6,1554.5 125,1616.1 62,1553.1 0,1615.1 0,1655.6 62,1593.6 
	125,1656.6 186.6,1595 248.3,1656.7 311.5,1593.5 375.2,1657.2 439,1593.5 502.5,1657 502.5,1655.6 564.5,1593.6 627.5,1656.6 
	689.1,1595 750.8,1656.7 814,1593.5 877.7,1657.2 941.5,1593.5 1005,1657 1005,1657 1066.9,1595 1129.9,1658 1191.6,1596.4 
	1253.2,1658.1 1316.4,1594.9 1380.2,1658.6 1443.9,1594.9 1507.4,1658.3 1507.4,1657 1569.4,1595 1632.4,1658 1694,1596.4 
	1755.7,1658.1 1818.9,1594.9 1882.7,1658.6 1946.4,1594.9 2009.9,1658.3 2009.9,1617.8 "/>
<polygon class="st0" points="1946.4,1636.6 1882.7,1700.3 1818.9,1636.6 1755.7,1699.8 1694,1638.1 1632.4,1699.7 1569.4,1636.7 
	1507.4,1698.7 1507.4,1700.1 1443.9,1636.6 1380.2,1700.3 1316.4,1636.6 1253.2,1699.8 1191.6,1638.1 1129.9,1699.7 1066.9,1636.7 
	1005,1698.7 1005,1698.7 941.5,1635.2 877.7,1699 814,1635.2 750.8,1698.4 689.1,1636.7 627.5,1698.3 564.5,1635.3 502.5,1697.3 
	502.5,1698.7 439,1635.2 375.2,1699 311.5,1635.2 248.3,1698.4 186.6,1636.7 125,1698.3 62,1635.3 0,1697.3 0,1737.8 62,1675.8 
	125,1738.8 186.6,1677.2 248.3,1738.9 311.5,1675.7 375.2,1739.5 439,1675.7 502.5,1739.2 502.5,1737.8 564.5,1675.8 627.5,1738.8 
	689.1,1677.2 750.8,1738.9 814,1675.7 877.7,1739.5 941.5,1675.7 1005,1739.2 1005,1739.2 1066.9,1677.2 1129.9,1740.2 
	1191.6,1678.6 1253.2,1740.3 1316.4,1677.1 1380.2,1740.8 1443.9,1677.1 1507.4,1740.6 1507.4,1739.2 1569.4,1677.2 1632.4,1740.2 
	1694,1678.6 1755.7,1740.3 1818.9,1677.1 1882.7,1740.8 1946.4,1677.1 2009.9,1740.6 2009.9,1700.1 "/>
<polygon class="st1" points="1946.4,1594.9 1882.7,1658.6 1818.9,1594.9 1755.7,1658.1 1694,1596.4 1632.4,1658 1569.4,1595 
	1507.4,1658.3 1443.9,1594.9 1380.2,1658.6 1316.4,1594.9 1253.2,1658.1 1191.6,1596.4 1129.9,1658 1066.9,1595 1005,1657 
	1005,1657 941.5,1593.5 877.7,1657.2 814,1593.5 750.8,1656.7 689.1,1595 627.5,1656.6 564.5,1593.6 502.5,1657 439,1593.5 
	375.2,1657.2 311.5,1593.5 248.3,1656.7 186.6,1595 125,1656.6 62,1593.6 0,1655.6 0,1697.3 62,1635.3 125,1698.3 186.6,1636.7 
	248.3,1698.4 311.5,1635.2 375.2,1699 439,1635.2 502.5,1697.3 564.5,1635.3 627.5,1698.3 689.1,1636.7 750.8,1698.4 814,1635.2 
	877.7,1699 941.5,1635.2 1005,1698.7 1005,1698.7 1066.9,1636.7 1129.9,1699.7 1191.6,1638.1 1253.2,1699.8 1316.4,1636.6 
	1380.2,1700.3 1443.9,1636.6 1507.4,1698.7 1569.4,1636.7 1632.4,1699.7 1694,1638.1 1755.7,1699.8 1818.9,1636.6 1882.7,1700.3 
	1946.4,1636.6 2009.9,1700.1 2009.9,1658.3 "/>
<polygon class="st1" points="1946.4,1514.2 1882.7,1577.9 1818.9,1514.2 1755.7,1577.3 1694,1515.7 1632.4,1577.3 1569.4,1514.2 
	1507.4,1577.6 1443.9,1514.2 1380.2,1577.9 1316.4,1514.2 1253.2,1577.3 1191.6,1515.7 1129.9,1577.3 1066.9,1514.2 1005,1576.2 
	1005,1576.3 941.5,1512.8 877.7,1576.5 814,1512.8 750.8,1576 689.1,1514.3 627.5,1575.9 564.5,1512.9 502.5,1576.3 439,1512.8 
	375.2,1576.5 311.5,1512.8 248.3,1576 186.6,1514.3 125,1575.9 62,1512.9 0,1574.9 0,1616.6 62,1554.6 125,1617.6 186.6,1556 
	248.3,1617.7 311.5,1554.5 375.2,1618.3 439,1554.5 502.5,1616.6 564.5,1554.6 627.5,1617.6 689.1,1556 750.8,1617.7 814,1554.5 
	877.7,1618.3 941.5,1554.5 1005,1618 1005,1618 1066.9,1556 1129.9,1619 1191.6,1557.4 1253.2,1619.1 1316.4,1555.9 1380.2,1619.6 
	1443.9,1555.9 1507.4,1618 1569.4,1556 1632.4,1619 1694,1557.4 1755.7,1619.1 1818.9,1555.9 1882.7,1619.6 1946.4,1555.9 
	2009.9,1619.4 2009.9,1577.6 "/>
<polygon class="st0" points="1946.4,1718.8 1882.7,1782.5 1818.9,1718.8 1755.7,1781.9 1694,1720.2 1632.4,1781.8 1569.4,1718.8 
	1507.4,1780.8 1507.4,1782.2 1443.9,1718.8 1380.2,1782.5 1316.4,1718.8 1253.2,1781.9 1191.6,1720.2 1129.9,1781.8 1066.9,1718.8 
	1005,1780.8 1005,1780.8 941.5,1717.4 877.7,1781.1 814,1717.4 750.8,1780.6 689.1,1718.9 627.5,1780.5 564.5,1717.5 502.5,1779.5 
	502.5,1780.8 439,1717.4 375.2,1781.1 311.5,1717.4 248.3,1780.6 186.6,1718.9 125,1780.5 62,1717.5 0,1779.5 0,1820 62,1758 
	125,1821 186.6,1759.4 248.3,1821.1 311.5,1757.9 375.2,1821.6 439,1757.9 502.5,1821.3 502.5,1820 564.5,1758 627.5,1821 
	689.1,1759.4 750.8,1821.1 814,1757.9 877.7,1821.6 941.5,1757.9 1005,1821.3 1005,1821.3 1066.9,1759.3 1129.9,1822.3 
	1191.6,1760.8 1253.2,1822.4 1316.4,1759.2 1380.2,1823 1443.9,1759.2 1507.4,1822.7 1507.4,1821.3 1569.4,1759.3 1632.4,1822.3 
	1694,1760.8 1755.7,1822.4 1818.9,1759.2 1882.7,1823 1946.4,1759.2 2009.9,1822.7 2009.9,1782.2 "/>
<polygon class="st1" points="1946.4,1677 1882.7,1740.8 1818.9,1677 1755.7,1740.2 1694,1678.5 1632.4,1740.1 1569.4,1677.1 
	1507.4,1740.5 1443.9,1677 1380.2,1740.8 1316.4,1677 1253.2,1740.2 1191.6,1678.5 1129.9,1740.1 1066.9,1677.1 1005,1739.1 
	1005,1739.1 941.5,1675.6 877.7,1739.4 814,1675.6 750.8,1738.8 689.1,1677.2 627.5,1738.8 564.5,1675.7 502.5,1739.1 439,1675.6 
	375.2,1739.4 311.5,1675.6 248.3,1738.8 186.6,1677.2 125,1738.8 62,1675.7 0,1737.7 0,1779.5 62,1717.5 125,1780.5 186.6,1718.9 
	248.3,1780.6 311.5,1717.4 375.2,1781.1 439,1717.4 502.5,1779.5 564.5,1717.5 627.5,1780.5 689.1,1718.9 750.8,1780.6 814,1717.4 
	877.7,1781.1 941.5,1717.4 1005,1780.8 1005,1780.8 1066.9,1718.8 1129.9,1781.8 1191.6,1720.2 1253.2,1781.9 1316.4,1718.8 
	1380.2,1782.5 1443.9,1718.8 1507.4,1780.8 1569.4,1718.8 1632.4,1781.8 1694,1720.2 1755.7,1781.9 1818.9,1718.8 1882.7,1782.5 
	1946.4,1718.8 2009.9,1782.2 2009.9,1740.5 "/>
<polygon class="st0" points="1946.4,1798 1882.7,1861.8 1818.9,1798 1755.7,1861.2 1694,1799.5 1632.4,1861.1 1569.4,1798.1 
	1507.4,1860.1 1507.4,1861.5 1443.9,1798 1380.2,1861.8 1316.4,1798 1253.2,1861.2 1191.6,1799.5 1129.9,1861.1 1066.9,1798.1 
	1005,1860.1 1005,1860.1 941.5,1796.6 877.7,1860.4 814,1796.6 750.8,1859.8 689.1,1798.2 627.5,1859.8 564.5,1796.7 502.5,1858.7 
	502.5,1860.1 439,1796.6 375.2,1860.4 311.5,1796.6 248.3,1859.8 186.6,1798.2 125,1859.8 62,1796.7 0,1858.7 0,1899.2 62,1837.2 
	125,1900.2 186.6,1838.7 248.3,1900.3 311.5,1837.1 375.2,1900.9 439,1837.1 502.5,1900.6 502.5,1899.2 564.5,1837.2 627.5,1900.2 
	689.1,1838.7 750.8,1900.3 814,1837.1 877.7,1900.9 941.5,1837.1 1005,1900.6 1005,1900.6 1066.9,1838.6 1129.9,1901.6 1191.6,1840 
	1253.2,1901.7 1316.4,1838.5 1380.2,1902.3 1443.9,1838.5 1507.4,1902 1507.4,1900.6 1569.4,1838.6 1632.4,1901.6 1694,1840 
	1755.7,1901.7 1818.9,1838.5 1882.7,1902.3 1946.4,1838.5 2009.9,1902 2009.9,1861.5 "/>
<polygon class="st0" points="1946.4,1880.2 1882.7,1944 1818.9,1880.2 1755.7,1943.4 1694,1881.8 1632.4,1943.3 1569.4,1880.3 
	1507.4,1942.3 1507.4,1943.7 1443.9,1880.2 1380.2,1944 1316.4,1880.2 1253.2,1943.4 1191.6,1881.8 1129.9,1943.3 1066.9,1880.3 
	1005,1942.3 1005,1942.3 941.5,1878.9 877.7,1942.6 814,1878.9 750.8,1942.1 689.1,1880.4 627.5,1942 564.5,1879 502.5,1941 
	502.5,1942.3 439,1878.9 375.2,1942.6 311.5,1878.9 248.3,1942.1 186.6,1880.4 125,1942 62,1879 0,1941 0,1981.5 62,1919.5 
	125,1982.5 186.6,1920.9 248.3,1982.6 311.5,1919.4 375.2,1983.1 439,1919.4 502.5,1982.8 502.5,1981.5 564.5,1919.5 627.5,1982.5 
	689.1,1920.9 750.8,1982.6 814,1919.4 877.7,1983.1 941.5,1919.4 1005,1982.8 1005,1982.8 1066.9,1920.8 1129.9,1983.8 
	1191.6,1922.2 1253.2,1983.9 1316.4,1920.8 1380.2,1984.5 1443.9,1920.8 1507.4,1984.2 1507.4,1982.8 1569.4,1920.8 1632.4,1983.8 
	1694,1922.2 1755.7,1983.9 1818.9,1920.8 1882.7,1984.5 1946.4,1920.8 2009.9,1984.2 2009.9,1943.7 "/>
<polygon class="st1" points="1946.4,1838.5 1882.7,1902.3 1818.9,1838.5 1755.7,1901.7 1694,1840 1632.4,1901.6 1569.4,1838.6 
	1507.4,1902 1443.9,1838.5 1380.2,1902.3 1316.4,1838.5 1253.2,1901.7 1191.6,1840 1129.9,1901.6 1066.9,1838.6 1005,1900.6 
	1005,1900.6 941.5,1837.1 877.7,1900.9 814,1837.1 750.8,1900.3 689.1,1838.7 627.5,1900.2 564.5,1837.2 502.5,1900.6 439,1837.1 
	375.2,1900.9 311.5,1837.1 248.3,1900.3 186.6,1838.7 125,1900.2 62,1837.2 0,1899.2 0,1941 62,1879 125,1942 186.6,1880.4 
	248.3,1942.1 311.5,1878.9 375.2,1942.6 439,1878.9 502.5,1941 564.5,1879 627.5,1942 689.1,1880.4 750.8,1942.1 814,1878.9 
	877.7,1942.6 941.5,1878.9 1005,1942.3 1005,1942.3 1066.9,1880.3 1129.9,1943.3 1191.6,1881.8 1253.2,1943.4 1316.4,1880.2 
	1380.2,1944 1443.9,1880.2 1507.4,1942.3 1569.4,1880.3 1632.4,1943.3 1694,1881.8 1755.7,1943.4 1818.9,1880.2 1882.7,1944 
	1946.4,1880.2 2009.9,1943.7 2009.9,1902 "/>
<polygon class="st1" points="1946.4,1757.8 1882.7,1821.6 1818.9,1757.8 1755.7,1821 1694,1759.3 1632.4,1820.9 1569.4,1757.9 
	1507.4,1821.3 1443.9,1757.8 1380.2,1821.6 1316.4,1757.8 1253.2,1821 1191.6,1759.3 1129.9,1820.9 1066.9,1757.9 1005,1819.9 
	1005,1819.9 941.5,1756.4 877.7,1820.2 814,1756.4 750.8,1819.6 689.1,1757.9 627.5,1819.5 564.5,1756.5 502.5,1819.9 439,1756.4 
	375.2,1820.2 311.5,1756.4 248.3,1819.6 186.6,1757.9 125,1819.5 62,1756.5 0,1818.5 0,1860.3 62,1798.3 125,1861.3 186.6,1799.7 
	248.3,1861.4 311.5,1798.2 375.2,1861.9 439,1798.2 502.5,1860.3 564.5,1798.3 627.5,1861.3 689.1,1799.7 750.8,1861.4 814,1798.2 
	877.7,1861.9 941.5,1798.2 1005,1861.6 1005,1861.6 1066.9,1799.6 1129.9,1862.6 1191.6,1801 1253.2,1862.7 1316.4,1799.5 
	1380.2,1863.3 1443.9,1799.5 1507.4,1861.6 1569.4,1799.6 1632.4,1862.6 1694,1801 1755.7,1862.7 1818.9,1799.5 1882.7,1863.3 
	1946.4,1799.5 2009.9,1863 2009.9,1821.3 "/>
<polygon class="st0" points="1946.4,1962.4 1882.7,2026.2 1818.9,1962.4 1755.7,2025.6 1694,1963.9 1632.4,2025.5 1569.4,1962.5 
	1507.4,2024.5 1507.4,2025.9 1443.9,1962.4 1380.2,2026.2 1316.4,1962.4 1253.2,2025.6 1191.6,1963.9 1129.9,2025.5 1066.9,1962.5 
	1005,2024.5 1005,2024.5 941.5,1961 877.7,2024.8 814,1961 750.8,2024.2 689.1,1962.5 627.5,2024.1 564.5,1961.1 502.5,2023.1 
	502.5,2024.5 439,1961 375.2,2024.8 311.5,1961 248.3,2024.2 186.6,1962.5 125,2024.1 62,1961.1 0,2023.1 0,2063.6 62,2001.6 
	125,2064.6 186.6,2003 248.3,2064.7 311.5,2001.5 375.2,2065.3 439,2001.5 502.5,2065 502.5,2063.6 564.5,2001.6 627.5,2064.6 
	689.1,2003 750.8,2064.7 814,2001.5 877.7,2065.3 941.5,2001.5 1005,2065 1005,2065 1066.9,2003 1129.9,2066 1191.6,2004.4 
	1253.2,2066.1 1316.4,2002.9 1380.2,2066.6 1443.9,2002.9 1507.4,2066.4 1507.4,2065 1569.4,2003 1632.4,2066 1694,2004.4 
	1755.7,2066.1 1818.9,2002.9 1882.7,2066.6 1946.4,2002.9 2009.9,2066.4 2009.9,2025.9 "/>
<polygon class="st1" points="1946.4,1920.7 1882.7,1984.4 1818.9,1920.7 1755.7,1983.9 1694,1922.2 1632.4,1983.8 1569.4,1920.8 
	1507.4,1984.2 1443.9,1920.7 1380.2,1984.4 1316.4,1920.7 1253.2,1983.9 1191.6,1922.2 1129.9,1983.8 1066.9,1920.8 1005,1982.8 
	1005,1982.8 941.5,1919.3 877.7,1983.1 814,1919.3 750.8,1982.5 689.1,1920.8 627.5,1982.4 564.5,1919.4 502.5,1982.8 439,1919.3 
	375.2,1983.1 311.5,1919.3 248.3,1982.5 186.6,1920.8 125,1982.4 62,1919.4 0,1981.4 0,2023.1 62,1961.1 125,2024.1 186.6,1962.5 
	248.3,2024.2 311.5,1961 375.2,2024.8 439,1961 502.5,2023.1 564.5,1961.1 627.5,2024.1 689.1,1962.5 750.8,2024.2 814,1961 
	877.7,2024.8 941.5,1961 1005,2024.5 1005,2024.5 1066.9,1962.5 1129.9,2025.5 1191.6,1963.9 1253.2,2025.6 1316.4,1962.4 
	1380.2,2026.2 1443.9,1962.4 1507.4,2024.5 1569.4,1962.5 1632.4,2025.5 1694,1963.9 1755.7,2025.6 1818.9,1962.4 1882.7,2026.2 
	1946.4,1962.4 2009.9,2025.9 2009.9,1984.2 "/>
<polygon class="st1" points="1946.4,1999.9 1882.7,2063.7 1818.9,1999.9 1755.7,2063.1 1694,2001.4 1632.4,2063 1569.4,2000 
	1507.4,2063.4 1443.9,1999.9 1380.2,2063.7 1316.4,1999.9 1253.2,2063.1 1191.6,2001.4 1129.9,2063 1066.9,2000 1005,2062 
	1005,2062 941.5,1998.6 877.7,2062.3 814,1998.6 750.8,2061.8 689.1,2000.1 627.5,2061.7 564.5,1998.7 502.5,2062 439,1998.6 
	375.2,2062.3 311.5,1998.6 248.3,2061.8 186.6,2000.1 125,2061.7 62,1998.7 0,2060.7 0,2102.4 62,2040.4 125,2103.4 186.6,2041.8 
	248.3,2103.5 311.5,2040.3 375.2,2104.1 439,2040.3 502.5,2102.4 564.5,2040.4 627.5,2103.4 689.1,2041.8 750.8,2103.5 814,2040.3 
	877.7,2104.1 941.5,2040.3 1005,2103.8 1005,2103.8 1066.9,2041.8 1129.9,2104.8 1191.6,2043.2 1253.2,2104.9 1316.4,2041.7 
	1380.2,2105.4 1443.9,2041.7 1507.4,2103.8 1569.4,2041.8 1632.4,2104.8 1694,2043.2 1755.7,2104.9 1818.9,2041.7 1882.7,2105.4 
	1946.4,2041.7 2009.9,2105.1 2009.9,2063.4 "/>
</svg>
