<svg id="Layer_1" data-name="Layer 1" xmlns="http://www.w3.org/2000/svg" viewBox="0 0 2000 2000"><defs><style>.cls-1{fill:#d0bd99;}.cls-1,.cls-2{stroke:#373737;stroke-linejoin:round;stroke-width:6px;}.cls-2{fill:#fff;}</style></defs><title>skills pattern7</title><polygon class="cls-1" points="1941.42 14.28 1877.67 78.03 1813.92 14.28 1750.72 77.47 1689.03 15.78 1627.43 77.38 1564.43 14.37 1502.43 76.37 1502.43 77.75 1438.95 14.28 1375.2 78.03 1311.45 14.28 1248.25 77.47 1186.55 15.78 1124.95 77.38 1061.95 14.37 999.95 76.37 999.95 76.38 936.48 12.9 872.72 76.65 808.97 12.9 745.77 76.1 684.08 14.41 622.48 76 559.48 13 497.48 75 497.48 76.38 434 12.9 370.25 76.65 306.5 12.9 243.3 76.1 181.6 14.41 120 76 57 13 -5 75 -5 115.5 57 53.5 120 116.5 181.6 54.91 243.3 116.6 306.5 53.4 370.25 117.15 434 53.4 497.48 116.88 497.48 115.5 559.48 53.5 622.48 116.5 684.08 54.91 745.77 116.6 808.97 53.4 872.72 117.15 936.48 53.4 999.95 116.88 999.95 116.88 1061.95 54.87 1124.95 117.88 1186.55 56.28 1248.25 117.98 1311.45 54.78 1375.2 118.53 1438.95 54.78 1502.43 118.25 1502.43 116.88 1564.43 54.87 1627.43 117.88 1689.03 56.28 1750.72 117.98 1813.92 54.78 1877.67 118.53 1941.42 54.78 2004.9 118.25 2004.9 77.75 1941.42 14.28"/><polygon class="cls-1" points="1941.42 -65.67 1877.67 -1.91 1813.92 -65.67 1750.72 -2.46 1689.03 -64.16 1627.43 -2.56 1564.43 -65.57 1502.43 -3.57 1502.43 -2.19 1438.95 -65.67 1375.2 -1.91 1311.45 -65.67 1248.25 -2.46 1186.55 -64.16 1124.95 -2.56 1061.95 -65.57 999.95 -3.57 999.95 -3.56 936.48 -67.04 872.72 -3.29 808.97 -67.04 745.77 -3.84 684.08 -65.53 622.48 -3.94 559.48 -66.94 497.48 -4.94 497.48 -3.56 434 -67.04 370.25 -3.29 306.5 -67.04 243.3 -3.84 181.6 -65.53 120 -3.94 57 -66.94 -5 -4.94 -5 35.56 57 -26.44 120 36.56 181.6 -25.03 243.3 36.66 306.5 -26.54 370.25 37.21 434 -26.54 497.48 36.94 497.48 35.56 559.48 -26.44 622.48 36.56 684.08 -25.03 745.77 36.66 808.97 -26.54 872.72 37.21 936.48 -26.54 999.95 36.94 999.95 36.94 1061.95 -25.07 1124.95 37.94 1186.55 -23.66 1248.25 38.04 1311.45 -25.16 1375.2 38.59 1438.95 -25.16 1502.43 38.31 1502.43 36.94 1564.43 -25.07 1627.43 37.94 1689.03 -23.66 1750.72 38.04 1813.92 -25.16 1877.67 38.59 1941.42 -25.16 2004.9 38.31 2004.9 -2.19 1941.42 -65.67"/><polygon class="cls-1" points="1941.42 96.5 1877.67 160.25 1813.92 96.5 1750.72 159.71 1689.03 98.01 1627.43 159.61 1564.43 96.6 1502.43 158.6 1502.43 159.98 1438.95 96.5 1375.2 160.25 1311.45 96.5 1248.25 159.71 1186.55 98.01 1124.95 159.61 1061.95 96.6 999.95 158.6 999.95 158.61 936.48 95.13 872.72 158.88 808.97 95.13 745.77 158.33 684.08 96.64 622.48 158.23 559.48 95.23 497.48 157.23 497.48 158.61 434 95.13 370.25 158.88 306.5 95.13 243.3 158.33 181.6 96.64 120 158.23 57 95.23 -5 157.23 -5 197.73 57 135.73 120 198.74 181.6 137.14 243.3 198.83 306.5 135.63 370.25 199.38 434 135.63 497.48 199.11 497.48 197.73 559.48 135.73 622.48 198.74 684.08 137.14 745.77 198.83 808.97 135.63 872.72 199.38 936.48 135.63 999.95 199.11 999.95 199.1 1061.95 137.1 1124.95 200.11 1186.55 138.51 1248.25 200.21 1311.45 137.01 1375.2 200.76 1438.95 137.01 1502.43 200.48 1502.43 199.1 1564.43 137.1 1627.43 200.11 1689.03 138.51 1750.72 200.21 1813.92 137.01 1877.67 200.76 1941.42 137.01 2004.9 200.48 2004.9 159.98 1941.42 96.5"/><polygon class="cls-2" points="1941.42 54.78 1877.67 118.53 1813.92 54.78 1750.72 117.98 1689.03 56.28 1627.43 117.88 1564.43 54.87 1502.43 118.25 1438.95 54.78 1375.2 118.53 1311.45 54.78 1248.25 117.98 1186.55 56.28 1124.95 117.88 1061.95 54.87 999.95 116.88 999.95 116.88 936.48 53.4 872.72 117.15 808.97 53.4 745.77 116.6 684.08 54.91 622.48 116.5 559.48 53.5 497.48 116.88 434 53.4 370.25 117.15 306.5 53.4 243.3 116.6 181.6 54.91 120 116.5 57 53.5 -5 115.5 -5 157.23 57 95.23 120 158.23 181.6 96.64 243.3 158.33 306.5 95.13 370.25 158.88 434 95.13 497.48 157.23 559.48 95.23 622.48 158.23 684.08 96.64 745.77 158.33 808.97 95.13 872.72 158.88 936.48 95.13 999.95 158.61 999.95 158.6 1061.95 96.6 1124.95 159.61 1186.55 98.01 1248.25 159.71 1311.45 96.5 1375.2 160.25 1438.95 96.5 1502.43 158.6 1564.43 96.6 1627.43 159.61 1689.03 98.01 1750.72 159.71 1813.92 96.5 1877.67 160.25 1941.42 96.5 2004.9 159.98 2004.9 118.25 1941.42 54.78"/><polygon class="cls-2" points="1941.42 -25.93 1877.67 37.81 1813.92 -25.93 1750.72 37.27 1689.03 -24.43 1627.43 37.17 1564.43 -25.84 1502.43 37.54 1438.95 -25.93 1375.2 37.81 1311.45 -25.93 1248.25 37.27 1186.55 -24.43 1124.95 37.17 1061.95 -25.84 999.95 36.16 999.95 36.17 936.48 -27.31 872.72 36.44 808.97 -27.31 745.77 35.89 684.08 -25.8 622.48 35.79 559.48 -27.21 497.48 36.17 434 -27.31 370.25 36.44 306.5 -27.31 243.3 35.89 181.6 -25.8 120 35.79 57 -27.21 -5 34.79 -5 76.52 57 14.52 120 77.52 181.6 15.93 243.3 77.62 306.5 14.42 370.25 78.17 434 14.42 497.48 76.52 559.48 14.52 622.48 77.52 684.08 15.93 745.77 77.62 808.97 14.42 872.72 78.17 936.48 14.42 999.95 77.9 999.95 77.89 1061.95 15.89 1124.95 78.89 1186.55 17.3 1248.25 78.99 1311.45 15.79 1375.2 79.54 1438.95 15.79 1502.43 77.89 1564.43 15.89 1627.43 78.89 1689.03 17.3 1750.72 78.99 1813.92 15.79 1877.67 79.54 1941.42 15.79 2004.9 79.27 2004.9 37.54 1941.42 -25.93"/><polygon class="cls-1" points="1941.42 178.66 1877.67 242.41 1813.92 178.66 1750.72 241.86 1689.03 180.16 1627.43 241.76 1564.43 178.76 1502.43 240.76 1502.43 242.13 1438.95 178.66 1375.2 242.41 1311.45 178.66 1248.25 241.86 1186.55 180.16 1124.95 241.76 1061.95 178.76 999.95 240.76 999.95 240.76 936.48 177.28 872.72 241.03 808.97 177.28 745.77 240.49 684.08 178.79 622.48 240.39 559.48 177.38 497.48 239.38 497.48 240.76 434 177.28 370.25 241.03 306.5 177.28 243.3 240.49 181.6 178.79 120 240.39 57 177.38 -5 239.38 -5 279.88 57 217.88 120 280.89 181.6 219.29 243.3 280.99 306.5 217.78 370.25 281.54 434 217.78 497.48 281.26 497.48 279.88 559.48 217.88 622.48 280.89 684.08 219.29 745.77 280.99 808.97 217.78 872.72 281.54 936.48 217.78 999.95 281.26 999.95 281.26 1061.95 219.26 1124.95 282.26 1186.55 220.66 1248.25 282.36 1311.45 219.16 1375.2 282.91 1438.95 219.16 1502.43 282.63 1502.43 281.26 1564.43 219.26 1627.43 282.26 1689.03 220.66 1750.72 282.36 1813.92 219.16 1877.67 282.91 1941.42 219.16 2004.9 282.63 2004.9 242.13 1941.42 178.66"/><polygon class="cls-2" points="1941.42 136.93 1877.67 200.68 1813.92 136.93 1750.72 200.13 1689.03 138.43 1627.43 200.03 1564.43 137.03 1502.43 200.41 1438.95 136.93 1375.2 200.68 1311.45 136.93 1248.25 200.13 1186.55 138.43 1124.95 200.03 1061.95 137.03 999.95 199.03 999.95 199.03 936.48 135.56 872.72 199.31 808.97 135.56 745.77 198.76 684.08 137.06 622.48 198.66 559.48 135.65 497.48 199.03 434 135.56 370.25 199.31 306.5 135.56 243.3 198.76 181.6 137.06 120 198.66 57 135.65 -5 197.66 -5 239.38 57 177.38 120 240.39 181.6 178.79 243.3 240.49 306.5 177.28 370.25 241.03 434 177.28 497.48 239.38 559.48 177.38 622.48 240.39 684.08 178.79 745.77 240.49 808.97 177.28 872.72 241.03 936.48 177.28 999.95 240.76 999.95 240.76 1061.95 178.76 1124.95 241.76 1186.55 180.16 1248.25 241.86 1311.45 178.66 1375.2 242.41 1438.95 178.66 1502.43 240.76 1564.43 178.76 1627.43 241.76 1689.03 180.16 1750.72 241.86 1813.92 178.66 1877.67 242.41 1941.42 178.66 2004.9 242.13 2004.9 200.41 1941.42 136.93"/><polygon class="cls-1" points="1941.42 257.93 1877.67 321.68 1813.92 257.93 1750.72 321.13 1689.03 259.43 1627.43 321.03 1564.43 258.03 1502.43 320.03 1502.43 321.4 1438.95 257.93 1375.2 321.68 1311.45 257.93 1248.25 321.13 1186.55 259.43 1124.95 321.03 1061.95 258.03 999.95 320.03 999.95 320.03 936.48 256.56 872.72 320.31 808.97 256.56 745.77 319.75 684.08 258.06 622.48 319.66 559.48 256.65 497.48 318.65 497.48 320.03 434 256.56 370.25 320.31 306.5 256.56 243.3 319.75 181.6 258.06 120 319.66 57 256.65 -5 318.65 -5 359.15 57 297.15 120 360.16 181.6 298.56 243.3 360.26 306.5 297.06 370.25 360.81 434 297.06 497.48 360.53 497.48 359.15 559.48 297.15 622.48 360.16 684.08 298.56 745.77 360.26 808.97 297.06 872.72 360.81 936.48 297.06 999.95 360.53 999.95 360.53 1061.95 298.53 1124.95 361.53 1186.55 299.93 1248.25 361.63 1311.45 298.43 1375.2 362.18 1438.95 298.43 1502.43 361.9 1502.43 360.53 1564.43 298.53 1627.43 361.53 1689.03 299.93 1750.72 361.63 1813.92 298.43 1877.67 362.18 1941.42 298.43 2004.9 361.9 2004.9 321.4 1941.42 257.93"/><polygon class="cls-1" points="1941.42 340.16 1877.67 403.91 1813.92 340.16 1750.72 403.36 1689.03 341.66 1627.43 403.26 1564.43 340.25 1502.43 402.26 1502.43 403.63 1438.95 340.16 1375.2 403.91 1311.45 340.16 1248.25 403.36 1186.55 341.66 1124.95 403.26 1061.95 340.25 999.95 402.26 999.95 402.26 936.48 338.78 872.72 402.54 808.97 338.78 745.77 401.98 684.08 340.29 622.48 401.89 559.48 338.88 497.48 400.88 497.48 402.26 434 338.78 370.25 402.54 306.5 338.78 243.3 401.98 181.6 340.29 120 401.89 57 338.88 -5 400.88 -5 441.38 57 379.38 120 442.39 181.6 380.79 243.3 442.49 306.5 379.29 370.25 443.04 434 379.29 497.48 442.76 497.48 441.38 559.48 379.38 622.48 442.39 684.08 380.79 745.77 442.49 808.97 379.29 872.72 443.04 936.48 379.29 999.95 442.76 999.95 442.76 1061.95 380.76 1124.95 443.76 1186.55 382.16 1248.25 443.86 1311.45 380.66 1375.2 444.41 1438.95 380.66 1502.43 444.13 1502.43 442.76 1564.43 380.76 1627.43 443.76 1689.03 382.16 1750.72 443.86 1813.92 380.66 1877.67 444.41 1941.42 380.66 2004.9 444.13 2004.9 403.63 1941.42 340.16"/><polygon class="cls-2" points="1941.42 298.43 1877.67 362.18 1813.92 298.43 1750.72 361.63 1689.03 299.93 1627.43 361.53 1564.43 298.53 1502.43 361.9 1438.95 298.43 1375.2 362.18 1311.45 298.43 1248.25 361.63 1186.55 299.93 1124.95 361.53 1061.95 298.53 999.95 360.53 999.95 360.53 936.48 297.06 872.72 360.81 808.97 297.06 745.77 360.26 684.08 298.56 622.48 360.16 559.48 297.15 497.48 360.53 434 297.06 370.25 360.81 306.5 297.06 243.3 360.26 181.6 298.56 120 360.16 57 297.15 -5 359.15 -5 400.88 57 338.88 120 401.89 181.6 340.29 243.3 401.98 306.5 338.78 370.25 402.54 434 338.78 497.48 400.88 559.48 338.88 622.48 401.89 684.08 340.29 745.77 401.98 808.97 338.78 872.72 402.54 936.48 338.78 999.95 402.26 999.95 402.26 1061.95 340.25 1124.95 403.26 1186.55 341.66 1248.25 403.36 1311.45 340.16 1375.2 403.91 1438.95 340.16 1502.43 402.26 1564.43 340.25 1627.43 403.26 1689.03 341.66 1750.72 403.36 1813.92 340.16 1877.67 403.91 1941.42 340.16 2004.9 403.63 2004.9 361.9 1941.42 298.43"/><polygon class="cls-2" points="1941.42 217.72 1877.67 281.47 1813.92 217.72 1750.72 280.92 1689.03 219.22 1627.43 280.82 1564.43 217.81 1502.43 281.19 1438.95 217.72 1375.2 281.47 1311.45 217.72 1248.25 280.92 1186.55 219.22 1124.95 280.82 1061.95 217.81 999.95 279.82 999.95 279.82 936.48 216.34 872.72 280.1 808.97 216.34 745.77 279.54 684.08 217.85 622.48 279.45 559.48 216.44 497.48 279.82 434 216.34 370.25 280.1 306.5 216.34 243.3 279.54 181.6 217.85 120 279.45 57 216.44 -5 278.44 -5 320.17 57 258.17 120 321.18 181.6 259.58 243.3 321.27 306.5 258.07 370.25 321.82 434 258.07 497.48 320.17 559.48 258.17 622.48 321.18 684.08 259.58 745.77 321.27 808.97 258.07 872.72 321.82 936.48 258.07 999.95 321.55 999.95 321.55 1061.95 259.54 1124.95 322.55 1186.55 260.95 1248.25 322.65 1311.45 259.45 1375.2 323.2 1438.95 259.45 1502.43 321.55 1564.43 259.54 1627.43 322.55 1689.03 260.95 1750.72 322.65 1813.92 259.45 1877.67 323.2 1941.42 259.45 2004.9 322.92 2004.9 281.19 1941.42 217.72"/><polygon class="cls-1" points="1941.42 422.31 1877.67 486.06 1813.92 422.31 1750.72 485.51 1689.03 423.81 1627.43 485.41 1564.43 422.41 1502.43 484.41 1502.43 485.79 1438.95 422.31 1375.2 486.06 1311.45 422.31 1248.25 485.51 1186.55 423.81 1124.95 485.41 1061.95 422.41 999.95 484.41 999.95 484.41 936.48 420.94 872.72 484.69 808.97 420.94 745.77 484.14 684.08 422.44 622.48 484.04 559.48 421.04 497.48 483.04 497.48 484.41 434 420.94 370.25 484.69 306.5 420.94 243.3 484.14 181.6 422.44 120 484.04 57 421.04 -5 483.04 -5 523.54 57 461.54 120 524.54 181.6 462.94 243.3 524.64 306.5 461.44 370.25 525.19 434 461.44 497.48 524.91 497.48 523.54 559.48 461.54 622.48 524.54 684.08 462.94 745.77 524.64 808.97 461.44 872.72 525.19 936.48 461.44 999.95 524.91 999.95 524.91 1061.95 462.91 1124.95 525.91 1186.55 464.32 1248.25 526.01 1311.45 462.81 1375.2 526.56 1438.95 462.81 1502.43 526.29 1502.43 524.91 1564.43 462.91 1627.43 525.91 1689.03 464.32 1750.72 526.01 1813.92 462.81 1877.67 526.56 1941.42 462.81 2004.9 526.29 2004.9 485.79 1941.42 422.31"/><polygon class="cls-2" points="1941.42 380.58 1877.67 444.33 1813.92 380.58 1750.72 443.78 1689.03 382.09 1627.43 443.68 1564.43 380.68 1502.43 444.06 1438.95 380.58 1375.2 444.33 1311.45 380.58 1248.25 443.78 1186.55 382.09 1124.95 443.68 1061.95 380.68 999.95 442.68 999.95 442.68 936.48 379.21 872.72 442.96 808.97 379.21 745.77 442.41 684.08 380.71 622.48 442.31 559.48 379.31 497.48 442.68 434 379.21 370.25 442.96 306.5 379.21 243.3 442.41 181.6 380.71 120 442.31 57 379.31 -5 441.31 -5 483.04 57 421.04 120 484.04 181.6 422.44 243.3 484.14 306.5 420.94 370.25 484.69 434 420.94 497.48 483.04 559.48 421.04 622.48 484.04 684.08 422.44 745.77 484.14 808.97 420.94 872.72 484.69 936.48 420.94 999.95 484.41 999.95 484.41 1061.95 422.41 1124.95 485.41 1186.55 423.81 1248.25 485.51 1311.45 422.31 1375.2 486.06 1438.95 422.31 1502.43 484.41 1564.43 422.41 1627.43 485.41 1689.03 423.81 1750.72 485.51 1813.92 422.31 1877.67 486.06 1941.42 422.31 2004.9 485.79 2004.9 444.06 1941.42 380.58"/><polygon class="cls-1" points="1941.42 501.58 1877.67 565.33 1813.92 501.58 1750.72 564.78 1689.03 503.08 1627.43 564.68 1564.43 501.68 1502.43 563.68 1502.43 565.06 1438.95 501.58 1375.2 565.33 1311.45 501.58 1248.25 564.78 1186.55 503.08 1124.95 564.68 1061.95 501.68 999.95 563.68 999.95 563.68 936.48 500.21 872.72 563.96 808.97 500.21 745.77 563.41 684.08 501.71 622.48 563.31 559.48 500.31 497.48 562.31 497.48 563.68 434 500.21 370.25 563.96 306.5 500.21 243.3 563.41 181.6 501.71 120 563.31 57 500.31 -5 562.31 -5 602.81 57 540.81 120 603.81 181.6 542.21 243.3 603.91 306.5 540.71 370.25 604.46 434 540.71 497.48 604.18 497.48 602.81 559.48 540.81 622.48 603.81 684.08 542.21 745.77 603.91 808.97 540.71 872.72 604.46 936.48 540.71 999.95 604.18 999.95 604.18 1061.95 542.18 1124.95 605.18 1186.55 543.59 1248.25 605.28 1311.45 542.08 1375.2 605.83 1438.95 542.08 1502.43 605.56 1502.43 604.18 1564.43 542.18 1627.43 605.18 1689.03 543.59 1750.72 605.28 1813.92 542.08 1877.67 605.83 1941.42 542.08 2004.9 605.56 2004.9 565.06 1941.42 501.58"/><polygon class="cls-1" points="1941.42 583.81 1877.67 647.56 1813.92 583.81 1750.72 647.01 1689.03 585.32 1627.43 646.91 1564.43 583.91 1502.43 645.91 1502.43 647.28 1438.95 583.81 1375.2 647.56 1311.45 583.81 1248.25 647.01 1186.55 585.32 1124.95 646.91 1061.95 583.91 999.95 645.91 999.95 645.91 936.48 582.44 872.72 646.19 808.97 582.44 745.77 645.64 684.08 583.94 622.48 645.54 559.48 582.53 497.48 644.54 497.48 645.91 434 582.44 370.25 646.19 306.5 582.44 243.3 645.64 181.6 583.94 120 645.54 57 582.53 -5 644.54 -5 685.04 57 623.04 120 686.04 181.6 624.44 243.3 686.14 306.5 622.94 370.25 686.69 434 622.94 497.48 686.41 497.48 685.04 559.48 623.04 622.48 686.04 684.08 624.44 745.77 686.14 808.97 622.94 872.72 686.69 936.48 622.94 999.95 686.41 999.95 686.41 1061.95 624.41 1124.95 687.41 1186.55 625.82 1248.25 687.51 1311.45 624.31 1375.2 688.06 1438.95 624.31 1502.43 687.79 1502.43 686.41 1564.43 624.41 1627.43 687.41 1689.03 625.82 1750.72 687.51 1813.92 624.31 1877.67 688.06 1941.42 624.31 2004.9 687.79 2004.9 647.28 1941.42 583.81"/><polygon class="cls-2" points="1941.42 542.08 1877.67 605.83 1813.92 542.08 1750.72 605.28 1689.03 543.59 1627.43 605.18 1564.43 542.18 1502.43 605.56 1438.95 542.08 1375.2 605.83 1311.45 542.08 1248.25 605.28 1186.55 543.59 1124.95 605.18 1061.95 542.18 999.95 604.18 999.95 604.18 936.48 540.71 872.72 604.46 808.97 540.71 745.77 603.91 684.08 542.21 622.48 603.81 559.48 540.81 497.48 604.18 434 540.71 370.25 604.46 306.5 540.71 243.3 603.91 181.6 542.21 120 603.81 57 540.81 -5 602.81 -5 644.54 57 582.53 120 645.54 181.6 583.94 243.3 645.64 306.5 582.44 370.25 646.19 434 582.44 497.48 644.54 559.48 582.53 622.48 645.54 684.08 583.94 745.77 645.64 808.97 582.44 872.72 646.19 936.48 582.44 999.95 645.91 999.95 645.91 1061.95 583.91 1124.95 646.91 1186.55 585.32 1248.25 647.01 1311.45 583.81 1375.2 647.56 1438.95 583.81 1502.43 645.91 1564.43 583.91 1627.43 646.91 1689.03 585.32 1750.72 647.01 1813.92 583.81 1877.67 647.56 1941.42 583.81 2004.9 647.28 2004.9 605.56 1941.42 542.08"/><polygon class="cls-2" points="1941.42 461.37 1877.67 525.12 1813.92 461.37 1750.72 524.57 1689.03 462.88 1627.43 524.47 1564.43 461.47 1502.43 524.85 1438.95 461.37 1375.2 525.12 1311.45 461.37 1248.25 524.57 1186.55 462.88 1124.95 524.47 1061.95 461.47 999.95 523.47 999.95 523.47 936.48 460 872.72 523.75 808.97 460 745.77 523.2 684.08 461.5 622.48 523.1 559.48 460.1 497.48 523.47 434 460 370.25 523.75 306.5 460 243.3 523.2 181.6 461.5 120 523.1 57 460.1 -5 522.1 -5 563.82 57 501.82 120 564.83 181.6 503.23 243.3 564.92 306.5 501.73 370.25 565.48 434 501.73 497.48 563.82 559.48 501.82 622.48 564.83 684.08 503.23 745.77 564.92 808.97 501.73 872.72 565.48 936.48 501.73 999.95 565.2 999.95 565.2 1061.95 503.2 1124.95 566.2 1186.55 504.6 1248.25 566.3 1311.45 503.1 1375.2 566.85 1438.95 503.1 1502.43 565.2 1564.43 503.2 1627.43 566.2 1689.03 504.6 1750.72 566.3 1813.92 503.1 1877.67 566.85 1941.42 503.1 2004.9 566.57 2004.9 524.85 1941.42 461.37"/><polygon class="cls-1" points="1941.42 665.96 1877.67 729.71 1813.92 665.96 1750.72 729.16 1689.03 667.47 1627.43 729.07 1564.43 666.06 1502.43 728.06 1502.43 729.44 1438.95 665.96 1375.2 729.71 1311.45 665.96 1248.25 729.16 1186.55 667.47 1124.95 729.07 1061.95 666.06 999.95 728.06 999.95 728.07 936.48 664.59 872.72 728.34 808.97 664.59 745.77 727.79 684.08 666.09 622.48 727.69 559.48 664.69 497.48 726.69 497.48 728.07 434 664.59 370.25 728.34 306.5 664.59 243.3 727.79 181.6 666.09 120 727.69 57 664.69 -5 726.69 -5 767.19 57 705.19 120 768.19 181.6 706.6 243.3 768.29 306.5 705.09 370.25 768.84 434 705.09 497.48 768.57 497.48 767.19 559.48 705.19 622.48 768.19 684.08 706.6 745.77 768.29 808.97 705.09 872.72 768.84 936.48 705.09 999.95 768.57 999.95 768.56 1061.95 706.56 1124.95 769.57 1186.55 707.97 1248.25 769.66 1311.45 706.46 1375.2 770.22 1438.95 706.46 1502.43 769.94 1502.43 768.56 1564.43 706.56 1627.43 769.57 1689.03 707.97 1750.72 769.66 1813.92 706.46 1877.67 770.22 1941.42 706.46 2004.9 769.94 2004.9 729.44 1941.42 665.96"/><polygon class="cls-2" points="1941.42 624.23 1877.67 687.99 1813.92 624.23 1750.72 687.43 1689.03 625.74 1627.43 687.34 1564.43 624.33 1502.43 687.71 1438.95 624.23 1375.2 687.99 1311.45 624.23 1248.25 687.43 1186.55 625.74 1124.95 687.34 1061.95 624.33 999.95 686.33 999.95 686.34 936.48 622.86 872.72 686.61 808.97 622.86 745.77 686.06 684.08 624.37 622.48 685.96 559.48 622.96 497.48 686.34 434 622.86 370.25 686.61 306.5 622.86 243.3 686.06 181.6 624.37 120 685.96 57 622.96 -5 684.96 -5 726.69 57 664.69 120 727.69 181.6 666.09 243.3 727.79 306.5 664.59 370.25 728.34 434 664.59 497.48 726.69 559.48 664.69 622.48 727.69 684.08 666.09 745.77 727.79 808.97 664.59 872.72 728.34 936.48 664.59 999.95 728.07 999.95 728.06 1061.95 666.06 1124.95 729.07 1186.55 667.47 1248.25 729.16 1311.45 665.96 1375.2 729.71 1438.95 665.96 1502.43 728.06 1564.43 666.06 1627.43 729.07 1689.03 667.47 1750.72 729.16 1813.92 665.96 1877.67 729.71 1941.42 665.96 2004.9 729.44 2004.9 687.71 1941.42 624.23"/><polygon class="cls-1" points="1941.42 745.23 1877.67 808.98 1813.92 745.23 1750.72 808.43 1689.03 746.74 1627.43 808.34 1564.43 745.33 1502.43 807.33 1502.43 808.71 1438.95 745.23 1375.2 808.98 1311.45 745.23 1248.25 808.43 1186.55 746.74 1124.95 808.34 1061.95 745.33 999.95 807.33 999.95 807.34 936.48 743.86 872.72 807.61 808.97 743.86 745.77 807.06 684.08 745.37 622.48 806.96 559.48 743.96 497.48 805.96 497.48 807.34 434 743.86 370.25 807.61 306.5 743.86 243.3 807.06 181.6 745.37 120 806.96 57 743.96 -5 805.96 -5 846.46 57 784.46 120 847.46 181.6 785.87 243.3 847.56 306.5 784.36 370.25 848.11 434 784.36 497.48 847.84 497.48 846.46 559.48 784.46 622.48 847.46 684.08 785.87 745.77 847.56 808.97 784.36 872.72 848.11 936.48 784.36 999.95 847.84 999.95 847.83 1061.95 785.83 1124.95 848.84 1186.55 787.24 1248.25 848.93 1311.45 785.73 1375.2 849.49 1438.95 785.73 1502.43 849.21 1502.43 847.83 1564.43 785.83 1627.43 848.84 1689.03 787.24 1750.72 848.93 1813.92 785.73 1877.67 849.49 1941.42 785.73 2004.9 849.21 2004.9 808.71 1941.42 745.23"/><polygon class="cls-1" points="1941.42 827.46 1877.67 891.21 1813.92 827.46 1750.72 890.66 1689.03 828.97 1627.43 890.57 1564.43 827.56 1502.43 889.56 1502.43 890.94 1438.95 827.46 1375.2 891.21 1311.45 827.46 1248.25 890.66 1186.55 828.97 1124.95 890.57 1061.95 827.56 999.95 889.56 999.95 889.57 936.48 826.09 872.72 889.84 808.97 826.09 745.77 889.29 684.08 827.59 622.48 889.19 559.48 826.19 497.48 888.19 497.48 889.57 434 826.09 370.25 889.84 306.5 826.09 243.3 889.29 181.6 827.59 120 889.19 57 826.19 -5 888.19 -5 928.69 57 866.69 120 929.69 181.6 868.1 243.3 929.79 306.5 866.59 370.25 930.34 434 866.59 497.48 930.07 497.48 928.69 559.48 866.69 622.48 929.69 684.08 868.1 745.77 929.79 808.97 866.59 872.72 930.34 936.48 866.59 999.95 930.07 999.95 930.06 1061.95 868.06 1124.95 931.07 1186.55 869.47 1248.25 931.16 1311.45 867.96 1375.2 931.71 1438.95 867.96 1502.43 931.44 1502.43 930.06 1564.43 868.06 1627.43 931.07 1689.03 869.47 1750.72 931.16 1813.92 867.96 1877.67 931.71 1941.42 867.96 2004.9 931.44 2004.9 890.94 1941.42 827.46"/><polygon class="cls-2" points="1941.42 785.73 1877.67 849.49 1813.92 785.73 1750.72 848.93 1689.03 787.24 1627.43 848.84 1564.43 785.83 1502.43 849.21 1438.95 785.73 1375.2 849.49 1311.45 785.73 1248.25 848.93 1186.55 787.24 1124.95 848.84 1061.95 785.83 999.95 847.83 999.95 847.84 936.48 784.36 872.72 848.11 808.97 784.36 745.77 847.56 684.08 785.87 622.48 847.46 559.48 784.46 497.48 847.84 434 784.36 370.25 848.11 306.5 784.36 243.3 847.56 181.6 785.87 120 847.46 57 784.46 -5 846.46 -5 888.19 57 826.19 120 889.19 181.6 827.59 243.3 889.29 306.5 826.09 370.25 889.84 434 826.09 497.48 888.19 559.48 826.19 622.48 889.19 684.08 827.59 745.77 889.29 808.97 826.09 872.72 889.84 936.48 826.09 999.95 889.57 999.95 889.56 1061.95 827.56 1124.95 890.57 1186.55 828.97 1248.25 890.66 1311.45 827.46 1375.2 891.21 1438.95 827.46 1502.43 889.56 1564.43 827.56 1627.43 890.57 1689.03 828.97 1750.72 890.66 1813.92 827.46 1877.67 891.21 1941.42 827.46 2004.9 890.94 2004.9 849.21 1941.42 785.73"/><polygon class="cls-2" points="1941.42 705.02 1877.67 768.77 1813.92 705.02 1750.72 768.22 1689.03 706.53 1627.43 768.13 1564.43 705.12 1502.43 768.5 1438.95 705.02 1375.2 768.77 1311.45 705.02 1248.25 768.22 1186.55 706.53 1124.95 768.13 1061.95 705.12 999.95 767.12 999.95 767.13 936.48 703.65 872.72 767.4 808.97 703.65 745.77 766.85 684.08 705.15 622.48 766.75 559.48 703.75 497.48 767.13 434 703.65 370.25 767.4 306.5 703.65 243.3 766.85 181.6 705.15 120 766.75 57 703.75 -5 765.75 -5 807.48 57 745.48 120 808.48 181.6 746.88 243.3 808.58 306.5 745.38 370.25 809.13 434 745.38 497.48 807.48 559.48 745.48 622.48 808.48 684.08 746.88 745.77 808.58 808.97 745.38 872.72 809.13 936.48 745.38 999.95 808.85 999.95 808.85 1061.95 746.85 1124.95 809.85 1186.55 748.26 1248.25 809.95 1311.45 746.75 1375.2 810.5 1438.95 746.75 1502.43 808.85 1564.43 746.85 1627.43 809.85 1689.03 748.26 1750.72 809.95 1813.92 746.75 1877.67 810.5 1941.42 746.75 2004.9 810.23 2004.9 768.5 1941.42 705.02"/><polygon class="cls-1" points="1941.42 909.62 1877.67 973.37 1813.92 909.62 1750.72 972.82 1689.03 911.12 1627.43 972.72 1564.43 909.71 1502.43 971.71 1502.43 973.09 1438.95 909.62 1375.2 973.37 1311.45 909.62 1248.25 972.82 1186.55 911.12 1124.95 972.72 1061.95 909.71 999.95 971.71 999.95 971.72 936.48 908.24 872.72 971.99 808.97 908.24 745.77 971.44 684.08 909.75 622.48 971.34 559.48 908.34 497.48 970.34 497.48 971.72 434 908.24 370.25 971.99 306.5 908.24 243.3 971.44 181.6 909.75 120 971.34 57 908.34 -5 970.34 -5 1010.84 57 948.84 120 1011.85 181.6 950.25 243.3 1011.94 306.5 948.74 370.25 1012.49 434 948.74 497.48 1012.22 497.48 1010.84 559.48 948.84 622.48 1011.85 684.08 950.25 745.77 1011.94 808.97 948.74 872.72 1012.49 936.48 948.74 999.95 1012.22 999.95 1012.22 1061.95 950.21 1124.95 1013.22 1186.55 951.62 1248.25 1013.32 1311.45 950.12 1375.2 1013.87 1438.95 950.12 1502.43 1013.59 1502.43 1012.22 1564.43 950.21 1627.43 1013.22 1689.03 951.62 1750.72 1013.32 1813.92 950.12 1877.67 1013.87 1941.42 950.12 2004.9 1013.59 2004.9 973.09 1941.42 909.62"/><polygon class="cls-2" points="1941.42 867.89 1877.67 931.64 1813.92 867.89 1750.72 931.09 1689.03 869.39 1627.43 930.99 1564.43 867.99 1502.43 931.36 1438.95 867.89 1375.2 931.64 1311.45 867.89 1248.25 931.09 1186.55 869.39 1124.95 930.99 1061.95 867.99 999.95 929.99 999.95 929.99 936.48 866.51 872.72 930.26 808.97 866.51 745.77 929.71 684.08 868.02 622.48 929.62 559.48 866.61 497.48 929.99 434 866.51 370.25 930.26 306.5 866.51 243.3 929.71 181.6 868.02 120 929.62 57 866.61 -5 928.61 -5 970.34 57 908.34 120 971.34 181.6 909.75 243.3 971.44 306.5 908.24 370.25 971.99 434 908.24 497.48 970.34 559.48 908.34 622.48 971.34 684.08 909.75 745.77 971.44 808.97 908.24 872.72 971.99 936.48 908.24 999.95 971.72 999.95 971.71 1061.95 909.71 1124.95 972.72 1186.55 911.12 1248.25 972.82 1311.45 909.62 1375.2 973.37 1438.95 909.62 1502.43 971.71 1564.43 909.71 1627.43 972.72 1689.03 911.12 1750.72 972.82 1813.92 909.62 1877.67 973.37 1941.42 909.62 2004.9 973.09 2004.9 931.36 1941.42 867.89"/><polygon class="cls-1" points="1941.42 988.89 1877.67 1052.64 1813.92 988.89 1750.72 1052.09 1689.03 990.39 1627.43 1051.99 1564.43 988.98 1502.43 1050.98 1502.43 1052.36 1438.95 988.89 1375.2 1052.64 1311.45 988.89 1248.25 1052.09 1186.55 990.39 1124.95 1051.99 1061.95 988.98 999.95 1050.98 999.95 1050.99 936.48 987.51 872.72 1051.26 808.97 987.51 745.77 1050.71 684.08 989.02 622.48 1050.62 559.48 987.61 497.48 1049.61 497.48 1050.99 434 987.51 370.25 1051.26 306.5 987.51 243.3 1050.71 181.6 989.02 120 1050.62 57 987.61 -5 1049.61 -5 1090.11 57 1028.11 120 1091.12 181.6 1029.52 243.3 1091.21 306.5 1028.01 370.25 1091.76 434 1028.01 497.48 1091.49 497.48 1090.11 559.48 1028.11 622.48 1091.12 684.08 1029.52 745.77 1091.21 808.97 1028.01 872.72 1091.76 936.48 1028.01 999.95 1091.49 999.95 1091.49 1061.95 1029.48 1124.95 1092.49 1186.55 1030.89 1248.25 1092.59 1311.45 1029.39 1375.2 1093.14 1438.95 1029.39 1502.43 1092.86 1502.43 1091.49 1564.43 1029.48 1627.43 1092.49 1689.03 1030.89 1750.72 1092.59 1813.92 1029.39 1877.67 1093.14 1941.42 1029.39 2004.9 1092.86 2004.9 1052.36 1941.42 988.89"/><polygon class="cls-2" points="1941.42 947.16 1877.67 1010.91 1813.92 947.16 1750.72 1010.36 1689.03 948.66 1627.43 1010.26 1564.43 947.25 1502.43 1010.63 1438.95 947.16 1375.2 1010.91 1311.45 947.16 1248.25 1010.36 1186.55 948.66 1124.95 1010.26 1061.95 947.25 999.95 1009.26 999.95 1009.26 936.48 945.78 872.72 1009.53 808.97 945.78 745.77 1008.98 684.08 947.29 622.48 1008.89 559.48 945.88 497.48 1009.26 434 945.78 370.25 1009.53 306.5 945.78 243.3 1008.98 181.6 947.29 120 1008.89 57 945.88 -5 1007.88 -5 1049.61 57 987.61 120 1050.62 181.6 989.02 243.3 1050.71 306.5 987.51 370.25 1051.26 434 987.51 497.48 1049.61 559.48 987.61 622.48 1050.62 684.08 989.02 745.77 1050.71 808.97 987.51 872.72 1051.26 936.48 987.51 999.95 1050.99 999.95 1050.98 1061.95 988.98 1124.95 1051.99 1186.55 990.39 1248.25 1052.09 1311.45 988.89 1375.2 1052.64 1438.95 988.89 1502.43 1050.98 1564.43 988.98 1627.43 1051.99 1689.03 990.39 1750.72 1052.09 1813.92 988.89 1877.67 1052.64 1941.42 988.89 2004.9 1052.36 2004.9 1010.63 1941.42 947.16"/><polygon class="cls-1" points="1941.42 1067.06 1877.67 1130.81 1813.92 1067.06 1750.72 1130.26 1689.03 1068.56 1627.43 1130.16 1564.43 1067.16 1502.43 1129.16 1502.43 1130.54 1438.95 1067.06 1375.2 1130.81 1311.45 1067.06 1248.25 1130.26 1186.55 1068.56 1124.95 1130.16 1061.95 1067.16 999.95 1129.16 999.95 1129.16 936.48 1065.69 872.72 1129.44 808.97 1065.69 745.77 1128.89 684.08 1067.19 622.48 1128.79 559.48 1065.78 497.48 1127.79 497.48 1129.16 434 1065.69 370.25 1129.44 306.5 1065.69 243.3 1128.89 181.6 1067.19 120 1128.79 57 1065.78 -5 1127.79 -5 1168.29 57 1106.29 120 1169.29 181.6 1107.69 243.3 1169.39 306.5 1106.19 370.25 1169.94 434 1106.19 497.48 1169.66 497.48 1168.29 559.48 1106.29 622.48 1169.29 684.08 1107.69 745.77 1169.39 808.97 1106.19 872.72 1169.94 936.48 1106.19 999.95 1169.66 999.95 1169.66 1061.95 1107.66 1124.95 1170.66 1186.55 1109.07 1248.25 1170.76 1311.45 1107.56 1375.2 1171.31 1438.95 1107.56 1502.43 1171.04 1502.43 1169.66 1564.43 1107.66 1627.43 1170.66 1689.03 1109.07 1750.72 1170.76 1813.92 1107.56 1877.67 1171.31 1941.42 1107.56 2004.9 1171.04 2004.9 1130.54 1941.42 1067.06"/><polygon class="cls-1" points="1941.42 1149.29 1877.67 1213.04 1813.92 1149.29 1750.72 1212.49 1689.03 1150.79 1627.43 1212.39 1564.43 1149.39 1502.43 1211.39 1502.43 1212.76 1438.95 1149.29 1375.2 1213.04 1311.45 1149.29 1248.25 1212.49 1186.55 1150.79 1124.95 1212.39 1061.95 1149.39 999.95 1211.39 999.95 1211.39 936.48 1147.91 872.72 1211.67 808.97 1147.91 745.77 1211.12 684.08 1149.42 622.48 1211.02 559.48 1148.01 497.48 1210.01 497.48 1211.39 434 1147.91 370.25 1211.67 306.5 1147.91 243.3 1211.12 181.6 1149.42 120 1211.02 57 1148.01 -5 1210.01 -5 1250.52 57 1188.51 120 1251.52 181.6 1189.92 243.3 1251.62 306.5 1188.42 370.25 1252.17 434 1188.42 497.48 1251.89 497.48 1250.52 559.48 1188.51 622.48 1251.52 684.08 1189.92 745.77 1251.62 808.97 1188.42 872.72 1252.17 936.48 1188.42 999.95 1251.89 999.95 1251.89 1061.95 1189.89 1124.95 1252.89 1186.55 1191.29 1248.25 1252.99 1311.45 1189.79 1375.2 1253.54 1438.95 1189.79 1502.43 1253.27 1502.43 1251.89 1564.43 1189.89 1627.43 1252.89 1689.03 1191.29 1750.72 1252.99 1813.92 1189.79 1877.67 1253.54 1941.42 1189.79 2004.9 1253.27 2004.9 1212.76 1941.42 1149.29"/><polygon class="cls-2" points="1941.42 1107.56 1877.67 1171.31 1813.92 1107.56 1750.72 1170.76 1689.03 1109.07 1627.43 1170.66 1564.43 1107.66 1502.43 1171.04 1438.95 1107.56 1375.2 1171.31 1311.45 1107.56 1248.25 1170.76 1186.55 1109.07 1124.95 1170.66 1061.95 1107.66 999.95 1169.66 999.95 1169.66 936.48 1106.19 872.72 1169.94 808.97 1106.19 745.77 1169.39 684.08 1107.69 622.48 1169.29 559.48 1106.29 497.48 1169.66 434 1106.19 370.25 1169.94 306.5 1106.19 243.3 1169.39 181.6 1107.69 120 1169.29 57 1106.29 -5 1168.29 -5 1210.01 57 1148.01 120 1211.02 181.6 1149.42 243.3 1211.12 306.5 1147.91 370.25 1211.67 434 1147.91 497.48 1210.01 559.48 1148.01 622.48 1211.02 684.08 1149.42 745.77 1211.12 808.97 1147.91 872.72 1211.67 936.48 1147.91 999.95 1211.39 999.95 1211.39 1061.95 1149.39 1124.95 1212.39 1186.55 1150.79 1248.25 1212.49 1311.45 1149.29 1375.2 1213.04 1438.95 1149.29 1502.43 1211.39 1564.43 1149.39 1627.43 1212.39 1689.03 1150.79 1750.72 1212.49 1813.92 1149.29 1877.67 1213.04 1941.42 1149.29 2004.9 1212.76 2004.9 1171.04 1941.42 1107.56"/><polygon class="cls-2" points="1941.42 1026.85 1877.67 1090.6 1813.92 1026.85 1750.72 1090.05 1689.03 1028.35 1627.43 1089.95 1564.43 1026.95 1502.43 1090.32 1438.95 1026.85 1375.2 1090.6 1311.45 1026.85 1248.25 1090.05 1186.55 1028.35 1124.95 1089.95 1061.95 1026.95 999.95 1088.95 999.95 1088.95 936.48 1025.47 872.72 1089.23 808.97 1025.47 745.77 1088.68 684.08 1026.98 622.48 1088.58 559.48 1025.57 497.48 1088.95 434 1025.47 370.25 1089.23 306.5 1025.47 243.3 1088.68 181.6 1026.98 120 1088.58 57 1025.57 -5 1087.57 -5 1129.3 57 1067.3 120 1130.31 181.6 1068.71 243.3 1130.4 306.5 1067.2 370.25 1130.95 434 1067.2 497.48 1129.3 559.48 1067.3 622.48 1130.31 684.08 1068.71 745.77 1130.4 808.97 1067.2 872.72 1130.95 936.48 1067.2 999.95 1130.68 999.95 1130.68 1061.95 1068.67 1124.95 1131.68 1186.55 1070.08 1248.25 1131.78 1311.45 1068.58 1375.2 1132.33 1438.95 1068.58 1502.43 1130.68 1564.43 1068.67 1627.43 1131.68 1689.03 1070.08 1750.72 1131.78 1813.92 1068.58 1877.67 1132.33 1941.42 1068.58 2004.9 1132.05 2004.9 1090.32 1941.42 1026.85"/><polygon class="cls-1" points="1941.42 1231.44 1877.67 1295.19 1813.92 1231.44 1750.72 1294.64 1689.03 1232.95 1627.43 1294.54 1564.43 1231.54 1502.43 1293.54 1502.43 1294.92 1438.95 1231.44 1375.2 1295.19 1311.45 1231.44 1248.25 1294.64 1186.55 1232.95 1124.95 1294.54 1061.95 1231.54 999.95 1293.54 999.95 1293.54 936.48 1230.07 872.72 1293.82 808.97 1230.07 745.77 1293.27 684.08 1231.57 622.48 1293.17 559.48 1230.17 497.48 1292.17 497.48 1293.54 434 1230.07 370.25 1293.82 306.5 1230.07 243.3 1293.27 181.6 1231.57 120 1293.17 57 1230.17 -5 1292.17 -5 1332.67 57 1270.67 120 1333.67 181.6 1272.07 243.3 1333.77 306.5 1270.57 370.25 1334.32 434 1270.57 497.48 1334.05 497.48 1332.67 559.48 1270.67 622.48 1333.67 684.08 1272.07 745.77 1333.77 808.97 1270.57 872.72 1334.32 936.48 1270.57 999.95 1334.05 999.95 1334.04 1061.95 1272.04 1124.95 1335.04 1186.55 1273.45 1248.25 1335.14 1311.45 1271.94 1375.2 1335.69 1438.95 1271.94 1502.43 1335.42 1502.43 1334.04 1564.43 1272.04 1627.43 1335.04 1689.03 1273.45 1750.72 1335.14 1813.92 1271.94 1877.67 1335.69 1941.42 1271.94 2004.9 1335.42 2004.9 1294.92 1941.42 1231.44"/><polygon class="cls-2" points="1941.42 1189.71 1877.67 1253.46 1813.92 1189.71 1750.72 1252.91 1689.03 1191.22 1627.43 1252.82 1564.43 1189.81 1502.43 1253.19 1438.95 1189.71 1375.2 1253.46 1311.45 1189.71 1248.25 1252.91 1186.55 1191.22 1124.95 1252.82 1061.95 1189.81 999.95 1251.81 999.95 1251.82 936.48 1188.34 872.72 1252.09 808.97 1188.34 745.77 1251.54 684.08 1189.85 622.48 1251.44 559.48 1188.44 497.48 1251.82 434 1188.34 370.25 1252.09 306.5 1188.34 243.3 1251.54 181.6 1189.85 120 1251.44 57 1188.44 -5 1250.44 -5 1292.17 57 1230.17 120 1293.17 181.6 1231.57 243.3 1293.27 306.5 1230.07 370.25 1293.82 434 1230.07 497.48 1292.17 559.48 1230.17 622.48 1293.17 684.08 1231.57 745.77 1293.27 808.97 1230.07 872.72 1293.82 936.48 1230.07 999.95 1293.54 999.95 1293.54 1061.95 1231.54 1124.95 1294.54 1186.55 1232.95 1248.25 1294.64 1311.45 1231.44 1375.2 1295.19 1438.95 1231.44 1502.43 1293.54 1564.43 1231.54 1627.43 1294.54 1689.03 1232.95 1750.72 1294.64 1813.92 1231.44 1877.67 1295.19 1941.42 1231.44 2004.9 1294.92 2004.9 1253.19 1941.42 1189.71"/><polygon class="cls-1" points="1941.42 1310.71 1877.67 1374.46 1813.92 1310.71 1750.72 1373.91 1689.03 1312.22 1627.43 1373.81 1564.43 1310.81 1502.43 1372.81 1502.43 1374.19 1438.95 1310.71 1375.2 1374.46 1311.45 1310.71 1248.25 1373.91 1186.55 1312.22 1124.95 1373.81 1061.95 1310.81 999.95 1372.81 999.95 1372.81 936.48 1309.34 872.72 1373.09 808.97 1309.34 745.77 1372.54 684.08 1310.84 622.48 1372.44 559.48 1309.44 497.48 1371.44 497.48 1372.81 434 1309.34 370.25 1373.09 306.5 1309.34 243.3 1372.54 181.6 1310.84 120 1372.44 57 1309.44 -5 1371.44 -5 1411.94 57 1349.94 120 1412.94 181.6 1351.34 243.3 1413.04 306.5 1349.84 370.25 1413.59 434 1349.84 497.48 1413.32 497.48 1411.94 559.48 1349.94 622.48 1412.94 684.08 1351.34 745.77 1413.04 808.97 1349.84 872.72 1413.59 936.48 1349.84 999.95 1413.32 999.95 1413.31 1061.95 1351.31 1124.95 1414.32 1186.55 1352.72 1248.25 1414.41 1311.45 1351.21 1375.2 1414.96 1438.95 1351.21 1502.43 1414.69 1502.43 1413.31 1564.43 1351.31 1627.43 1414.32 1689.03 1352.72 1750.72 1414.41 1813.92 1351.21 1877.67 1414.96 1941.42 1351.21 2004.9 1414.69 2004.9 1374.19 1941.42 1310.71"/><polygon class="cls-1" points="1941.42 1392.94 1877.67 1456.69 1813.92 1392.94 1750.72 1456.14 1689.03 1394.45 1627.43 1456.04 1564.43 1393.04 1502.43 1455.04 1502.43 1456.42 1438.95 1392.94 1375.2 1456.69 1311.45 1392.94 1248.25 1456.14 1186.55 1394.45 1124.95 1456.04 1061.95 1393.04 999.95 1455.04 999.95 1455.04 936.48 1391.57 872.72 1455.32 808.97 1391.57 745.77 1454.77 684.08 1393.07 622.48 1454.67 559.48 1391.67 497.48 1453.67 497.48 1455.04 434 1391.57 370.25 1455.32 306.5 1391.57 243.3 1454.77 181.6 1393.07 120 1454.67 57 1391.67 -5 1453.67 -5 1494.17 57 1432.17 120 1495.17 181.6 1433.57 243.3 1495.27 306.5 1432.07 370.25 1495.82 434 1432.07 497.48 1495.55 497.48 1494.17 559.48 1432.17 622.48 1495.17 684.08 1433.57 745.77 1495.27 808.97 1432.07 872.72 1495.82 936.48 1432.07 999.95 1495.55 999.95 1495.54 1061.95 1433.54 1124.95 1496.54 1186.55 1434.95 1248.25 1496.64 1311.45 1433.44 1375.2 1497.19 1438.95 1433.44 1502.43 1496.92 1502.43 1495.54 1564.43 1433.54 1627.43 1496.54 1689.03 1434.95 1750.72 1496.64 1813.92 1433.44 1877.67 1497.19 1941.42 1433.44 2004.9 1496.92 2004.9 1456.42 1941.42 1392.94"/><polygon class="cls-2" points="1941.42 1351.21 1877.67 1414.96 1813.92 1351.21 1750.72 1414.41 1689.03 1352.72 1627.43 1414.32 1564.43 1351.31 1502.43 1414.69 1438.95 1351.21 1375.2 1414.96 1311.45 1351.21 1248.25 1414.41 1186.55 1352.72 1124.95 1414.32 1061.95 1351.31 999.95 1413.31 999.95 1413.32 936.48 1349.84 872.72 1413.59 808.97 1349.84 745.77 1413.04 684.08 1351.34 622.48 1412.94 559.48 1349.94 497.48 1413.32 434 1349.84 370.25 1413.59 306.5 1349.84 243.3 1413.04 181.6 1351.34 120 1412.94 57 1349.94 -5 1411.94 -5 1453.67 57 1391.67 120 1454.67 181.6 1393.07 243.3 1454.77 306.5 1391.57 370.25 1455.32 434 1391.57 497.48 1453.67 559.48 1391.67 622.48 1454.67 684.08 1393.07 745.77 1454.77 808.97 1391.57 872.72 1455.32 936.48 1391.57 999.95 1455.04 999.95 1455.04 1061.95 1393.04 1124.95 1456.04 1186.55 1394.45 1248.25 1456.14 1311.45 1392.94 1375.2 1456.69 1438.95 1392.94 1502.43 1455.04 1564.43 1393.04 1627.43 1456.04 1689.03 1394.45 1750.72 1456.14 1813.92 1392.94 1877.67 1456.69 1941.42 1392.94 2004.9 1456.42 2004.9 1414.69 1941.42 1351.21"/><polygon class="cls-2" points="1941.42 1270.5 1877.67 1334.25 1813.92 1270.5 1750.72 1333.7 1689.03 1272.01 1627.43 1333.6 1564.43 1270.6 1502.43 1333.98 1438.95 1270.5 1375.2 1334.25 1311.45 1270.5 1248.25 1333.7 1186.55 1272.01 1124.95 1333.6 1061.95 1270.6 999.95 1332.6 999.95 1332.6 936.48 1269.13 872.72 1332.88 808.97 1269.13 745.77 1332.33 684.08 1270.63 622.48 1332.23 559.48 1269.23 497.48 1332.6 434 1269.13 370.25 1332.88 306.5 1269.13 243.3 1332.33 181.6 1270.63 120 1332.23 57 1269.23 -5 1331.23 -5 1372.95 57 1310.95 120 1373.96 181.6 1312.36 243.3 1374.06 306.5 1310.86 370.25 1374.61 434 1310.86 497.48 1372.95 559.48 1310.95 622.48 1373.96 684.08 1312.36 745.77 1374.06 808.97 1310.86 872.72 1374.61 936.48 1310.86 999.95 1374.33 999.95 1374.33 1061.95 1312.33 1124.95 1375.33 1186.55 1313.73 1248.25 1375.43 1311.45 1312.23 1375.2 1375.98 1438.95 1312.23 1502.43 1374.33 1564.43 1312.33 1627.43 1375.33 1689.03 1313.73 1750.72 1375.43 1813.92 1312.23 1877.67 1375.98 1941.42 1312.23 2004.9 1375.7 2004.9 1333.98 1941.42 1270.5"/><polygon class="cls-1" points="1941.42 1475.09 1877.67 1538.85 1813.92 1475.09 1750.72 1538.29 1689.03 1476.6 1627.43 1538.2 1564.43 1475.19 1502.43 1537.19 1502.43 1538.57 1438.95 1475.09 1375.2 1538.85 1311.45 1475.09 1248.25 1538.29 1186.55 1476.6 1124.95 1538.2 1061.95 1475.19 999.95 1537.19 999.95 1537.2 936.48 1473.72 872.72 1537.47 808.97 1473.72 745.77 1536.92 684.08 1475.23 622.48 1536.82 559.48 1473.82 497.48 1535.82 497.48 1537.2 434 1473.72 370.25 1537.47 306.5 1473.72 243.3 1536.92 181.6 1475.23 120 1536.82 57 1473.82 -5 1535.82 -5 1576.32 57 1514.32 120 1577.32 181.6 1515.73 243.3 1577.42 306.5 1514.22 370.25 1577.97 434 1514.22 497.48 1577.7 497.48 1576.32 559.48 1514.32 622.48 1577.32 684.08 1515.73 745.77 1577.42 808.97 1514.22 872.72 1577.97 936.48 1514.22 999.95 1577.7 999.95 1577.69 1061.95 1515.69 1124.95 1578.7 1186.55 1517.1 1248.25 1578.8 1311.45 1515.6 1375.2 1579.35 1438.95 1515.6 1502.43 1579.07 1502.43 1577.69 1564.43 1515.69 1627.43 1578.7 1689.03 1517.1 1750.72 1578.8 1813.92 1515.6 1877.67 1579.35 1941.42 1515.6 2004.9 1579.07 2004.9 1538.57 1941.42 1475.09"/><polygon class="cls-2" points="1941.42 1433.37 1877.67 1497.12 1813.92 1433.37 1750.72 1496.57 1689.03 1434.87 1627.43 1496.47 1564.43 1433.46 1502.43 1496.84 1438.95 1433.37 1375.2 1497.12 1311.45 1433.37 1248.25 1496.57 1186.55 1434.87 1124.95 1496.47 1061.95 1433.46 999.95 1495.46 999.95 1495.47 936.48 1431.99 872.72 1495.74 808.97 1431.99 745.77 1495.19 684.08 1433.5 622.48 1495.09 559.48 1432.09 497.48 1495.47 434 1431.99 370.25 1495.74 306.5 1431.99 243.3 1495.19 181.6 1433.5 120 1495.09 57 1432.09 -5 1494.09 -5 1535.82 57 1473.82 120 1536.82 181.6 1475.23 243.3 1536.92 306.5 1473.72 370.25 1537.47 434 1473.72 497.48 1535.82 559.48 1473.82 622.48 1536.82 684.08 1475.23 745.77 1536.92 808.97 1473.72 872.72 1537.47 936.48 1473.72 999.95 1537.2 999.95 1537.19 1061.95 1475.19 1124.95 1538.2 1186.55 1476.6 1248.25 1538.29 1311.45 1475.09 1375.2 1538.85 1438.95 1475.09 1502.43 1537.19 1564.43 1475.19 1627.43 1538.2 1689.03 1476.6 1750.72 1538.29 1813.92 1475.09 1877.67 1538.85 1941.42 1475.09 2004.9 1538.57 2004.9 1496.84 1941.42 1433.37"/><polygon class="cls-1" points="1941.42 1554.36 1877.67 1618.12 1813.92 1554.36 1750.72 1617.56 1689.03 1555.87 1627.43 1617.47 1564.43 1554.46 1502.43 1616.46 1502.43 1617.84 1438.95 1554.36 1375.2 1618.12 1311.45 1554.36 1248.25 1617.56 1186.55 1555.87 1124.95 1617.47 1061.95 1554.46 999.95 1616.46 999.95 1616.47 936.48 1552.99 872.72 1616.74 808.97 1552.99 745.77 1616.19 684.08 1554.5 622.48 1616.09 559.48 1553.09 497.48 1615.09 497.48 1616.47 434 1552.99 370.25 1616.74 306.5 1552.99 243.3 1616.19 181.6 1554.5 120 1616.09 57 1553.09 -5 1615.09 -5 1655.59 57 1593.59 120 1656.59 181.6 1595 243.3 1656.69 306.5 1593.49 370.25 1657.24 434 1593.49 497.48 1656.97 497.48 1655.59 559.48 1593.59 622.48 1656.59 684.08 1595 745.77 1656.69 808.97 1593.49 872.72 1657.24 936.48 1593.49 999.95 1656.97 999.95 1656.96 1061.95 1594.96 1124.95 1657.97 1186.55 1596.37 1248.25 1658.07 1311.45 1594.87 1375.2 1658.62 1438.95 1594.87 1502.43 1658.34 1502.43 1656.96 1564.43 1594.96 1627.43 1657.97 1689.03 1596.37 1750.72 1658.07 1813.92 1594.87 1877.67 1658.62 1941.42 1594.87 2004.9 1658.34 2004.9 1617.84 1941.42 1554.36"/><polygon class="cls-1" points="1941.42 1636.59 1877.67 1700.35 1813.92 1636.59 1750.72 1699.79 1689.03 1638.1 1627.43 1699.7 1564.43 1636.69 1502.43 1698.69 1502.43 1700.07 1438.95 1636.59 1375.2 1700.35 1311.45 1636.59 1248.25 1699.79 1186.55 1638.1 1124.95 1699.7 1061.95 1636.69 999.95 1698.69 999.95 1698.7 936.48 1635.22 872.72 1698.97 808.97 1635.22 745.77 1698.42 684.08 1636.72 622.48 1698.32 559.48 1635.32 497.48 1697.32 497.48 1698.7 434 1635.22 370.25 1698.97 306.5 1635.22 243.3 1698.42 181.6 1636.72 120 1698.32 57 1635.32 -5 1697.32 -5 1737.82 57 1675.82 120 1738.82 181.6 1677.23 243.3 1738.92 306.5 1675.72 370.25 1739.47 434 1675.72 497.48 1739.2 497.48 1737.82 559.48 1675.82 622.48 1738.82 684.08 1677.23 745.77 1738.92 808.97 1675.72 872.72 1739.47 936.48 1675.72 999.95 1739.2 999.95 1739.19 1061.95 1677.19 1124.95 1740.2 1186.55 1678.6 1248.25 1740.3 1311.45 1677.1 1375.2 1740.85 1438.95 1677.1 1502.43 1740.57 1502.43 1739.19 1564.43 1677.19 1627.43 1740.2 1689.03 1678.6 1750.72 1740.3 1813.92 1677.1 1877.67 1740.85 1941.42 1677.1 2004.9 1740.57 2004.9 1700.07 1941.42 1636.59"/><polygon class="cls-2" points="1941.42 1594.87 1877.67 1658.62 1813.92 1594.87 1750.72 1658.07 1689.03 1596.37 1627.43 1657.97 1564.43 1594.96 1502.43 1658.34 1438.95 1594.87 1375.2 1658.62 1311.45 1594.87 1248.25 1658.07 1186.55 1596.37 1124.95 1657.97 1061.95 1594.96 999.95 1656.96 999.95 1656.97 936.48 1593.49 872.72 1657.24 808.97 1593.49 745.77 1656.69 684.08 1595 622.48 1656.59 559.48 1593.59 497.48 1656.97 434 1593.49 370.25 1657.24 306.5 1593.49 243.3 1656.69 181.6 1595 120 1656.59 57 1593.59 -5 1655.59 -5 1697.32 57 1635.32 120 1698.32 181.6 1636.72 243.3 1698.42 306.5 1635.22 370.25 1698.97 434 1635.22 497.48 1697.32 559.48 1635.32 622.48 1698.32 684.08 1636.72 745.77 1698.42 808.97 1635.22 872.72 1698.97 936.48 1635.22 999.95 1698.7 999.95 1698.69 1061.95 1636.69 1124.95 1699.7 1186.55 1638.1 1248.25 1699.79 1311.45 1636.59 1375.2 1700.35 1438.95 1636.59 1502.43 1698.69 1564.43 1636.69 1627.43 1699.7 1689.03 1638.1 1750.72 1699.79 1813.92 1636.59 1877.67 1700.35 1941.42 1636.59 2004.9 1700.07 2004.9 1658.34 1941.42 1594.87"/><polygon class="cls-2" points="1941.42 1514.15 1877.67 1577.9 1813.92 1514.15 1750.72 1577.35 1689.03 1515.66 1627.43 1577.26 1564.43 1514.25 1502.43 1577.63 1438.95 1514.15 1375.2 1577.9 1311.45 1514.15 1248.25 1577.35 1186.55 1515.66 1124.95 1577.26 1061.95 1514.25 999.95 1576.25 999.95 1576.26 936.48 1512.78 872.72 1576.53 808.97 1512.78 745.77 1575.98 684.08 1514.29 622.48 1575.88 559.48 1512.88 497.48 1576.26 434 1512.78 370.25 1576.53 306.5 1512.78 243.3 1575.98 181.6 1514.29 120 1575.88 57 1512.88 -5 1574.88 -5 1616.61 57 1554.61 120 1617.61 181.6 1556.01 243.3 1617.71 306.5 1554.51 370.25 1618.26 434 1554.51 497.48 1616.61 559.48 1554.61 622.48 1617.61 684.08 1556.01 745.77 1617.71 808.97 1554.51 872.72 1618.26 936.48 1554.51 999.95 1617.98 999.95 1617.98 1061.95 1555.98 1124.95 1618.98 1186.55 1557.39 1248.25 1619.08 1311.45 1555.88 1375.2 1619.63 1438.95 1555.88 1502.43 1617.98 1564.43 1555.98 1627.43 1618.98 1689.03 1557.39 1750.72 1619.08 1813.92 1555.88 1877.67 1619.63 1941.42 1555.88 2004.9 1619.36 2004.9 1577.63 1941.42 1514.15"/><polygon class="cls-1" points="1941.42 1718.75 1877.67 1782.5 1813.92 1718.75 1750.72 1781.95 1689.03 1720.25 1627.43 1781.85 1564.43 1718.85 1502.43 1780.85 1502.43 1782.22 1438.95 1718.75 1375.2 1782.5 1311.45 1718.75 1248.25 1781.95 1186.55 1720.25 1124.95 1781.85 1061.95 1718.85 999.95 1780.85 999.95 1780.85 936.48 1717.37 872.72 1781.12 808.97 1717.37 745.77 1780.57 684.08 1718.88 622.48 1780.48 559.48 1717.47 497.48 1779.47 497.48 1780.85 434 1717.37 370.25 1781.12 306.5 1717.37 243.3 1780.57 181.6 1718.88 120 1780.48 57 1717.47 -5 1779.47 -5 1819.97 57 1757.97 120 1820.98 181.6 1759.38 243.3 1821.08 306.5 1757.87 370.25 1821.63 434 1757.87 497.48 1821.35 497.48 1819.97 559.48 1757.97 622.48 1820.98 684.08 1759.38 745.77 1821.08 808.97 1757.87 872.72 1821.63 936.48 1757.87 999.95 1821.35 999.95 1821.35 1061.95 1759.35 1124.95 1822.35 1186.55 1760.75 1248.25 1822.45 1311.45 1759.25 1375.2 1823 1438.95 1759.25 1502.43 1822.72 1502.43 1821.35 1564.43 1759.35 1627.43 1822.35 1689.03 1760.75 1750.72 1822.45 1813.92 1759.25 1877.67 1823 1941.42 1759.25 2004.9 1822.72 2004.9 1782.22 1941.42 1718.75"/><polygon class="cls-2" points="1941.42 1677.02 1877.67 1740.77 1813.92 1677.02 1750.72 1740.22 1689.03 1678.52 1627.43 1740.12 1564.43 1677.12 1502.43 1740.49 1438.95 1677.02 1375.2 1740.77 1311.45 1677.02 1248.25 1740.22 1186.55 1678.52 1124.95 1740.12 1061.95 1677.12 999.95 1739.12 999.95 1739.12 936.48 1675.64 872.72 1739.4 808.97 1675.64 745.77 1738.85 684.08 1677.15 622.48 1738.75 559.48 1675.74 497.48 1739.12 434 1675.64 370.25 1739.4 306.5 1675.64 243.3 1738.85 181.6 1677.15 120 1738.75 57 1675.74 -5 1737.74 -5 1779.47 57 1717.47 120 1780.48 181.6 1718.88 243.3 1780.57 306.5 1717.37 370.25 1781.12 434 1717.37 497.48 1779.47 559.48 1717.47 622.48 1780.48 684.08 1718.88 745.77 1780.57 808.97 1717.37 872.72 1781.12 936.48 1717.37 999.95 1780.85 999.95 1780.85 1061.95 1718.85 1124.95 1781.85 1186.55 1720.25 1248.25 1781.95 1311.45 1718.75 1375.2 1782.5 1438.95 1718.75 1502.43 1780.85 1564.43 1718.85 1627.43 1781.85 1689.03 1720.25 1750.72 1781.95 1813.92 1718.75 1877.67 1782.5 1941.42 1718.75 2004.9 1782.22 2004.9 1740.49 1941.42 1677.02"/><polygon class="cls-1" points="1941.42 1798.02 1877.67 1861.77 1813.92 1798.02 1750.72 1861.22 1689.03 1799.52 1627.43 1861.12 1564.43 1798.12 1502.43 1860.12 1502.43 1861.49 1438.95 1798.02 1375.2 1861.77 1311.45 1798.02 1248.25 1861.22 1186.55 1799.52 1124.95 1861.12 1061.95 1798.12 999.95 1860.12 999.95 1860.12 936.48 1796.64 872.72 1860.39 808.97 1796.64 745.77 1859.84 684.08 1798.15 622.48 1859.75 559.48 1796.74 497.48 1858.74 497.48 1860.12 434 1796.64 370.25 1860.39 306.5 1796.64 243.3 1859.84 181.6 1798.15 120 1859.75 57 1796.74 -5 1858.74 -5 1899.24 57 1837.24 120 1900.25 181.6 1838.65 243.3 1900.35 306.5 1837.14 370.25 1900.9 434 1837.14 497.48 1900.62 497.48 1899.24 559.48 1837.24 622.48 1900.25 684.08 1838.65 745.77 1900.35 808.97 1837.14 872.72 1900.9 936.48 1837.14 999.95 1900.62 999.95 1900.62 1061.95 1838.62 1124.95 1901.62 1186.55 1840.02 1248.25 1901.72 1311.45 1838.52 1375.2 1902.27 1438.95 1838.52 1502.43 1901.99 1502.43 1900.62 1564.43 1838.62 1627.43 1901.62 1689.03 1840.02 1750.72 1901.72 1813.92 1838.52 1877.67 1902.27 1941.42 1838.52 2004.9 1901.99 2004.9 1861.49 1941.42 1798.02"/><polygon class="cls-1" points="1941.42 1880.25 1877.67 1944 1813.92 1880.25 1750.72 1943.45 1689.03 1881.75 1627.43 1943.35 1564.43 1880.34 1502.43 1942.35 1502.43 1943.72 1438.95 1880.25 1375.2 1944 1311.45 1880.25 1248.25 1943.45 1186.55 1881.75 1124.95 1943.35 1061.95 1880.34 999.95 1942.35 999.95 1942.35 936.48 1878.87 872.72 1942.62 808.97 1878.87 745.77 1942.07 684.08 1880.38 622.48 1941.97 559.48 1878.97 497.48 1940.97 497.48 1942.35 434 1878.87 370.25 1942.62 306.5 1878.87 243.3 1942.07 181.6 1880.38 120 1941.97 57 1878.97 -5 1940.97 -5 1981.47 57 1919.47 120 1982.48 181.6 1920.88 243.3 1982.57 306.5 1919.37 370.25 1983.13 434 1919.37 497.48 1982.85 497.48 1981.47 559.48 1919.47 622.48 1982.48 684.08 1920.88 745.77 1982.57 808.97 1919.37 872.72 1983.13 936.48 1919.37 999.95 1982.85 999.95 1982.85 1061.95 1920.85 1124.95 1983.85 1186.55 1922.25 1248.25 1983.95 1311.45 1920.75 1375.2 1984.5 1438.95 1920.75 1502.43 1984.22 1502.43 1982.85 1564.43 1920.85 1627.43 1983.85 1689.03 1922.25 1750.72 1983.95 1813.92 1920.75 1877.67 1984.5 1941.42 1920.75 2004.9 1984.22 2004.9 1943.72 1941.42 1880.25"/><polygon class="cls-2" points="1941.42 1838.52 1877.67 1902.27 1813.92 1838.52 1750.72 1901.72 1689.03 1840.02 1627.43 1901.62 1564.43 1838.62 1502.43 1901.99 1438.95 1838.52 1375.2 1902.27 1311.45 1838.52 1248.25 1901.72 1186.55 1840.02 1124.95 1901.62 1061.95 1838.62 999.95 1900.62 999.95 1900.62 936.48 1837.14 872.72 1900.9 808.97 1837.14 745.77 1900.35 684.08 1838.65 622.48 1900.25 559.48 1837.24 497.48 1900.62 434 1837.14 370.25 1900.9 306.5 1837.14 243.3 1900.35 181.6 1838.65 120 1900.25 57 1837.24 -5 1899.24 -5 1940.97 57 1878.97 120 1941.97 181.6 1880.38 243.3 1942.07 306.5 1878.87 370.25 1942.62 434 1878.87 497.48 1940.97 559.48 1878.97 622.48 1941.97 684.08 1880.38 745.77 1942.07 808.97 1878.87 872.72 1942.62 936.48 1878.87 999.95 1942.35 999.95 1942.35 1061.95 1880.34 1124.95 1943.35 1186.55 1881.75 1248.25 1943.45 1311.45 1880.25 1375.2 1944 1438.95 1880.25 1502.43 1942.35 1564.43 1880.34 1627.43 1943.35 1689.03 1881.75 1750.72 1943.45 1813.92 1880.25 1877.67 1944 1941.42 1880.25 2004.9 1943.72 2004.9 1901.99 1941.42 1838.52"/><polygon class="cls-2" points="1941.42 1757.81 1877.67 1821.56 1813.92 1757.81 1750.72 1821.01 1689.03 1759.31 1627.43 1820.91 1564.43 1757.9 1502.43 1821.28 1438.95 1757.81 1375.2 1821.56 1311.45 1757.81 1248.25 1821.01 1186.55 1759.31 1124.95 1820.91 1061.95 1757.9 999.95 1819.9 999.95 1819.91 936.48 1756.43 872.72 1820.18 808.97 1756.43 745.77 1819.63 684.08 1757.94 622.48 1819.54 559.48 1756.53 497.48 1819.91 434 1756.43 370.25 1820.18 306.5 1756.43 243.3 1819.63 181.6 1757.94 120 1819.54 57 1756.53 -5 1818.53 -5 1860.26 57 1798.26 120 1861.26 181.6 1799.67 243.3 1861.36 306.5 1798.16 370.25 1861.91 434 1798.16 497.48 1860.26 559.48 1798.26 622.48 1861.26 684.08 1799.67 745.77 1861.36 808.97 1798.16 872.72 1861.91 936.48 1798.16 999.95 1861.64 999.95 1861.63 1061.95 1799.63 1124.95 1862.64 1186.55 1801.04 1248.25 1862.73 1311.45 1799.54 1375.2 1863.29 1438.95 1799.54 1502.43 1861.63 1564.43 1799.63 1627.43 1862.64 1689.03 1801.04 1750.72 1862.73 1813.92 1799.54 1877.67 1863.29 1941.42 1799.54 2004.9 1863.01 2004.9 1821.28 1941.42 1757.81"/><polygon class="cls-1" points="1941.42 1962.4 1877.67 2026.15 1813.92 1962.4 1750.72 2025.6 1689.03 1963.9 1627.43 2025.5 1564.43 1962.5 1502.43 2024.5 1502.43 2025.88 1438.95 1962.4 1375.2 2026.15 1311.45 1962.4 1248.25 2025.6 1186.55 1963.9 1124.95 2025.5 1061.95 1962.5 999.95 2024.5 999.95 2024.5 936.48 1961.03 872.72 2024.78 808.97 1961.03 745.77 2024.23 684.08 1962.53 622.48 2024.13 559.48 1961.12 497.48 2023.13 497.48 2024.5 434 1961.03 370.25 2024.78 306.5 1961.03 243.3 2024.23 181.6 1962.53 120 2024.13 57 1961.12 -5 2023.13 -5 2063.63 57 2001.63 120 2064.63 181.6 2003.03 243.3 2064.73 306.5 2001.53 370.25 2065.28 434 2001.53 497.48 2065 497.48 2063.63 559.48 2001.63 622.48 2064.63 684.08 2003.03 745.77 2064.73 808.97 2001.53 872.72 2065.28 936.48 2001.53 999.95 2065 999.95 2065 1061.95 2003 1124.95 2066 1186.55 2004.4 1248.25 2066.1 1311.45 2002.9 1375.2 2066.65 1438.95 2002.9 1502.43 2066.38 1502.43 2065 1564.43 2003 1627.43 2066 1689.03 2004.4 1750.72 2066.1 1813.92 2002.9 1877.67 2066.65 1941.42 2002.9 2004.9 2066.38 2004.9 2025.88 1941.42 1962.4"/><polygon class="cls-2" points="1941.42 1920.67 1877.67 1984.42 1813.92 1920.67 1750.72 1983.87 1689.03 1922.17 1627.43 1983.77 1564.43 1920.77 1502.43 1984.15 1438.95 1920.67 1375.2 1984.42 1311.45 1920.67 1248.25 1983.87 1186.55 1922.17 1124.95 1983.77 1061.95 1920.77 999.95 1982.77 999.95 1982.77 936.48 1919.3 872.72 1983.05 808.97 1919.3 745.77 1982.5 684.08 1920.8 622.48 1982.4 559.48 1919.4 497.48 1982.77 434 1919.3 370.25 1983.05 306.5 1919.3 243.3 1982.5 181.6 1920.8 120 1982.4 57 1919.4 -5 1981.4 -5 2023.13 57 1961.12 120 2024.13 181.6 1962.53 243.3 2024.23 306.5 1961.03 370.25 2024.78 434 1961.03 497.48 2023.13 559.48 1961.12 622.48 2024.13 684.08 1962.53 745.77 2024.23 808.97 1961.03 872.72 2024.78 936.48 1961.03 999.95 2024.5 999.95 2024.5 1061.95 1962.5 1124.95 2025.5 1186.55 1963.9 1248.25 2025.6 1311.45 1962.4 1375.2 2026.15 1438.95 1962.4 1502.43 2024.5 1564.43 1962.5 1627.43 2025.5 1689.03 1963.9 1750.72 2025.6 1813.92 1962.4 1877.67 2026.15 1941.42 1962.4 2004.9 2025.88 2004.9 1984.15 1941.42 1920.67"/><polygon class="cls-2" points="1941.42 1999.94 1877.67 2063.69 1813.92 1999.94 1750.72 2063.14 1689.03 2001.45 1627.43 2063.04 1564.43 2000.04 1502.43 2063.42 1438.95 1999.94 1375.2 2063.69 1311.45 1999.94 1248.25 2063.14 1186.55 2001.45 1124.95 2063.04 1061.95 2000.04 999.95 2062.04 999.95 2062.04 936.48 1998.57 872.72 2062.32 808.97 1998.57 745.77 2061.77 684.08 2000.07 622.48 2061.67 559.48 1998.67 497.48 2062.04 434 1998.57 370.25 2062.32 306.5 1998.57 243.3 2061.77 181.6 2000.07 120 2061.67 57 1998.67 -5 2060.67 -5 2102.39 57 2040.39 120 2103.4 181.6 2041.8 243.3 2103.5 306.5 2040.3 370.25 2104.05 434 2040.3 497.48 2102.39 559.48 2040.39 622.48 2103.4 684.08 2041.8 745.77 2103.5 808.97 2040.3 872.72 2104.05 936.48 2040.3 999.95 2103.77 999.95 2103.77 1061.95 2041.77 1124.95 2104.77 1186.55 2043.17 1248.25 2104.87 1311.45 2041.67 1375.2 2105.42 1438.95 2041.67 1502.43 2103.77 1564.43 2041.77 1627.43 2104.77 1689.03 2043.17 1750.72 2104.87 1813.92 2041.67 1877.67 2105.42 1941.42 2041.67 2004.9 2105.14 2004.9 2063.42 1941.42 1999.94"/></svg>