<svg id="Layer_1" data-name="Layer 1" xmlns="http://www.w3.org/2000/svg" viewBox="0 0 436.23 524.19"><defs><style>.cls-1,.cls-6{fill:#fff;}.cls-1{stroke:#373737;stroke-miterlimit:10;}.cls-2{fill:#a09f9f;}.cls-3{fill:#606060;}.cls-4{fill:#373737;}.cls-5{fill:#d3d3d3;}.cls-7{fill:#b5986b;}.cls-8{fill:#b28b50;}.cls-9{fill:#a17045;}.cls-10{fill:#d0bd99;}.cls-11{fill:#7eb189;}.cls-12{fill:#558460;}.cls-13{fill:#314840;}.cls-14{fill:#cce5d0;}</style></defs><title>colour chart triple</title><rect class="cls-1" x="304.93" y="0.5" width="130.8" height="523.19"/><rect class="cls-2" x="317.62" y="137.78" width="105.86" height="105.86"/><rect class="cls-3" x="317.62" y="257.64" width="105.86" height="105.86"/><rect class="cls-4" x="317.62" y="377.5" width="105.86" height="105.86"/><rect class="cls-5" x="317.62" y="17.92" width="105.86" height="105.86"/><rect class="cls-6" x="0.5" y="1" width="129.8" height="522.19"/><path class="cls-4" d="M129.8,1V522.19H1V1H129.8m1-1H0V523.19H130.8V0Z" transform="translate(0 0.5)"/><rect class="cls-7" x="12.69" y="137.78" width="105.86" height="105.86"/><rect class="cls-8" x="12.69" y="257.64" width="105.86" height="105.86"/><rect class="cls-9" x="12.69" y="377.5" width="105.86" height="105.86"/><rect class="cls-10" x="12.69" y="17.92" width="105.86" height="105.86"/><rect class="cls-1" x="152.69" y="0.5" width="130.8" height="523.19"/><rect class="cls-11" x="165.12" y="137" width="105.86" height="105.86"/><rect class="cls-12" x="165.12" y="256.86" width="105.86" height="105.86"/><rect class="cls-13" x="165.12" y="376.72" width="105.86" height="105.86"/><rect class="cls-14" x="165.12" y="17.14" width="105.86" height="105.86"/></svg>