<svg id="Layer_1" data-name="Layer 1" xmlns="http://www.w3.org/2000/svg" viewBox="0 0 117.43 150"><defs><style>.cls-1{fill:#fff;}.cls-2,.cls-3{fill:none;stroke-miterlimit:10;}.cls-2{stroke:#373737;stroke-width:0.25px;}.cls-3{stroke:#f7636d;}</style></defs><title>lined-page</title><rect class="cls-1" x="0.13" y="0.13" width="117.18" height="149.75"/><path d="M117.18.25v149.5H.25V.25H117.18m.25-.25H0V150H117.43V0Z" transform="translate(0)"/><line class="cls-2" y1="15.66" x2="117.43" y2="15.66"/><line class="cls-2" y1="22.34" x2="117.43" y2="22.34"/><line class="cls-2" y1="29.02" x2="117.43" y2="29.02"/><line class="cls-2" y1="35.71" x2="117.43" y2="35.71"/><line class="cls-2" y1="42.39" x2="117.43" y2="42.39"/><line class="cls-2" y1="49.07" x2="117.43" y2="49.07"/><line class="cls-2" y1="55.75" x2="117.43" y2="55.75"/><line class="cls-2" y1="62.44" x2="117.43" y2="62.44"/><line class="cls-2" y1="69.12" x2="117.43" y2="69.12"/><line class="cls-2" y1="75.8" x2="117.43" y2="75.8"/><line class="cls-2" y1="82.48" x2="117.43" y2="82.48"/><line class="cls-2" y1="89.17" x2="117.43" y2="89.17"/><line class="cls-2" y1="95.85" x2="117.43" y2="95.85"/><line class="cls-2" y1="102.53" x2="117.43" y2="102.53"/><line class="cls-2" y1="109.22" x2="117.43" y2="109.22"/><line class="cls-2" y1="115.9" x2="117.43" y2="115.9"/><line class="cls-2" y1="129.26" x2="117.43" y2="129.26"/><line class="cls-2" y1="142.63" x2="117.43" y2="142.63"/><line class="cls-2" y1="135.95" x2="117.43" y2="135.95"/><line class="cls-2" y1="123.46" x2="117.43" y2="123.46"/><line class="cls-3" x1="14.73" x2="14.73" y2="150"/></svg>