<?xml version="1.0" encoding="utf-8"?>
<!-- Generator: Adobe Illustrator 20.1.0, SVG Export Plug-In . SVG Version: 6.00 Build 0)  -->
<svg version="1.1" id="Layer_1" xmlns="http://www.w3.org/2000/svg" xmlns:xlink="http://www.w3.org/1999/xlink" x="0px" y="0px"
	 viewBox="0 0 100.5 112.3" style="enable-background:new 0 0 100.5 112.3;" xml:space="preserve">
<style type="text/css">
	.st0{fill:#FFFFFF;}
	.st1{fill:#E5E5E5;}
	.st2{fill:#7EB189;}
	.st3{fill:#F7F7F7;}
	.st4{fill:#606060;}
</style>
<g>
	<rect class="st0" width="100.5" height="112.3"/>
</g>
<rect x="6.3" y="6.3" class="st1" width="88" height="88"/>
<rect x="28.3" y="27.4" class="st2" width="52.5" height="66.8"/>
<rect x="28.3" y="27.4" class="st3" width="52.5" height="2.9"/>
<rect x="28.3" y="40.7" class="st3" width="52.5" height="2.9"/>
<rect x="28.3" y="53.2" class="st3" width="52.5" height="2.9"/>
<rect x="28.3" y="65.6" class="st3" width="52.5" height="2.9"/>
<rect x="28.3" y="78.1" class="st3" width="52.5" height="2.9"/>
<rect x="54.5" y="31.1" class="st3" width="4.7" height="5.7"/>
<rect x="48.8" y="31.1" class="st3" width="4.7" height="5.7"/>
<rect x="28.3" y="40" class="st4" width="52.5" height="0.7"/>
<rect x="28.3" y="30.3" class="st4" width="52.5" height="0.7"/>
<rect x="54.5" y="43.9" class="st3" width="4.7" height="5.7"/>
<rect x="48.7" y="43.9" class="st3" width="4.7" height="5.7"/>
<rect x="28.3" y="52.8" class="st4" width="52.5" height="0.7"/>
<rect x="28.3" y="43.2" class="st4" width="52.5" height="0.7"/>
<rect x="54.5" y="56.6" class="st3" width="4.7" height="5.7"/>
<rect x="48.7" y="56.6" class="st3" width="4.7" height="5.7"/>
<rect x="28.3" y="65.5" class="st4" width="52.5" height="0.7"/>
<rect x="28.3" y="55.8" class="st4" width="52.5" height="0.7"/>
<rect x="54.5" y="69.2" class="st3" width="4.7" height="5.7"/>
<rect x="48.8" y="69.2" class="st3" width="4.7" height="5.7"/>
<rect x="28.3" y="78.1" class="st4" width="52.5" height="0.7"/>
<rect x="28.3" y="68.5" class="st4" width="52.5" height="0.7"/>
<rect x="54.5" y="81.4" class="st3" width="4.7" height="5.7"/>
<rect x="48.8" y="81.4" class="st3" width="4.7" height="5.7"/>
<rect x="28.3" y="80.7" class="st4" width="52.5" height="0.7"/>
<rect x="62.3" y="23.4" class="st4" width="0.6" height="4"/>
<rect x="57.8" y="24.5" transform="matrix(0.9983 5.762703e-02 -5.762703e-02 0.9983 1.5247 -3.4626)" class="st4" width="6.1" height="0.5"/>
</svg>
