<svg id="Layer_1" data-name="Layer 1" xmlns="http://www.w3.org/2000/svg" viewBox="0 0 100.54 112.28"><defs><style>.cls-1{fill:#fff;}.cls-2{fill:#cce5d0;}.cls-3{fill:#d0bd99;}.cls-4{fill:#e2e2e2;}.cls-5{fill:#e5e5e5;}.cls-6{fill:#314840;}.cls-7{fill:#558460;}</style></defs><title>polaroid3</title><rect class="cls-1" width="100.54" height="112.28"/><rect class="cls-2" x="6.28" y="6.28" width="87.99" height="87.99"/><rect class="cls-3" x="60.44" y="43.43" width="22.86" height="50.83"/><rect class="cls-4" x="58.09" y="37.76" width="27.56" height="5.67"/><polygon class="cls-5" points="58.09 37.76 71.87 33.75 85.65 37.76 58.09 37.76"/><rect class="cls-3" x="6.28" y="78.66" width="54.16" height="15.6"/><rect class="cls-4" x="6.28" y="75.86" width="54.16" height="2.81"/><rect class="cls-6" x="9.02" y="43.43" width="2.12" height="32.42"/><rect class="cls-7" x="13.12" y="44.69" width="0.8" height="28.8"/><rect class="cls-7" x="15.89" y="41.92" width="0.8" height="31.57"/><rect class="cls-7" x="18.67" y="44.69" width="0.8" height="28.8"/><rect class="cls-7" x="21.44" y="41.92" width="0.8" height="31.57"/><rect class="cls-7" x="24.21" y="44.69" width="0.8" height="28.8"/><rect class="cls-7" x="26.99" y="41.92" width="0.8" height="31.57"/><rect class="cls-7" x="29.76" y="44.69" width="0.8" height="28.8"/><rect class="cls-7" x="32.53" y="41.92" width="0.8" height="31.57"/><rect class="cls-7" x="35.31" y="44.69" width="0.8" height="28.8"/><rect class="cls-7" x="38.08" y="41.92" width="0.8" height="31.57"/><rect class="cls-7" x="40.86" y="44.69" width="0.8" height="28.8"/><rect class="cls-7" x="43.63" y="41.92" width="0.8" height="31.57"/><rect class="cls-7" x="46.4" y="44.69" width="0.8" height="28.8"/><rect class="cls-7" x="49.18" y="41.92" width="0.8" height="31.57"/><rect class="cls-7" x="51.95" y="44.69" width="0.8" height="28.8"/><rect class="cls-7" x="54.72" y="41.92" width="0.8" height="31.57"/><rect class="cls-7" x="57.5" y="44.69" width="0.8" height="28.8"/><rect class="cls-6" x="6.28" y="46.57" width="54.16" height="0.93"/><rect class="cls-6" x="6.28" y="70.44" width="54.16" height="0.93"/></svg>